SplineFontDB: 3.0
FontName: AbhayaLibreLatin-Regular
FullName: Abhaya Libre Latin Regular
FamilyName: Abhaya Libre Latin
Weight: Regular
Copyright: (c) 1997 Pushpananda Ekanayake(http://isiwara.lk), 2013 Path Nirvana(http://pathnirvana.org/), 2014 mooniak(mooniak.com). All Rights Reserved.
Version: 000.041
ItalicAngle: 0
UnderlinePosition: -37
UnderlineWidth: 24
Ascent: 746
Descent: 254
InvalidEm: 0
sfntRevision: 0x00010000
LayerCount: 2
Layer: 0 0 "Back" 1
Layer: 1 0 "Fore" 0
XUID: [1021 59 -1845969167 8840642]
FSType: 8
OS2Version: 3
OS2_WeightWidthSlopeOnly: 0
OS2_UseTypoMetrics: 1
CreationTime: 1436994086
ModificationTime: 1437060861
PfmFamily: 81
TTFWeight: 400
TTFWidth: 5
LineGap: 0
VLineGap: 0
Panose: 0 0 5 0 0 0 0 0 0 0
OS2TypoAscent: 746
OS2TypoAOffset: 0
OS2TypoDescent: -254
OS2TypoDOffset: 0
OS2TypoLinegap: 36
OS2WinAscent: 946
OS2WinAOffset: 0
OS2WinDescent: 254
OS2WinDOffset: 0
HheadAscent: 946
HheadAOffset: 0
HheadDescent: -254
HheadDOffset: 0
OS2SubXSize: 650
OS2SubYSize: 600
OS2SubXOff: 0
OS2SubYOff: 75
OS2SupXSize: 650
OS2SupYSize: 600
OS2SupXOff: 0
OS2SupYOff: 350
OS2StrikeYSize: 24
OS2StrikeYPos: 300
OS2CapHeight: 700
OS2XHeight: 500
OS2Vendor: 'MS  '
OS2CodePages: 20000093.00000000
OS2UnicodeRanges: 00000007.00000000.00000000.00000000
Lookup: 1 0 0 "" { } []
Lookup: 260 0 0 "'mark' Mark Positioning lookup 0" { "'mark' Mark Positioning lookup 0 subtable"  } ['mark' ('DFLT' <'dflt' > ) ]
DEI: 91125
LangName: 1033 "" "" "" "1.000;MS  ;AbhayaLibreLatin-Regular" "Abhaya Libre Latin" "Version 1.000;PS 000.041;hotconv 1.0.70;makeotf.lib2.5.58329" "" "" "mooniak PLC." "Pushpananda Ekanayake(isiwara.lk)" "Pushpananda Ekanayake and mooniak" "https://github.com/mooniak/nidahas-fm-abhaya" "http://www.mooniak.com/typography" "Licensed under OFL" "http://www.apache.org/licenses/LICENSE-2.0"
Encoding: Custom
UnicodeInterp: none
NameList: AGL For New Fonts
DisplaySize: -128
AntiAlias: 1
FitToEm: 1
WinInfo: 256 8 2
BeginPrivate: 6
BlueScale 5 0.037
BlueFuzz 1 0

StartChar: .notdef
Encoding: 256 -1 0
Width: 500
Flags: MW
HStem: -254 69<167 333 167 410> -152 47<167 237 231 231 231 237 301 333> -72 23<167 333 167 333> -16 47<200 300 200 300> 64 60<167 333 167 333> 157 24<233 267 233 300> 237 22<167 200 167 333 233 333 233 233> 293 23<167 267 167 300 167 267> 349 37<167 233 167 233> 419 27<167 333 167 333> 480 36<200 233 200 233 200 333 200 267> 550 26<167 267 167 333> 609 37<168 233 168 233 167 233 168 267 267 333> 679 67<168 333 168 168>
VStem: 93 74<-185 -152 -105 -72 -49 64 124 237 259 293 316 349 386 419 446 550 576 609> 200 33<181 237 181 237 181 237 480 516> 267 33<181 204 316 359> 333 77<-185 -152 -152 -152 -105 -72 -72 -72 -49 64 64 64 124 237 237 237 259 359 359 359 386 419 419 419 446 480 480 480 576 609 609 609 646 679 679 679>
LayerCount: 2
Back
Fore
SplineSet
410 746 m 1
 410 -254 l 1
 93 -254 l 1
 93 746 l 1
 410 746 l 1
333 679 m 1
 168 679 l 1
 168 646 l 1
 233 646 l 1
 233 609 l 1
 167 609 l 1
 167 576 l 1
 333 576 l 1
 333 609 l 1
 267 609 l 1
 267 646 l 1
 333 646 l 1
 333 679 l 1
267 550 m 1
 167 550 l 1
 167 446 l 1
 333 446 l 1
 333 480 l 1
 267 480 l 1
 267 550 l 1
233 516 m 1
 233 480 l 1
 200 480 l 1
 200 516 l 1
 233 516 l 1
333 419 m 1
 167 419 l 1
 167 386 l 1
 233 386 l 1
 233 349 l 1
 167 349 l 1
 167 316 l 1
 267 316 l 1
 267 386 l 1
 333 386 l 1
 333 419 l 1
333 359 m 1
 300 359 l 1
 300 293 l 1
 167 293 l 1
 167 259 l 1
 333 259 l 1
 333 359 l 1
333 237 m 1
 233 237 l 1
 233 181 l 1
 267 181 l 1
 267 204 l 1
 300 204 l 1
 300 157 l 1
 200 157 l 1
 200 237 l 1
 167 237 l 1
 167 124 l 1
 333 124 l 1
 333 237 l 1
333 64 m 1
 167 64 l 1
 167 -49 l 1
 333 -49 l 1
 333 64 l 1
300 31 m 1
 300 -16 l 1
 200 -16 l 1
 200 31 l 1
 300 31 l 1
333 -72 m 1
 167 -72 l 1
 167 -105 l 1
 237 -105 l 1
 167 -152 l 1
 167 -185 l 1
 333 -185 l 1
 333 -152 l 1
 231 -152 l 1
 301 -105 l 1
 333 -105 l 1
 333 -72 l 1
EndSplineSet
EndChar

StartChar: apostrophe
Encoding: 258 39 2
Width: 60
Flags: MW
HStem: 349 173<18 159 18 159>
VStem: 18 141<349 522 349 522>
LayerCount: 2
Back
Fore
SplineSet
18 349 m 1
 159 349 l 1
 159 522 l 1
 18 522 l 1
 18 349 l 1
EndSplineSet
EndChar

StartChar: parenleft
Encoding: 259 40 3
Width: 336
Flags: MW
HStem: -150 800<309 312>
VStem: 50 85<166 330.5 166 335>
LayerCount: 2
Back
Fore
SplineSet
321 625 m 1
 198 579 135 413 135 248 c 0
 135 84 196 -80 319 -125 c 1
 309 -150 l 1
 135 -103 50 71 50 246 c 0
 50 424 138 603 312 650 c 1
 321 625 l 1
EndSplineSet
EndChar

StartChar: parenright
Encoding: 260 41 4
Width: 338
Flags: MW
HStem: -150 800<26 29>
VStem: 203 85<166 330.5>
LayerCount: 2
Back
Fore
SplineSet
17 625 m 1
 26 650 l 1
 200 603 288 424 288 246 c 0
 288 71 203 -103 29 -150 c 1
 19 -125 l 1
 142 -80 203 84 203 248 c 0
 203 413 140 579 17 625 c 1
EndSplineSet
EndChar

StartChar: asterisk
Encoding: 261 42 5
Width: 383
Flags: MW
HStem: 327 323<182 203> 389.15 198.56 389.3 198.57
VStem: 157 71<350 371 606 627>
LayerCount: 2
Back
Fore
SplineSet
321 455 m 0x90
 338 445 343 426 332 407 c 0
 321 388 303 384 287 394 c 0
 267 406 240 443 202 473 c 1
 208 423 228 383 228 360 c 0
 228 340 214 327 192 327 c 0
 169 327 157 341 157 359 c 0
 157 383 177 425 183 473 c 1x50
 144 443 119 406 99 394 c 0
 82 384 63 389 52 408 c 0
 41 428 47 445 63 454 c 0
 84 466 129 470 174 489 c 1
 129 508 84 511 64 522 c 0
 47 532 42 551 53 570 c 0
 64 589 82 593 98 583 c 0
 118 571 145 534 183 504 c 1
 177 554 157 594 157 617 c 0
 157 637 171 650 193 650 c 0
 216 650 228 636 228 618 c 0
 228 594 208 552 202 504 c 1x30
 241 534 266 571 286 583 c 0
 303 593 322 588 333 569 c 0
 344 549 338 532 322 523 c 0
 301 511 256 507 211 488 c 1x50
 256 469 301 466 321 455 c 0x90
EndSplineSet
EndChar

StartChar: comma
Encoding: 262 44 6
Width: 193
Flags: MW
HStem: -97 200<90 90>
VStem: 113 40<-18.5 56>
LayerCount: 2
Back
Fore
SplineSet
90 -97 m 1
 69 -82 l 1
 93 -57 113 -27 113 -10 c 0
 113 -1 104 4 90 7 c 0
 70 11 50 27 50 53 c 0
 50 81 71 103 98 103 c 0
 134 103 153 75 153 37 c 0
 153 -4 131 -55 90 -97 c 1
EndSplineSet
EndChar

StartChar: slash
Encoding: 263 47 7
Width: 406
Flags: MW
HStem: -155 865<-10 391 -10 391>
VStem: -10 401
LayerCount: 2
Back
Fore
SplineSet
-10 -155 m 1
 331 710 l 1
 391 710 l 1
 50 -155 l 1
 -10 -155 l 1
EndSplineSet
EndChar

StartChar: zero
Encoding: 264 48 8
Width: 605
Flags: MW
HStem: -10 28<257.5 352.5 257.5 371> 582 28<256.5 351.5>
VStem: 55 105<201.5 403> 445 105<202 403.5 201 410.5>
LayerCount: 2
Back
Fore
SplineSet
550 300 m 0
 550 102 440 -10 302 -10 c 0
 163 -10 55 99 55 304 c 0
 55 502 169 610 307 610 c 0
 444 610 550 507 550 300 c 0
445 304 m 0
 445 517 399 582 304 582 c 0
 209 582 160 508 160 300 c 0
 160 90 210 18 305 18 c 0
 400 18 445 100 445 304 c 0
EndSplineSet
EndChar

StartChar: one
Encoding: 265 49 9
Width: 458
Flags: MW
HStem: 0 30.5
VStem: 212 88<35 538 538 538>
LayerCount: 2
Back
Fore
SplineSet
300 600 m 1
 300 35 l 1
 403 26 l 2
 423 24 434 19 434 0 c 1
 55 0 l 1
 55 26 l 1
 212 35 l 1
 212 538 l 1
 38 436 l 1
 20 465 l 1
 239 600 l 1
 300 600 l 1
EndSplineSet
EndChar

StartChar: two
Encoding: 266 50 10
Width: 510
Flags: MW
HStem: 0 76<82 336 336 356.5 82 453 30 336> 583 27<191 272.5>
VStem: 30 52<76 123.5> 38 109.14 346 102<386.5 501.5> 432 22
LayerCount: 2
Back
Fore
SplineSet
432 174 m 1xe4
 455 174 l 1
 453 0 l 1xe4
 30 0 l 1
 30 20 l 2xe8
 30 227 346 305 346 468 c 0
 346 535 312 583 233 583 c 0
 94 583 192 428 91 428 c 0
 56 428 38 451 38 481 c 0xd8
 38 565 140 610 242 610 c 0
 344 610 448 565 448 467 c 0xe8
 448 283 82 208 82 76 c 1
 336 76 l 2
 377 76 401 77 414 118 c 2
 432 174 l 1xe4
EndSplineSet
EndChar

StartChar: three
Encoding: 267 51 11
Width: 508
Flags: MW
HStem: -10 26<174.5 263 148 279> 313 30<266 283> 524 76<149.5 170 170 345 388 388>
VStem: 35 106.2 52 22 366 90<134.5 217>
LayerCount: 2
Back
Fore
SplineSet
276 343 m 0xec
 381 343 456 288 456 177 c 0
 456 48 335 -10 223 -10 c 0
 126 -10 35 33 35 111 c 0
 35 139 53 160 87 160 c 0xf4
 193 160 87 16 209 16 c 0
 317 16 366 96 366 173 c 0
 366 261 321 313 245 313 c 0
 224 313 202 308 178 298 c 1
 156 316 l 1
 343 523 l 1
 345 524 l 1
 170 524 l 2
 129 524 105 523 92 482 c 2
 74 426 l 1
 51 426 l 1
 53 600 l 1
 440 600 l 1
 440 580 l 1
 388 524 l 1
 213 335 l 1
 234 340 256 343 276 343 c 0xec
EndSplineSet
EndChar

StartChar: four
Encoding: 268 52 12
Width: 501
Flags: MW
HStem: 0 27<184 291 374 437 437 446.5 184 291> 152.5 30
VStem: 291 83<27 151 27 152 27 152 182 303 303 303>
LayerCount: 2
Back
Fore
SplineSet
461 151 m 1
 374 151 l 1
 374 27 l 1
 437 27 l 2
 456 27 461 23 461 0 c 1
 184 0 l 1
 184 27 l 1
 291 27 l 1
 291 152 l 1
 11 153 l 1
 5 183 l 1
 296 422 203 610 317 610 c 0
 353 610 376 594 376 563 c 0
 376 475 240 340 49 183 c 1
 291 182 l 1
 291 303 l 1
 297 303 l 2
 323 304 333 312 341 344 c 2
 351 386 l 1
 374 386 l 1
 374 181 l 1
 461 181 l 1
 461 151 l 1
EndSplineSet
EndChar

StartChar: five
Encoding: 269 53 13
Width: 500
Flags: MW
HStem: -10 26<160 268 154.5 302> 334 37<232 279> 512 84<277.5 332.5>
VStem: 38 107.16 88 35<332 520> 365 97<141 222> 401 25<593.5 649>
LayerCount: 2
Back
Fore
SplineSet
255 371 m 0xec
 392 371 462 282 462 190 c 0
 462 92 381 -10 223 -10 c 0
 97 -10 38 61 38 111 c 0
 38 139 56 160 90 160 c 0
 196 160 90 16 219 16 c 0
 317 16 365 91 365 183 c 0xf4
 365 261 327 334 231 334 c 0
 196 334 157 323 123 295 c 1
 88 321 l 1
 88 605 l 1
 189 601 255 596 300 596 c 0
 370 596 388 607 401 649 c 1
 426 649 l 1xea
 426 538 408 512 257 512 c 0
 219 512 174 514 123 520 c 1
 123 332 l 1
 162 358 209 371 255 371 c 0xec
EndSplineSet
EndChar

StartChar: six
Encoding: 270 54 14
Width: 527
Flags: MW
HStem: -10 26<229.5 315 229.5 329.5> 333 32<263 313.5> 584 26<241.5 347.5 199 358>
VStem: 53 95<198.5 226.5 125.5 352.5> 362.99 104.01 390 95<136.5 228.5>
LayerCount: 2
Back
Fore
SplineSet
285 365 m 0xf4
 388 365 485 298 485 181 c 0xf4
 485 60 386 -10 273 -10 c 0
 98 -10 53 113 53 284 c 0
 53 421 108 610 290 610 c 0
 405 610 467 553 467 500 c 0
 467 469 448 445 414 445 c 0xf8
 307 447 426 584 290 584 c 0
 193 584 168 469 155 324 c 1
 194 352 241 365 285 365 c 0xf4
271 16 m 0
 359 16 390 88 390 185 c 0
 390 272 357 333 270 333 c 0
 200 333 148 282 148 171 c 0
 148 80 188 16 271 16 c 0
EndSplineSet
EndChar

StartChar: seven
Encoding: 271 55 15
Width: 481
Flags: MW
HStem: 524 76<138.5 159 159 403>
VStem: 41 22 109 132.71
LayerCount: 2
Back
Fore
SplineSet
42 600 m 1
 476 600 l 1
 476 580 l 1
 168 124 280 -15 172 -15 c 0
 133 -15 109 4 109 39 c 0
 109 105 207 236 403 524 c 1
 159 524 l 2
 118 524 94 518 81 477 c 2
 63 421 l 1
 40 421 l 1
 42 600 l 1
EndSplineSet
EndChar

StartChar: eight
Encoding: 272 56 16
Width: 548
Flags: MW
HStem: -10 28<213 290 213 316.5> 582 28<248.5 315>
VStem: 60 34<106 174 106 175.5> 78 93<454.5 501.5> 393 95<105 166> 415 34<441 502.5>
LayerCount: 2
Back
Fore
SplineSet
358 328 m 1xe4
 427 290 488 242 488 157 c 0
 488 53 373 -10 260 -10 c 0
 147 -10 60 45 60 147 c 0xe8
 60 204 98 266 187 297 c 1
 127 332 78 377 78 449 c 0xd4
 78 554 172 610 274 610 c 0
 364 610 449 563 449 465 c 0
 449 415 420 363 358 328 c 1xe4
281 582 m 0xd4
 216 582 171 546 171 490 c 0
 171 419 252 384 331 342 c 1
 386 371 415 418 415 464 c 0
 415 541 349 582 281 582 c 0xd4
253 18 m 0xe8
 327 18 393 53 393 130 c 0
 393 202 300 236 215 281 c 1
 132 256 94 199 94 149 c 0
 94 63 173 18 253 18 c 0xe8
EndSplineSet
EndChar

StartChar: nine
Encoding: 273 57 17
Width: 537
Flags: MW
HStem: -11 26 254 33<206 261.5> 584 26<207 294>
VStem: 40 95<400 482 400 482.5> 55 112.36 374 100<382.5 408.5 234.5 473.5>
LayerCount: 2
Back
Fore
SplineSet
249 610 m 0xf4
 400 610 474 498 474 319 c 0
 474 150 406 -8 223 -11 c 0
 122 -13 56 46 55 108 c 0
 54 140 76 163 109 163 c 0xec
 208 163 122 15 237 15 c 0
 349 15 372 151 374 303 c 1
 334 270 286 254 237 254 c 0
 131 254 40 319 40 427 c 0
 40 538 128 610 249 610 c 0xf4
251 287 m 0
 323 287 374 334 374 431 c 0
 374 516 336 584 252 584 c 0
 162 584 135 522 135 442 c 0
 135 358 161 287 251 287 c 0
EndSplineSet
EndChar

StartChar: colon
Encoding: 274 58 18
Width: 208
Flags: MW
HStem: 52 98<90.5 117.5> 286 98<90.5 117.5>
VStem: 55 98<87.5 114.5 321.5 348.5>
LayerCount: 2
Back
Fore
SplineSet
104 286 m 0
 77 286 55 308 55 335 c 0
 55 362 77 384 104 384 c 0
 131 384 153 362 153 335 c 0
 153 308 131 286 104 286 c 0
104 52 m 0
 77 52 55 74 55 101 c 0
 55 128 77 150 104 150 c 0
 131 150 153 128 153 101 c 0
 153 74 131 52 104 52 c 0
EndSplineSet
EndChar

StartChar: semicolon
Encoding: 275 59 19
Width: 193
Flags: MW
HStem: 233 98<85.5 112.5>
VStem: 50 98<268.5 295.5> 113 40<-1.5 73>
LayerCount: 2
Back
Fore
SplineSet
99 233 m 0xc0
 72 233 50 255 50 282 c 0
 50 309 72 331 99 331 c 0
 126 331 148 309 148 282 c 0
 148 255 126 233 99 233 c 0xc0
90 -80 m 1xa0
 69 -65 l 1
 93 -40 113 -10 113 7 c 0
 113 16 104 21 90 24 c 0
 70 28 50 44 50 70 c 0
 50 98 71 120 98 120 c 0
 134 120 153 92 153 54 c 0
 153 13 131 -38 90 -80 c 1xa0
EndSplineSet
EndChar

StartChar: question
Encoding: 276 63 20
Width: 457
Flags: MW
HStem: -5 103<194 222> 584 26<187 257.5>
VStem: 58 100.4 157 102<32 60.5> 193 30<167 252.5> 306 102<433.5 524>
LayerCount: 2
Back
Fore
SplineSet
193 167 m 1x6c
 193 338 306 367 306 500 c 0
 306 548 292 584 223 584 c 0
 114 584 200 453 109 453 c 0
 74 453 58 476 58 506 c 0
 58 570 142 610 232 610 c 0
 324 610 408 573 408 480 c 0
 408 355 223 339 223 167 c 1
 193 167 l 1x6c
208 -5 m 0xd4
 180 -5 157 18 157 46 c 0
 157 75 180 98 208 98 c 0
 236 98 259 75 259 46 c 0
 259 18 236 -5 208 -5 c 0xd4
EndSplineSet
EndChar

StartChar: braceleft
Encoding: 277 123 21
Width: 400
Flags: MW
HStem: -136 781<300 380>
VStem: 80 300
LayerCount: 2
Back
Fore
SplineSet
155 252 m 1
 155 257 l 1
 195 274 236 292 236 361 c 2
 236 512 l 2
 236 602 260 617 380 617 c 1
 380 645 l 1
 220 645 156 640 156 505 c 2
 156 356 l 2
 156 298 142 278 80 265 c 1
 80 244 l 1
 142 231 156 211 156 153 c 2
 156 4 l 2
 156 -131 220 -136 380 -136 c 1
 380 -108 l 1
 260 -108 236 -93 236 -3 c 2
 236 148 l 2
 236 217 195 235 155 252 c 1
EndSplineSet
EndChar

StartChar: braceright
Encoding: 278 125 22
Width: 390
Flags: MW
HStem: -138 781<20 100>
VStem: 20 300
LayerCount: 2
Back
Fore
SplineSet
245 255 m 1
 245 250 l 1
 205 233 164 215 164 146 c 2
 164 -5 l 2
 164 -95 140 -110 20 -110 c 1
 20 -138 l 1
 180 -138 244 -133 244 2 c 2
 244 151 l 2
 244 209 258 229 320 242 c 1
 320 263 l 1
 258 276 244 296 244 354 c 2
 244 503 l 2
 244 638 180 643 20 643 c 1
 20 615 l 1
 140 615 164 600 164 510 c 2
 164 359 l 2
 164 290 205 272 245 255 c 1
EndSplineSet
EndChar

StartChar: uni2010
Encoding: 279 8208 23
Width: 344
Flags: MW
HStem: 187 47<43 271 43 271>
VStem: 43 228<187 234 187 234>
LayerCount: 2
Back
Fore
SplineSet
43 187 m 1
 271 187 l 1
 271 234 l 1
 43 234 l 1
 43 187 l 1
EndSplineSet
EndChar

StartChar: quoteleft
Encoding: 280 8216 24
Width: 193
Flags: MW
HStem: 455 200<103 103 103 108.5>
VStem: 40 40<502 576.5>
LayerCount: 2
Back
Fore
SplineSet
95 455 m 0
 59 455 40 483 40 521 c 0
 40 562 62 613 103 655 c 1
 124 640 l 1
 100 615 80 585 80 568 c 0
 80 559 89 554 103 551 c 0
 123 547 143 531 143 505 c 0
 143 477 122 455 95 455 c 0
EndSplineSet
EndChar

StartChar: quoteright
Encoding: 281 8217 25
Width: 193
Flags: MW
HStem: 450 200<90 90>
VStem: 113 40<528.5 603>
LayerCount: 2
Back
Fore
SplineSet
90 450 m 1
 69 465 l 1
 93 490 113 520 113 537 c 0
 113 546 104 551 90 554 c 0
 70 558 50 574 50 600 c 0
 50 628 71 650 98 650 c 0
 134 650 153 622 153 584 c 0
 153 543 131 492 90 450 c 1
EndSplineSet
EndChar

StartChar: A
Encoding: 282 65 26
Width: 620
GlyphClass: 2
Flags: MW
HStem: 0 26<5 68 108 166 166 175.5 5 68 396 467 563 595 595 605> 220 29<194 381 194 392 183 381>
VStem: 5 615<0 11 0 26 0 26>
LayerCount: 2
Back
Fore
SplineSet
595 26 m 2
 615 26 620 22 620 0 c 1
 396 0 l 1
 396 26 l 1
 467 26 l 1
 392 220 l 1
 183 220 l 1
 108 26 l 1
 166 26 l 2
 185 26 190 22 190 0 c 1
 5 0 l 1
 5 26 l 1
 68 26 l 1
 292 600 l 1
 334 600 l 1
 563 26 l 1
 595 26 l 2
194 249 m 1
 381 249 l 1
 287 491 l 1
 194 249 l 1
EndSplineSet
EndChar

StartChar: Aacute
Encoding: 283 193 27
Width: 620
GlyphClass: 2
Flags: MW
HStem: 0 26<5 68 108 166 166 175.5 5 68 396 467 563 595 595 605> 220 29<194 381 194 392 183 381>
VStem: 5 615<0 11 0 26 0 26>
LayerCount: 2
Back
Fore
SplineSet
400 713 m 0
 375 688 309 659 252 613 c 1
 236 630 l 1
 285 683 314 749 338 773 c 0
 347 782 357 786 367 786 c 0
 390 786 413 764 413 741 c 0
 413 731 408 721 400 713 c 0
595 26 m 2
 615 26 620 22 620 0 c 1
 396 0 l 1
 396 26 l 1
 467 26 l 1
 392 220 l 1
 183 220 l 1
 108 26 l 1
 166 26 l 2
 185 26 190 22 190 0 c 1
 5 0 l 1
 5 26 l 1
 68 26 l 1
 292 600 l 1
 334 600 l 1
 563 26 l 1
 595 26 l 2
194 249 m 1
 381 249 l 1
 287 491 l 1
 194 249 l 1
EndSplineSet
EndChar

StartChar: Abreve
Encoding: 284 258 28
Width: 620
GlyphClass: 2
Flags: MW
HStem: 0 26<5 68 108 166 166 175.5 5 68 396 467 563 595 595 605> 220 29<194 381 194 392 183 381> 640 64<288.5 334.5 288.5 354.5>
VStem: 187 20<736 769> 411 21<736 769>
LayerCount: 2
Back
Fore
SplineSet
310 640 m 0
 222 640 187 703 187 769 c 1
 207 769 l 1
 218 716 264 704 313 704 c 0
 356 704 400 713 411 769 c 1
 432 769 l 1
 432 703 399 640 310 640 c 0
595 26 m 2
 615 26 620 22 620 0 c 1
 396 0 l 1
 396 26 l 1
 467 26 l 1
 392 220 l 1
 183 220 l 1
 108 26 l 1
 166 26 l 2
 185 26 190 22 190 0 c 1
 5 0 l 1
 5 26 l 1
 68 26 l 1
 292 600 l 1
 334 600 l 1
 563 26 l 1
 595 26 l 2
194 249 m 1
 381 249 l 1
 287 491 l 1
 194 249 l 1
EndSplineSet
EndChar

StartChar: Acircumflex
Encoding: 285 194 29
Width: 620
GlyphClass: 2
Flags: MW
HStem: 0 26<5 68 108 166 166 175.5 5 68 396 467 563 595 595 605> 220 29<194 381 194 392 183 381>
VStem: 5 615<0 11 0 26 0 26>
LayerCount: 2
Back
Fore
SplineSet
311 700 m 1
 279 684 230 657 189 630 c 1
 177 644 l 1
 251 728 269 773 309 773 c 0
 349 773 368 728 443 645 c 1
 431 629 l 1
 395 654 343 683 311 700 c 1
595 26 m 2
 615 26 620 22 620 0 c 1
 396 0 l 1
 396 26 l 1
 467 26 l 1
 392 220 l 1
 183 220 l 1
 108 26 l 1
 166 26 l 2
 185 26 190 22 190 0 c 1
 5 0 l 1
 5 26 l 1
 68 26 l 1
 292 600 l 1
 334 600 l 1
 563 26 l 1
 595 26 l 2
194 249 m 1
 381 249 l 1
 287 491 l 1
 194 249 l 1
EndSplineSet
EndChar

StartChar: Adieresis
Encoding: 286 196 30
Width: 620
GlyphClass: 2
Flags: MW
HStem: 0 26<5 68 108 166 166 175.5 5 68 396 467 563 595 595 605> 220 29<194 381 194 392 183 381> 651 100<205.5 233.5 388 416>
VStem: 169 100<686.5 715> 352 100<686.5 715>
LayerCount: 2
Back
Fore
SplineSet
220 651 m 0
 191 651 169 672 169 701 c 0
 169 729 191 751 220 751 c 0
 247 751 269 729 269 701 c 0
 269 672 247 651 220 651 c 0
402 651 m 0
 374 651 352 672 352 701 c 0
 352 729 374 751 402 751 c 0
 430 751 452 729 452 701 c 0
 452 672 430 651 402 651 c 0
595 26 m 2
 615 26 620 22 620 0 c 1
 396 0 l 1
 396 26 l 1
 467 26 l 1
 392 220 l 1
 183 220 l 1
 108 26 l 1
 166 26 l 2
 185 26 190 22 190 0 c 1
 5 0 l 1
 5 26 l 1
 68 26 l 1
 292 600 l 1
 334 600 l 1
 563 26 l 1
 595 26 l 2
194 249 m 1
 381 249 l 1
 287 491 l 1
 194 249 l 1
EndSplineSet
EndChar

StartChar: Agrave
Encoding: 287 192 31
Width: 620
GlyphClass: 2
Flags: MW
HStem: 0 26<5 68 108 166 166 175.5 5 68 396 467 563 595 595 605> 220 29<194 381 194 392 183 381>
VStem: 5 615<0 11 0 26 0 26>
LayerCount: 2
Back
Fore
SplineSet
379 613 m 1
 322 659 256 688 231 713 c 0
 223 721 218 731 218 741 c 0
 218 764 241 786 264 786 c 0
 274 786 284 782 293 773 c 0
 317 749 346 683 395 630 c 1
 379 613 l 1
595 26 m 2
 615 26 620 22 620 0 c 1
 396 0 l 1
 396 26 l 1
 467 26 l 1
 392 220 l 1
 183 220 l 1
 108 26 l 1
 166 26 l 2
 185 26 190 22 190 0 c 1
 5 0 l 1
 5 26 l 1
 68 26 l 1
 292 600 l 1
 334 600 l 1
 563 26 l 1
 595 26 l 2
194 249 m 1
 381 249 l 1
 287 491 l 1
 194 249 l 1
EndSplineSet
EndChar

StartChar: Amacron
Encoding: 288 256 32
Width: 620
GlyphClass: 2
Flags: MW
HStem: 0 26<5 68 108 166 166 175.5 5 68 396 467 563 595 595 605> 220 29<194 381 194 392 183 381> 670 50<162 462 162 462>
VStem: 5 615<0 11 0 26 0 26>
LayerCount: 2
Back
Fore
SplineSet
462 720 m 1
 462 670 l 1
 162 670 l 1
 162 720 l 1
 462 720 l 1
595 26 m 2
 615 26 620 22 620 0 c 1
 396 0 l 1
 396 26 l 1
 467 26 l 1
 392 220 l 1
 183 220 l 1
 108 26 l 1
 166 26 l 2
 185 26 190 22 190 0 c 1
 5 0 l 1
 5 26 l 1
 68 26 l 1
 292 600 l 1
 334 600 l 1
 563 26 l 1
 595 26 l 2
194 249 m 1
 381 249 l 1
 287 491 l 1
 194 249 l 1
EndSplineSet
EndChar

StartChar: Aogonek
Encoding: 289 260 33
Width: 620
GlyphClass: 2
Flags: MW
HStem: -191 29<545.5 551.5> 0 26<5 68 108 166 166 175.5 5 68 396 467 563 571> 220 29<194 381 194 392 183 381>
VStem: 440 76<-128.5 -95>
LayerCount: 2
Back
Fore
SplineSet
613 -139 m 1
 625 -154 l 1
 600 -180 567 -191 536 -191 c 0
 476 -191 440 -157 440 -116 c 0
 440 -74 478 -26 571 0 c 1
 396 0 l 1
 396 26 l 1
 467 26 l 1
 392 220 l 1
 183 220 l 1
 108 26 l 1
 166 26 l 2
 185 26 190 22 190 0 c 1
 5 0 l 1
 5 26 l 1
 68 26 l 1
 292 600 l 1
 334 600 l 1
 563 26 l 1
 595 26 l 2
 615 26 620 22 620 0 c 1
 612 0 l 1
 545 -26 516 -75 516 -112 c 0
 516 -145 533 -162 558 -162 c 0
 574 -162 594 -155 613 -139 c 1
194 249 m 1
 381 249 l 1
 287 491 l 1
 194 249 l 1
EndSplineSet
EndChar

StartChar: Aring
Encoding: 290 197 34
Width: 620
GlyphClass: 2
Flags: MW
HStem: 0 26<5 68 108 166 166 175.5 5 68 396 467 563 595 595 605> 220 29<194 381 194 392 183 381> 584 21<286 330> 742 23<294 331>
VStem: 208 54<657 690 657 701> 363 54<658 691>
LayerCount: 2
Back
Fore
SplineSet
595 26 m 2
 615 26 620 22 620 0 c 1
 396 0 l 1
 396 26 l 1
 467 26 l 1
 392 220 l 1
 183 220 l 1
 108 26 l 1
 166 26 l 2
 185 26 190 22 190 0 c 1
 5 0 l 1
 5 26 l 1
 68 26 l 1
 286 584 l 1
 237 593 208 629 208 675 c 0
 208 727 248 765 315 765 c 0
 380 765 417 726 417 676 c 0
 417 631 389 595 340 585 c 1
 563 26 l 1
 595 26 l 2
262 673 m 0
 262 641 274 605 312 605 c 0
 348 605 363 641 363 675 c 0
 363 707 350 742 312 742 c 0
 276 742 262 707 262 673 c 0
194 249 m 1
 381 249 l 1
 287 491 l 1
 194 249 l 1
EndSplineSet
EndChar

StartChar: Atilde
Encoding: 291 195 35
Width: 620
GlyphClass: 2
Flags: MW
HStem: 0 26<5 68 108 166 166 175.5 5 68 396 467 563 595 595 605> 220 29<194 381 194 392 183 381> 649 55<363 391> 708 55<241 268>
VStem: 5 615<0 11 0 26 0 26>
LayerCount: 2
Back
Fore
SplineSet
248 708 m 0
 221 708 203 691 192 651 c 1
 172 656 l 1xd8
 188 735 221 763 261 763 c 0
 318 763 343 704 383 704 c 0
 410 704 429 721 440 761 c 1
 461 756 l 1xe8
 445 677 411 649 371 649 c 0
 314 649 288 708 248 708 c 0
595 26 m 2xe8
 615 26 620 22 620 0 c 1
 396 0 l 1
 396 26 l 1
 467 26 l 1
 392 220 l 1
 183 220 l 1
 108 26 l 1
 166 26 l 2
 185 26 190 22 190 0 c 1
 5 0 l 1
 5 26 l 1
 68 26 l 1
 292 600 l 1
 334 600 l 1
 563 26 l 1
 595 26 l 2xe8
194 249 m 1
 381 249 l 1
 287 491 l 1
 194 249 l 1
EndSplineSet
EndChar

StartChar: AE
Encoding: 292 198 36
Width: 1159
GlyphClass: 2
Flags: MW
HStem: 0 26<5 68 108 166 166 175.5 5 68 396 467 563 595 595 605 655 738 828 974 974 1007.5> 220 29<194 381 194 392 183 381> 295 29<828 1030 828 1030> 574 26<655 738 828 828 828 974>
VStem: 738 90<26 295 324 574> 1104 17.5
AnchorPoint: "Anchor-0" 890 0 basechar 0
LayerCount: 2
Back
Fore
SplineSet
595 26 m 2
 615 26 620 22 620 0 c 1
 396 0 l 1
 396 26 l 1
 467 26 l 1
 392 220 l 1
 183 220 l 1
 108 26 l 1
 166 26 l 2
 185 26 190 22 190 0 c 1
 5 0 l 1
 5 26 l 1
 68 26 l 1
 292 600 l 1
 334 600 l 1
 563 26 l 1
 595 26 l 2
1090 133 m 2
 1104 180 l 1
 1124 180 l 1
 1119 0 l 1
 655 0 l 1
 655 26 l 1
 738 26 l 1
 738 574 l 1
 655 574 l 1
 655 600 l 1
 1119 600 l 1
 1124 420 l 1
 1104 420 l 1
 1090 467 l 2
 1076 515 1041 574 974 574 c 2
 828 574 l 1
 828 324 l 1
 1030 324 l 1
 1030 295 l 1
 828 295 l 1
 828 26 l 1
 974 26 l 2
 1041 26 1075 82 1090 133 c 2
194 249 m 1
 381 249 l 1
 287 491 l 1
 194 249 l 1
EndSplineSet
EndChar

StartChar: B
Encoding: 293 66 37
Width: 604
GlyphClass: 2
Flags: MW
HStem: 0 26<35 118 208 317 317 322 35 118> 312 27<208 297 297 322 208 297 322 377> 574 26<35 118 35 319 208 208 208 289>
VStem: 118 90<26 312 339 574> 418.25 93.01 445.87 103.75
LayerCount: 2
Back
Fore
SplineSet
404 330 m 1xf4
 625 285 592 0 322 0 c 2xf4
 35 0 l 1
 35 26 l 1
 118 26 l 1
 118 574 l 1
 35 574 l 1
 35 600 l 1
 319 600 l 2xf8
 546 600 569 393 404 330 c 1xf4
289 574 m 2xf8
 208 574 l 1
 208 339 l 1
 297 339 l 2
 457 339 463 574 289 574 c 2xf8
317 26 m 2xf4
 483 26 493 312 322 312 c 1
 323 313 l 1
 322 313 l 1
 322 312 l 1
 208 312 l 1
 208 26 l 1
 317 26 l 2xf4
EndSplineSet
EndChar

StartChar: C
Encoding: 294 67 38
Width: 621
GlyphClass: 2
Flags: MW
HStem: -10 31<302.5 379> 582 28<299.5 378 281 412>
VStem: 55 105<199.5 403> 551 27.5
AnchorPoint: "Anchor-0" 334 0 basechar 0
LayerCount: 2
Back
Fore
SplineSet
487 26 m 1
 450 2 403 -10 355 -10 c 0
 214 -10 55 95 55 304 c 0
 55 502 207 610 355 610 c 0
 401 610 447 600 489 579 c 1
 576 597 l 1
 581 403 l 1
 551 403 l 1
 514 530 472 582 352 582 c 0
 247 582 160 508 160 300 c 0
 160 90 250 21 355 21 c 0
 446 21 531 81 556 199 c 1
 586 199 l 1
 576 -5 l 1
 487 26 l 1
EndSplineSet
EndChar

StartChar: Cacute
Encoding: 295 262 39
Width: 621
GlyphClass: 2
Flags: MW
HStem: -10 31<302.5 379> 582 28<299.5 378 281 412>
VStem: 55 105<199.5 403> 551 27.5
AnchorPoint: "Anchor-0" 334 0 basechar 0
LayerCount: 2
Back
Fore
SplineSet
273 683 m 1
 257 700 l 1
 306 753 335 819 359 843 c 0
 368 852 378 856 388 856 c 0
 411 856 434 834 434 811 c 0
 434 801 429 791 421 783 c 0
 396 758 330 729 273 683 c 1
487 26 m 1
 450 2 403 -10 355 -10 c 0
 214 -10 55 95 55 304 c 0
 55 502 207 610 355 610 c 0
 401 610 447 600 489 579 c 1
 576 597 l 1
 581 403 l 1
 551 403 l 1
 514 530 472 582 352 582 c 0
 247 582 160 508 160 300 c 0
 160 90 250 21 355 21 c 0
 446 21 531 81 556 199 c 1
 586 199 l 1
 576 -5 l 1
 487 26 l 1
EndSplineSet
EndChar

StartChar: Ccaron
Encoding: 296 268 40
Width: 621
GlyphClass: 2
Flags: MW
HStem: -10 31<302.5 379> 582 28<299.5 378 281 412>
VStem: 55 105<199.5 403> 551 27.5
AnchorPoint: "Anchor-0" 334 0 basechar 0
LayerCount: 2
Back
Fore
SplineSet
332 701 m 0
 290 701 268 748 189 835 c 1
 202 852 l 1
 241 825 297 795 331 777 c 1
 367 795 423 827 460 851 c 1
 473 836 l 1
 395 748 374 701 332 701 c 0
556 199 m 1
 586 199 l 1
 576 -5 l 1
 487 26 l 1
 450 2 403 -10 355 -10 c 0
 214 -10 55 95 55 304 c 0
 55 502 207 610 355 610 c 0
 401 610 447 600 489 579 c 1
 576 597 l 1
 581 403 l 1
 551 403 l 1
 514 530 472 582 352 582 c 0
 247 582 160 508 160 300 c 0
 160 90 250 21 355 21 c 0
 446 21 531 81 556 199 c 1
EndSplineSet
EndChar

StartChar: Ccedilla
Encoding: 297 199 41
Width: 621
GlyphClass: 2
Flags: MW
HStem: -227 25<327 345 317.5 376.5> -77 25<324.5 386> -10 31<351 379> 582 28<299.5 378 281 412>
VStem: 55 105<211 403> 388 75<-156 -114> 551 27.5
AnchorPoint: "Anchor-0" 334 0 basechar 0
LayerCount: 2
Back
Fore
SplineSet
556 199 m 1
 586 199 l 1
 576 -5 l 1
 487 26 l 1
 450 2 403 -10 355 -10 c 0
 347 -10 339 -10 332 -9 c 1
 308 -62 l 1
 324 -55 342 -52 360 -52 c 0
 412 -52 463 -81 463 -136 c 0
 463 -193 406 -227 347 -227 c 0
 307 -227 266 -211 243 -174 c 1
 259 -162 l 1
 279 -189 306 -202 329 -202 c 0
 361 -202 388 -178 388 -134 c 0
 388 -94 363 -77 333 -77 c 0
 316 -77 297 -83 282 -94 c 1
 268 -85 l 1
 307 -6 l 1
 181 15 55 118 55 304 c 0
 55 502 207 610 355 610 c 0
 401 610 447 600 489 579 c 1
 576 597 l 1
 581 403 l 1
 551 403 l 1
 514 530 472 582 352 582 c 0
 247 582 160 508 160 300 c 0
 160 90 250 21 355 21 c 0
 446 21 531 81 556 199 c 1
EndSplineSet
EndChar

StartChar: D
Encoding: 298 68 42
Width: 675
GlyphClass: 2
Flags: MW
HStem: 0 26<40 116 206 322 40 116> 574 26<40 116 40 325 206 206 206 322>
VStem: 116 90<26 574 26 574> 520 100<202 403.5 201 410.5>
LayerCount: 2
Back
Fore
SplineSet
325 600 m 2
 472 600 620 507 620 300 c 0
 620 102 470 0 322 0 c 2
 40 0 l 1
 40 26 l 1
 116 26 l 1
 116 574 l 1
 40 574 l 1
 40 600 l 1
 325 600 l 2
325 26 m 2
 430 26 520 100 520 304 c 0
 520 517 427 574 322 574 c 2
 206 574 l 1
 206 26 l 1
 325 26 l 2
EndSplineSet
EndChar

StartChar: Eth
Encoding: 299 208 43
Width: 675
GlyphClass: 2
Flags: MW
HStem: 0 26<40 116 206 322 40 116> 290 40<50 116 50 116 206 330> 574 26<40 116 40 325 206 206 206 322>
VStem: 116 90<26 290 26 290 330 574> 520 100<202 403.5 201 410.5>
LayerCount: 2
Back
Fore
SplineSet
325 600 m 2
 472 600 620 507 620 300 c 0
 620 102 470 0 322 0 c 2
 40 0 l 1
 40 26 l 1
 116 26 l 1
 116 290 l 1
 50 290 l 1
 50 330 l 1
 116 330 l 1
 116 574 l 1
 40 574 l 1
 40 600 l 1
 325 600 l 2
325 26 m 2
 430 26 520 100 520 304 c 0
 520 517 427 574 322 574 c 2
 206 574 l 1
 206 330 l 1
 330 330 l 1
 330 290 l 1
 206 290 l 1
 206 26 l 1
 325 26 l 2
EndSplineSet
EndChar

StartChar: Dcaron
Encoding: 300 270 44
Width: 675
GlyphClass: 2
Flags: MW
HStem: 0 26<40 116 206 322 40 116> 574 26<40 116 40 325 206 206 206 322>
VStem: 116 90<26 574 26 574> 520 100<202 403.5 201 410.5>
LayerCount: 2
Back
Fore
SplineSet
329 631 m 0
 287 631 265 678 186 765 c 1
 199 782 l 1
 238 755 294 725 328 707 c 1
 364 725 420 757 457 781 c 1
 470 766 l 1
 392 678 371 631 329 631 c 0
325 600 m 2
 472 600 620 507 620 300 c 0
 620 102 470 0 322 0 c 2
 40 0 l 1
 40 26 l 1
 116 26 l 1
 116 574 l 1
 40 574 l 1
 40 600 l 1
 325 600 l 2
325 26 m 2
 430 26 520 100 520 304 c 0
 520 517 427 574 322 574 c 2
 206 574 l 1
 206 26 l 1
 325 26 l 2
EndSplineSet
EndChar

StartChar: Dcroat
Encoding: 301 272 45
Width: 675
GlyphClass: 2
Flags: MW
HStem: 0 26<40 116 206 322 40 116> 290 40<50 116 50 116 206 330> 574 26<40 116 40 325 206 206 206 322>
VStem: 116 90<26 290 26 290 330 574> 520 100<202 403.5 201 410.5>
LayerCount: 2
Back
Fore
SplineSet
325 600 m 2
 472 600 620 507 620 300 c 0
 620 102 470 0 322 0 c 2
 40 0 l 1
 40 26 l 1
 116 26 l 1
 116 290 l 1
 50 290 l 1
 50 330 l 1
 116 330 l 1
 116 574 l 1
 40 574 l 1
 40 600 l 1
 325 600 l 2
325 26 m 2
 430 26 520 100 520 304 c 0
 520 517 427 574 322 574 c 2
 206 574 l 1
 206 330 l 1
 330 330 l 1
 330 290 l 1
 206 290 l 1
 206 26 l 1
 325 26 l 2
EndSplineSet
EndChar

StartChar: E
Encoding: 302 69 46
Width: 539
GlyphClass: 2
Flags: MW
HStem: 0 26<35 118 208 354 354 387.5 35 118> 295 29<208 410 208 410> 574 26<35 118 35 499 208 208 208 354>
VStem: 118 90<26 295 324 574> 484 17.5
AnchorPoint: "Anchor-0" 270 0 basechar 0
LayerCount: 2
Back
Fore
SplineSet
470 133 m 2
 484 180 l 1
 504 180 l 1
 499 0 l 1
 35 0 l 1
 35 26 l 1
 118 26 l 1
 118 574 l 1
 35 574 l 1
 35 600 l 1
 499 600 l 1
 504 420 l 1
 484 420 l 1
 470 467 l 2
 456 515 421 574 354 574 c 2
 208 574 l 1
 208 324 l 1
 410 324 l 1
 410 295 l 1
 208 295 l 1
 208 26 l 1
 354 26 l 2
 421 26 455 82 470 133 c 2
EndSplineSet
EndChar

StartChar: Eacute
Encoding: 303 201 47
Width: 539
GlyphClass: 2
Flags: MW
HStem: 0 26<35 118 208 354 354 387.5 35 118> 295 29<208 410 208 410> 574 26<35 118 35 499 208 208 208 354>
VStem: 118 90<26 295 324 574> 484 17.5
AnchorPoint: "Anchor-0" 270 0 basechar 0
LayerCount: 2
Back
Fore
SplineSet
380 713 m 0
 355 688 289 659 232 613 c 1
 216 630 l 1
 265 683 294 749 318 773 c 0
 327 782 337 786 347 786 c 0
 370 786 393 764 393 741 c 0
 393 731 388 721 380 713 c 0
470 133 m 2
 484 180 l 1
 504 180 l 1
 499 0 l 1
 35 0 l 1
 35 26 l 1
 118 26 l 1
 118 574 l 1
 35 574 l 1
 35 600 l 1
 499 600 l 1
 504 420 l 1
 484 420 l 1
 470 467 l 2
 456 515 421 574 354 574 c 2
 208 574 l 1
 208 324 l 1
 410 324 l 1
 410 295 l 1
 208 295 l 1
 208 26 l 1
 354 26 l 2
 421 26 455 82 470 133 c 2
EndSplineSet
EndChar

StartChar: Ecaron
Encoding: 304 282 48
Width: 539
GlyphClass: 2
Flags: MW
HStem: 0 26<35 118 208 354 354 387.5 35 118> 295 29<208 410 208 410> 574 26<35 118 35 499 208 208 208 354>
VStem: 118 90<26 295 324 574> 484 17.5
AnchorPoint: "Anchor-0" 270 0 basechar 0
LayerCount: 2
Back
Fore
SplineSet
291 631 m 0
 249 631 227 678 148 765 c 1
 161 782 l 1
 200 755 256 725 290 707 c 1
 326 725 382 757 419 781 c 1
 432 766 l 1
 354 678 333 631 291 631 c 0
470 133 m 2
 484 180 l 1
 504 180 l 1
 499 0 l 1
 35 0 l 1
 35 26 l 1
 118 26 l 1
 118 574 l 1
 35 574 l 1
 35 600 l 1
 499 600 l 1
 504 420 l 1
 484 420 l 1
 470 467 l 2
 456 515 421 574 354 574 c 2
 208 574 l 1
 208 324 l 1
 410 324 l 1
 410 295 l 1
 208 295 l 1
 208 26 l 1
 354 26 l 2
 421 26 455 82 470 133 c 2
EndSplineSet
EndChar

StartChar: Ecircumflex
Encoding: 305 202 49
Width: 539
GlyphClass: 2
Flags: MW
HStem: 0 26<35 118 208 354 354 387.5 35 118> 295 29<208 410 208 410> 574 26<35 118 35 499 208 208 208 354>
VStem: 118 90<26 295 324 574> 484 17.5
AnchorPoint: "Anchor-0" 270 0 basechar 0
LayerCount: 2
Back
Fore
SplineSet
291 700 m 1
 259 684 210 657 169 630 c 1
 157 644 l 1
 231 728 249 773 289 773 c 0
 329 773 348 728 423 645 c 1
 411 629 l 1
 375 654 323 683 291 700 c 1
470 133 m 2
 484 180 l 1
 504 180 l 1
 499 0 l 1
 35 0 l 1
 35 26 l 1
 118 26 l 1
 118 574 l 1
 35 574 l 1
 35 600 l 1
 499 600 l 1
 504 420 l 1
 484 420 l 1
 470 467 l 2
 456 515 421 574 354 574 c 2
 208 574 l 1
 208 324 l 1
 410 324 l 1
 410 295 l 1
 208 295 l 1
 208 26 l 1
 354 26 l 2
 421 26 455 82 470 133 c 2
EndSplineSet
EndChar

StartChar: Edieresis
Encoding: 306 203 50
Width: 539
GlyphClass: 2
Flags: MW
HStem: 0 26<35 118 208 354 354 387.5 35 118> 295 29<208 410 208 410> 574 26<35 118 35 499 208 208 208 354> 651 100<185.5 213.5 368 396>
VStem: 118 90<26 295 324 574> 149 100<686.5 715> 332 100<686.5 715> 484 17.5
AnchorPoint: "Anchor-0" 270 0 basechar 0
LayerCount: 2
Back
Fore
SplineSet
200 651 m 0xf7
 171 651 149 672 149 701 c 0
 149 729 171 751 200 751 c 0
 227 751 249 729 249 701 c 0
 249 672 227 651 200 651 c 0xf7
382 651 m 0
 354 651 332 672 332 701 c 0
 332 729 354 751 382 751 c 0
 410 751 432 729 432 701 c 0
 432 672 410 651 382 651 c 0
470 133 m 2
 484 180 l 1
 504 180 l 1
 499 0 l 1
 35 0 l 1
 35 26 l 1
 118 26 l 1
 118 574 l 1
 35 574 l 1
 35 600 l 1
 499 600 l 1
 504 420 l 1
 484 420 l 1
 470 467 l 2
 456 515 421 574 354 574 c 2
 208 574 l 1
 208 324 l 1
 410 324 l 1
 410 295 l 1
 208 295 l 1
 208 26 l 1xeb
 354 26 l 2
 421 26 455 82 470 133 c 2
EndSplineSet
EndChar

StartChar: Edotaccent
Encoding: 307 278 51
Width: 539
GlyphClass: 2
Flags: MW
HStem: 0 26<35 118 208 354 354 387.5 35 118> 295 29<208 410 208 410> 574 26<35 118 35 499 208 208 208 354> 646 110<274.5 305>
VStem: 118 90<26 295 324 574> 235 109<685.5 716> 484 17.5
AnchorPoint: "Anchor-0" 270 0 basechar 0
LayerCount: 2
Back
Fore
SplineSet
290 646 m 0
 259 646 235 670 235 701 c 0
 235 731 259 756 290 756 c 0
 320 756 344 731 344 701 c 0
 344 670 320 646 290 646 c 0
470 133 m 2
 484 180 l 1
 504 180 l 1
 499 0 l 1
 35 0 l 1
 35 26 l 1
 118 26 l 1
 118 574 l 1
 35 574 l 1
 35 600 l 1
 499 600 l 1
 504 420 l 1
 484 420 l 1
 470 467 l 2
 456 515 421 574 354 574 c 2
 208 574 l 1
 208 324 l 1
 410 324 l 1
 410 295 l 1
 208 295 l 1
 208 26 l 1xea
 354 26 l 2
 421 26 455 82 470 133 c 2
EndSplineSet
EndChar

StartChar: Egrave
Encoding: 308 200 52
Width: 539
GlyphClass: 2
Flags: MW
HStem: 0 26<35 118 208 354 354 387.5 35 118> 295 29<208 410 208 410> 574 26<35 118 35 499 208 208 208 354>
VStem: 118 90<26 295 324 574> 484 17.5
AnchorPoint: "Anchor-0" 270 0 basechar 0
LayerCount: 2
Back
Fore
SplineSet
359 613 m 1
 302 659 236 688 211 713 c 0
 203 721 198 731 198 741 c 0
 198 764 221 786 244 786 c 0
 254 786 264 782 273 773 c 0
 297 749 326 683 375 630 c 1
 359 613 l 1
470 133 m 2
 484 180 l 1
 504 180 l 1
 499 0 l 1
 35 0 l 1
 35 26 l 1
 118 26 l 1
 118 574 l 1
 35 574 l 1
 35 600 l 1
 499 600 l 1
 504 420 l 1
 484 420 l 1
 470 467 l 2
 456 515 421 574 354 574 c 2
 208 574 l 1
 208 324 l 1
 410 324 l 1
 410 295 l 1
 208 295 l 1
 208 26 l 1
 354 26 l 2
 421 26 455 82 470 133 c 2
EndSplineSet
EndChar

StartChar: Emacron
Encoding: 309 274 53
Width: 539
GlyphClass: 2
Flags: MW
HStem: 0 26<35 118 208 354 354 387.5 35 118> 295 29<208 410 208 410> 574 26<35 118 35 499 208 208 208 354> 670 50<142 442 142 442>
VStem: 118 90<26 295 324 574> 484 17.5
AnchorPoint: "Anchor-0" 270 0 basechar 0
LayerCount: 2
Back
Fore
SplineSet
442 720 m 1
 442 670 l 1
 142 670 l 1
 142 720 l 1
 442 720 l 1
470 133 m 2
 484 180 l 1
 504 180 l 1
 499 0 l 1
 35 0 l 1
 35 26 l 1
 118 26 l 1
 118 574 l 1
 35 574 l 1
 35 600 l 1
 499 600 l 1
 504 420 l 1
 484 420 l 1
 470 467 l 2
 456 515 421 574 354 574 c 2
 208 574 l 1
 208 324 l 1
 410 324 l 1
 410 295 l 1
 208 295 l 1
 208 26 l 1
 354 26 l 2
 421 26 455 82 470 133 c 2
EndSplineSet
EndChar

StartChar: Eogonek
Encoding: 310 280 54
Width: 539
GlyphClass: 2
Flags: MW
HStem: -191 29<423.5 429.5> 0 26<35 118 208 354 354 387.5 35 118> 0 180<35 504 490 499 490 490> 295 29<208 410 208 410> 574 26<35 118 35 499 208 208 208 354>
VStem: 118 90<26 295 324 574> 318 76<-128.5 -95> 484 17.5
AnchorPoint: "Anchor-0" 270 0 basechar 0
LayerCount: 2
Back
Fore
SplineSet
490 0 m 1xbf
 423 -26 394 -75 394 -112 c 0
 394 -145 411 -162 436 -162 c 0
 452 -162 472 -155 491 -139 c 1
 503 -154 l 1
 478 -180 445 -191 414 -191 c 0
 354 -191 318 -157 318 -116 c 0
 318 -74 356 -26 449 0 c 1
 35 0 l 1
 35 26 l 1
 118 26 l 1
 118 574 l 1
 35 574 l 1
 35 600 l 1
 499 600 l 1
 504 420 l 1
 484 420 l 1
 470 467 l 2
 456 515 421 574 354 574 c 2
 208 574 l 1
 208 324 l 1
 410 324 l 1
 410 295 l 1
 208 295 l 1
 208 26 l 1
 354 26 l 2xdf
 421 26 455 82 470 133 c 2
 484 180 l 1
 504 180 l 1
 499 0 l 1
 490 0 l 1xbf
EndSplineSet
EndChar

StartChar: F
Encoding: 311 70 55
Width: 529
GlyphClass: 2
Flags: MW
HStem: 0 26<35 118 208 324 35 118> 295 29<208 410 208 410> 574 26<35 118 35 499 208 354 208 208>
VStem: 118 90<26 295 324 574> 484 17.5
LayerCount: 2
Back
Fore
SplineSet
499 600 m 1
 504 420 l 1
 484 420 l 1
 470 467 l 2
 456 515 421 574 354 574 c 2
 208 574 l 1
 208 324 l 1
 410 324 l 1
 410 295 l 1
 208 295 l 1
 208 26 l 1
 324 26 l 1
 324 0 l 1
 35 0 l 1
 35 26 l 1
 118 26 l 1
 118 574 l 1
 35 574 l 1
 35 600 l 1
 499 600 l 1
EndSplineSet
EndChar

StartChar: G
Encoding: 312 71 56
Width: 700
GlyphClass: 2
Flags: MW
HStem: -10 31<299 379> 244 26<416 499 416 665 589 665 589 589> 582 28<299.5 378 281 412>
VStem: 55 105<199.5 403> 499 90<84 244 0 244> 551 27.5
AnchorPoint: "Anchor-0" 350 0 basechar 0
LayerCount: 2
Back
Fore
SplineSet
665 270 m 1xf8
 665 244 l 1
 589 244 l 1
 589 0 l 1
 498 31 l 1xf8
 461 6 403 -10 355 -10 c 0
 214 -10 55 95 55 304 c 0
 55 502 207 610 355 610 c 0
 401 610 447 600 489 579 c 1
 576 597 l 1
 581 403 l 1
 551 403 l 1xf4
 514 530 472 582 352 582 c 0
 247 582 160 508 160 300 c 0
 160 90 243 21 355 21 c 0
 409 21 461 42 499 84 c 1
 499 244 l 1
 416 244 l 1
 416 270 l 1
 665 270 l 1xf8
EndSplineSet
EndChar

StartChar: Gbreve
Encoding: 313 286 57
Width: 700
GlyphClass: 2
Flags: MW
HStem: -10 31<299 379> 244 26<416 499 416 665 589 665 589 589> 582 28<299.5 378 281 412> 640 64<328.5 374.5 328.5 394.5>
VStem: 55 105<199.5 403> 227 20<736 769> 451 21<736 769> 499 90<84 244 0 244> 551 27.5
AnchorPoint: "Anchor-0" 350 0 basechar 0
LayerCount: 2
Back
Fore
SplineSet
350 640 m 0xff
 262 640 227 703 227 769 c 1
 247 769 l 1
 258 716 304 704 353 704 c 0
 396 704 440 713 451 769 c 1
 472 769 l 1
 472 703 439 640 350 640 c 0xff
665 270 m 1
 665 244 l 1
 589 244 l 1
 589 0 l 1
 498 31 l 1xe9
 461 6 403 -10 355 -10 c 0
 214 -10 55 95 55 304 c 0
 55 502 207 610 355 610 c 0
 401 610 447 600 489 579 c 1
 576 597 l 1
 581 403 l 1
 551 403 l 1xe880
 514 530 472 582 352 582 c 0
 247 582 160 508 160 300 c 0
 160 90 243 21 355 21 c 0
 409 21 461 42 499 84 c 1
 499 244 l 1
 416 244 l 1
 416 270 l 1xe9
 665 270 l 1
EndSplineSet
EndChar

StartChar: H
Encoding: 314 72 58
Width: 715
GlyphClass: 2
Flags: MW
HStem: 0 26<40 116 206 265 265 274.5 40 116 426 509 599 650 650 660> 295 29<206 509 206 509> 574 26<40 116 40 289 206 206 206 289 426 509 599 675 599 599>
VStem: 116 90<26 295 26 324 324 574> 509 90<26 295 295 295 324 574 26 574>
LayerCount: 2
Back
Fore
SplineSet
675 574 m 1
 599 574 l 1
 599 26 l 1
 650 26 l 2
 670 26 675 22 675 0 c 1
 426 0 l 1
 426 26 l 1
 509 26 l 1
 509 295 l 1
 206 295 l 1
 206 26 l 1
 265 26 l 2
 284 26 289 22 289 0 c 1
 40 0 l 1
 40 26 l 1
 116 26 l 1
 116 574 l 1
 40 574 l 1
 40 600 l 1
 289 600 l 1
 289 574 l 1
 206 574 l 1
 206 324 l 1
 509 324 l 1
 509 574 l 1
 426 574 l 1
 426 600 l 1
 675 600 l 1
 675 574 l 1
EndSplineSet
EndChar

StartChar: I
Encoding: 315 73 59
Width: 321
GlyphClass: 2
Flags: MW
HStem: 0 26<30 113 203 261 261 271 30 113> 574 26<30 113 30 286 203 286 203 203>
VStem: 113 90<26 574 26 574>
LayerCount: 2
Back
Fore
SplineSet
286 574 m 1
 203 574 l 1
 203 26 l 1
 261 26 l 2
 281 26 286 22 286 0 c 1
 30 0 l 1
 30 26 l 1
 113 26 l 1
 113 574 l 1
 30 574 l 1
 30 600 l 1
 286 600 l 1
 286 574 l 1
EndSplineSet
EndChar

StartChar: Iacute
Encoding: 316 205 60
Width: 321
GlyphClass: 2
Flags: MW
HStem: 0 26<30 113 203 261 261 271 30 113> 574 26<30 113 30 286 203 286 203 203>
VStem: 113 90<26 574 26 574>
LayerCount: 2
Back
Fore
SplineSet
248 713 m 0
 223 688 157 659 100 613 c 1
 84 630 l 1
 133 683 162 749 186 773 c 0
 195 782 205 786 215 786 c 0
 238 786 261 764 261 741 c 0
 261 731 256 721 248 713 c 0
286 574 m 1
 203 574 l 1
 203 26 l 1
 261 26 l 2
 281 26 286 22 286 0 c 1
 30 0 l 1
 30 26 l 1
 113 26 l 1
 113 574 l 1
 30 574 l 1
 30 600 l 1
 286 600 l 1
 286 574 l 1
EndSplineSet
EndChar

StartChar: Icircumflex
Encoding: 317 206 61
Width: 321
GlyphClass: 2
Flags: MW
HStem: 0 26<30 113 203 261 261 271 30 113> 574 26<30 113 30 286 203 286 203 203>
VStem: 113 90<26 574 26 574>
LayerCount: 2
Back
Fore
SplineSet
159 700 m 1
 127 684 78 657 37 630 c 1
 25 644 l 1
 99 728 117 773 157 773 c 0
 197 773 216 728 291 645 c 1
 279 629 l 1
 243 654 191 683 159 700 c 1
286 600 m 1
 286 574 l 1
 203 574 l 1
 203 26 l 1
 261 26 l 2
 281 26 286 22 286 0 c 1
 30 0 l 1
 30 26 l 1
 113 26 l 1
 113 574 l 1
 30 574 l 1
 30 600 l 1
 286 600 l 1
EndSplineSet
EndChar

StartChar: Idieresis
Encoding: 318 207 62
Width: 321
GlyphClass: 2
Flags: MW
HStem: 0 26<30 113 203 261 261 271 30 113> 574 26<30 113 30 286 203 286 203 203> 651 100<53.5 81.5 236 264>
VStem: 17 100<686.5 715> 113 90<26 574 26 574> 200 100<686.5 715>
LayerCount: 2
Back
Fore
SplineSet
68 651 m 0xf4
 39 651 17 672 17 701 c 0
 17 729 39 751 68 751 c 0
 95 751 117 729 117 701 c 0
 117 672 95 651 68 651 c 0xf4
250 651 m 0
 222 651 200 672 200 701 c 0
 200 729 222 751 250 751 c 0
 278 751 300 729 300 701 c 0
 300 672 278 651 250 651 c 0
286 600 m 1
 286 574 l 1
 203 574 l 1
 203 26 l 1
 261 26 l 2
 281 26 286 22 286 0 c 1
 30 0 l 1
 30 26 l 1
 113 26 l 1
 113 574 l 1
 30 574 l 1
 30 600 l 1xc8
 286 600 l 1
EndSplineSet
EndChar

StartChar: Idotaccent
Encoding: 319 304 63
Width: 321
GlyphClass: 2
Flags: MW
HStem: 0 26<30 113 203 261 261 271 30 113> 574 26<30 113 30 286 203 286 203 203> 646 110<142.5 173>
VStem: 103 109<685.5 716> 113 90<26 574 26 574>
LayerCount: 2
Back
Fore
SplineSet
158 646 m 0xf0
 127 646 103 670 103 701 c 0
 103 731 127 756 158 756 c 0
 188 756 212 731 212 701 c 0
 212 670 188 646 158 646 c 0xf0
286 574 m 1
 203 574 l 1
 203 26 l 1
 261 26 l 2
 281 26 286 22 286 0 c 1
 30 0 l 1
 30 26 l 1
 113 26 l 1
 113 574 l 1
 30 574 l 1
 30 600 l 1xc8
 286 600 l 1
 286 574 l 1
EndSplineSet
EndChar

StartChar: Igrave
Encoding: 320 204 64
Width: 321
GlyphClass: 2
Flags: MW
HStem: 0 26<30 113 203 261 261 271 30 113> 574 26<30 113 30 286 203 286 203 203>
VStem: 113 90<26 574 26 574>
LayerCount: 2
Back
Fore
SplineSet
227 613 m 1
 170 659 104 688 79 713 c 0
 71 721 66 731 66 741 c 0
 66 764 89 786 112 786 c 0
 122 786 132 782 141 773 c 0
 165 749 194 683 243 630 c 1
 227 613 l 1
286 574 m 1
 203 574 l 1
 203 26 l 1
 261 26 l 2
 281 26 286 22 286 0 c 1
 30 0 l 1
 30 26 l 1
 113 26 l 1
 113 574 l 1
 30 574 l 1
 30 600 l 1
 286 600 l 1
 286 574 l 1
EndSplineSet
EndChar

StartChar: Imacron
Encoding: 321 298 65
Width: 321
GlyphClass: 2
Flags: MW
HStem: 0 26<30 113 203 261 261 271 30 113> 574 26<30 113 30 286 203 286 203 203> 670 50<10 310 10 310>
VStem: 113 90<26 574 26 574>
LayerCount: 2
Back
Fore
SplineSet
10 720 m 1
 310 720 l 1
 310 670 l 1
 10 670 l 1
 10 720 l 1
286 600 m 1
 286 574 l 1
 203 574 l 1
 203 26 l 1
 261 26 l 2
 281 26 286 22 286 0 c 1
 30 0 l 1
 30 26 l 1
 113 26 l 1
 113 574 l 1
 30 574 l 1
 30 600 l 1
 286 600 l 1
EndSplineSet
EndChar

StartChar: Iogonek
Encoding: 322 302 66
Width: 321
GlyphClass: 2
Flags: MW
HStem: -191 29<219.5 225.5> 0 26<30 113 203 245 30 113> 574 26<30 113 30 286 203 203 203 286>
VStem: 113 90<26 574 26 574> 114 76<-128.5 -95>
LayerCount: 2
Back
Fore
SplineSet
287 -139 m 1xe8
 299 -154 l 1
 274 -180 241 -191 210 -191 c 0
 150 -191 114 -157 114 -116 c 0xe8
 114 -74 152 -26 245 0 c 1
 30 0 l 1
 30 26 l 1
 113 26 l 1
 113 574 l 1
 30 574 l 1
 30 600 l 1
 286 600 l 1
 286 574 l 1
 203 574 l 1
 203 26 l 1
 261 26 l 2xf0
 281 26 286 22 286 0 c 1
 219 -26 190 -75 190 -112 c 0
 190 -145 207 -162 232 -162 c 0
 248 -162 268 -155 287 -139 c 1xe8
EndSplineSet
EndChar

StartChar: J
Encoding: 323 74 67
Width: 384
GlyphClass: 2
Flags: MW
HStem: -7 24<118 157.5> 574 26<118 198 118 364 288 364 288 288>
VStem: 198 90<172 574>
LayerCount: 2
Back
Fore
SplineSet
364 600 m 1
 364 574 l 1
 288 574 l 1
 288 151 l 2
 288 40 202 -7 113 -7 c 0
 41 -7 10 30 10 61 c 0
 10 84 28 105 58 105 c 0
 132 105 91 17 145 17 c 0
 192 17 198 71 198 172 c 2
 198 574 l 1
 118 574 l 1
 118 600 l 1
 364 600 l 1
EndSplineSet
EndChar

StartChar: K
Encoding: 324 75 68
Width: 640
GlyphClass: 2
Flags: MW
HStem: 0 26<40 116 206 265 265 274.5 40 116 582 609 609 619> 574 26<40 116 40 289 206 206 206 289 415 495 551.5 578.5>
VStem: 116 90<26 262 26 308 308 574>
AnchorPoint: "Anchor-0" 359 0 basechar 0
LayerCount: 2
Back
Fore
SplineSet
247 301 m 1
 206 262 l 1
 206 26 l 1
 265 26 l 2
 284 26 289 22 289 0 c 1
 40 0 l 1
 40 26 l 1
 116 26 l 1
 116 574 l 1
 40 574 l 1
 40 600 l 1
 289 600 l 1
 289 574 l 1
 206 574 l 1
 206 308 l 1
 495 574 l 1
 415 574 l 1
 415 600 l 1
 595 600 l 1
 595 572 593 574 564 574 c 0
 539 574 520 556 494 532 c 2
 319 368 l 1
 582 26 l 1
 609 26 l 2
 629 26 635 22 635 0 c 1
 483 0 l 1
 247 301 l 1
EndSplineSet
EndChar

StartChar: L
Encoding: 325 76 69
Width: 499
GlyphClass: 2
Flags: MW
HStem: 0 26<35 118 208 334 334 367.5 35 118> 574 26<35 118 35 291 208 208 208 291>
VStem: 118 90<26 574 26 574> 464 17.5
AnchorPoint: "Anchor-0" 250 0 basechar 0
LayerCount: 2
Back
Fore
SplineSet
464 200 m 1
 484 200 l 1
 479 0 l 1
 35 0 l 1
 35 26 l 1
 118 26 l 1
 118 574 l 1
 35 574 l 1
 35 600 l 1
 291 600 l 1
 291 574 l 1
 208 574 l 1
 208 26 l 1
 334 26 l 2
 401 26 431 83 445 133 c 2
 464 200 l 1
EndSplineSet
EndChar

StartChar: Lacute
Encoding: 326 313 70
Width: 499
GlyphClass: 2
Flags: MW
HStem: 0 26<35 118 208 334 334 367.5 35 118> 574 26<35 118 35 291 208 208 208 291>
VStem: 118 90<26 574 26 574> 464 17.5
AnchorPoint: "Anchor-0" 250 0 basechar 0
LayerCount: 2
Back
Fore
SplineSet
330 713 m 0
 305 688 239 659 182 613 c 1
 166 630 l 1
 215 683 244 749 268 773 c 0
 277 782 287 786 297 786 c 0
 320 786 343 764 343 741 c 0
 343 731 338 721 330 713 c 0
464 200 m 1
 484 200 l 1
 479 0 l 1
 35 0 l 1
 35 26 l 1
 118 26 l 1
 118 574 l 1
 35 574 l 1
 35 600 l 1
 291 600 l 1
 291 574 l 1
 208 574 l 1
 208 26 l 1
 334 26 l 2
 401 26 431 83 445 133 c 2
 464 200 l 1
EndSplineSet
EndChar

StartChar: Lcaron
Encoding: 327 317 71
Width: 499
GlyphClass: 2
Flags: MW
HStem: 0 26<35 118 208 334 334 367.5 35 118> 574 26<35 118 35 291 208 208 208 291>
VStem: 118 90<26 574 26 574> 464 17.5
AnchorPoint: "Anchor-0" 250 0 basechar 0
LayerCount: 2
Back
Fore
SplineSet
179 631 m 0
 137 631 115 678 36 765 c 1
 49 782 l 1
 88 755 144 725 178 707 c 1
 214 725 270 757 307 781 c 1
 320 766 l 1
 242 678 221 631 179 631 c 0
464 200 m 1
 484 200 l 1
 479 0 l 1
 35 0 l 1
 35 26 l 1
 118 26 l 1
 118 574 l 1
 35 574 l 1
 35 600 l 1
 291 600 l 1
 291 574 l 1
 208 574 l 1
 208 26 l 1
 334 26 l 2
 401 26 431 83 445 133 c 2
 464 200 l 1
EndSplineSet
EndChar

StartChar: Lslash
Encoding: 328 321 72
Width: 499
GlyphClass: 2
Flags: MW
HStem: 0 26<35 118 208 334 334 367.5 35 118> 574 26<35 118 35 291 208 208 208 291>
VStem: 118 90<26 207 207 207 242 258 292 574> 464 17.5
AnchorPoint: "Anchor-0" 250 0 basechar 0
LayerCount: 2
Back
Fore
SplineSet
464 200 m 1
 484 200 l 1
 479 0 l 1
 35 0 l 1
 35 26 l 1
 118 26 l 1
 118 207 l 1
 29 157 l 1
 14 183 l 1
 118 242 l 1
 118 574 l 1
 35 574 l 1
 35 600 l 1
 291 600 l 1
 291 574 l 1
 208 574 l 1
 208 292 l 1
 395 398 l 1
 410 373 l 1
 208 258 l 1
 208 26 l 1
 334 26 l 2
 401 26 431 83 445 133 c 2
 464 200 l 1
EndSplineSet
EndChar

StartChar: M
Encoding: 329 77 73
Width: 815
GlyphClass: 2
Flags: MW
HStem: 0 26<30 103 143 211 211 220.5 30 103 526 609 696 747 747 757> 574 26<30 103 30 171 696 772 696 696>
VStem: 103 40<26 457 26 574> 609 87<26 507 507 507 26 600>
LayerCount: 2
Back
Fore
SplineSet
772 574 m 1
 696 574 l 1
 696 26 l 1
 747 26 l 2
 767 26 772 22 772 0 c 1
 526 0 l 1
 526 26 l 1
 609 26 l 1
 609 507 l 1
 383 -5 l 1
 362 -5 l 1
 143 457 l 1
 143 26 l 1
 211 26 l 2
 230 26 235 22 235 0 c 1
 30 0 l 1
 30 26 l 1
 103 26 l 1
 103 574 l 1
 30 574 l 1
 30 600 l 1
 171 600 l 1
 400 115 l 1
 609 600 l 1
 772 600 l 1
 772 574 l 1
EndSplineSet
EndChar

StartChar: N
Encoding: 330 78 74
Width: 670
GlyphClass: 2
Flags: MW
HStem: 0 26<25 98 138 206 206 215.5 25 98> 574 26<25 98 25 162 445 537 577 650 577 577>
VStem: 98 40<26 482 26 574> 537 40<136 574 5 574>
AnchorPoint: "Anchor-0" 335 0 basechar 0
LayerCount: 2
Back
Fore
SplineSet
445 600 m 1
 650 600 l 1
 650 574 l 1
 577 574 l 1
 577 5 l 1
 526 -5 l 1
 138 482 l 1
 138 26 l 1
 206 26 l 2
 225 26 230 22 230 0 c 1
 25 0 l 1
 25 26 l 1
 98 26 l 1
 98 574 l 1
 25 574 l 1
 25 600 l 1
 162 600 l 1
 537 136 l 1
 537 574 l 1
 445 574 l 1
 445 600 l 1
EndSplineSet
EndChar

StartChar: Nacute
Encoding: 331 323 75
Width: 670
GlyphClass: 2
Flags: MW
HStem: 0 26<25 98 138 206 206 215.5 25 98> 574 26<25 98 25 162 445 537 577 650 577 577>
VStem: 98 40<26 482 26 574> 537 40<136 574 5 574>
AnchorPoint: "Anchor-0" 335 0 basechar 0
LayerCount: 2
Back
Fore
SplineSet
425 713 m 0
 400 688 334 659 277 613 c 1
 261 630 l 1
 310 683 339 749 363 773 c 0
 372 782 382 786 392 786 c 0
 415 786 438 764 438 741 c 0
 438 731 433 721 425 713 c 0
445 600 m 1
 650 600 l 1
 650 574 l 1
 577 574 l 1
 577 5 l 1
 526 -5 l 1
 138 482 l 1
 138 26 l 1
 206 26 l 2
 225 26 230 22 230 0 c 1
 25 0 l 1
 25 26 l 1
 98 26 l 1
 98 574 l 1
 25 574 l 1
 25 600 l 1
 162 600 l 1
 537 136 l 1
 537 574 l 1
 445 574 l 1
 445 600 l 1
EndSplineSet
EndChar

StartChar: Ncaron
Encoding: 332 327 76
Width: 670
GlyphClass: 2
Flags: MW
HStem: 0 26<25 98 138 206 206 215.5 25 98> 574 26<25 98 25 162 445 537 577 650 577 577>
VStem: 98 40<26 482 26 574> 537 40<136 574 5 574>
AnchorPoint: "Anchor-0" 335 0 basechar 0
LayerCount: 2
Back
Fore
SplineSet
336 631 m 0
 294 631 272 678 193 765 c 1
 206 782 l 1
 245 755 301 725 335 707 c 1
 371 725 427 757 464 781 c 1
 477 766 l 1
 399 678 378 631 336 631 c 0
445 600 m 1
 650 600 l 1
 650 574 l 1
 577 574 l 1
 577 5 l 1
 526 -5 l 1
 138 482 l 1
 138 26 l 1
 206 26 l 2
 225 26 230 22 230 0 c 1
 25 0 l 1
 25 26 l 1
 98 26 l 1
 98 574 l 1
 25 574 l 1
 25 600 l 1
 162 600 l 1
 537 136 l 1
 537 574 l 1
 445 574 l 1
 445 600 l 1
EndSplineSet
EndChar

StartChar: Ntilde
Encoding: 333 209 77
Width: 670
GlyphClass: 2
Flags: MW
HStem: 0 26<25 98 138 206 206 215.5 25 98> 574 26<25 98 25 162 445 537 577 650 577 577> 649 55<388 416> 708 55<266 293>
VStem: 98 40<26 482 26 574> 537 40<136 574 5 574>
AnchorPoint: "Anchor-0" 335 0 basechar 0
LayerCount: 2
Back
Fore
SplineSet
273 708 m 0
 246 708 228 691 217 651 c 1
 197 656 l 1xdc
 213 735 246 763 286 763 c 0
 343 763 368 704 408 704 c 0
 435 704 454 721 465 761 c 1
 486 756 l 1xec
 470 677 436 649 396 649 c 0
 339 649 313 708 273 708 c 0
445 600 m 1xec
 650 600 l 1
 650 574 l 1
 577 574 l 1
 577 5 l 1
 526 -5 l 1
 138 482 l 1
 138 26 l 1
 206 26 l 2
 225 26 230 22 230 0 c 1
 25 0 l 1
 25 26 l 1
 98 26 l 1
 98 574 l 1
 25 574 l 1
 25 600 l 1
 162 600 l 1
 537 136 l 1
 537 574 l 1
 445 574 l 1
 445 600 l 1xec
EndSplineSet
EndChar

StartChar: O
Encoding: 334 79 78
Width: 705
GlyphClass: 2
Flags: MW
HStem: -10 28<302.5 407.5 302.5 426> 582 28<299.5 404.5>
VStem: 55 105<201.5 403> 545 105<202 403.5 201 410.5>
LayerCount: 2
Back
Fore
SplineSet
650 300 m 0
 650 102 500 -10 352 -10 c 0
 203 -10 55 99 55 304 c 0
 55 502 207 610 355 610 c 0
 502 610 650 507 650 300 c 0
545 304 m 0
 545 517 457 582 352 582 c 0
 247 582 160 508 160 300 c 0
 160 90 250 18 355 18 c 0
 460 18 545 100 545 304 c 0
EndSplineSet
EndChar

StartChar: Oacute
Encoding: 335 211 79
Width: 705
GlyphClass: 2
Flags: MW
HStem: -10 28<302.5 407.5 302.5 426> 582 28<299.5 404.5>
VStem: 55 105<201.5 403> 545 105<202 403.5 201 410.5>
LayerCount: 2
Back
Fore
SplineSet
295 613 m 1
 279 630 l 1
 328 683 357 749 381 773 c 0
 390 782 400 786 410 786 c 0
 433 786 456 764 456 741 c 0
 456 731 451 721 443 713 c 0
 418 688 352 659 295 613 c 1
650 300 m 0
 650 102 500 -10 352 -10 c 0
 203 -10 55 99 55 304 c 0
 55 502 207 610 355 610 c 0
 502 610 650 507 650 300 c 0
545 304 m 0
 545 517 457 582 352 582 c 0
 247 582 160 508 160 300 c 0
 160 90 250 18 355 18 c 0
 460 18 545 100 545 304 c 0
EndSplineSet
EndChar

StartChar: Ocircumflex
Encoding: 336 212 80
Width: 705
GlyphClass: 2
Flags: MW
HStem: -10 28<302.5 407.5 302.5 426> 582 28<299.5 404.5>
VStem: 55 105<201.5 403> 545 105<202 403.5 201 410.5>
LayerCount: 2
Back
Fore
SplineSet
354 700 m 1
 322 684 273 657 232 630 c 1
 220 644 l 1
 294 728 312 773 352 773 c 0
 392 773 411 728 486 645 c 1
 474 629 l 1
 438 654 386 683 354 700 c 1
355 610 m 0
 502 610 650 507 650 300 c 0
 650 102 500 -10 352 -10 c 0
 203 -10 55 99 55 304 c 0
 55 502 207 610 355 610 c 0
355 18 m 0
 460 18 545 100 545 304 c 0
 545 517 457 582 352 582 c 0
 247 582 160 508 160 300 c 0
 160 90 250 18 355 18 c 0
EndSplineSet
EndChar

StartChar: Odieresis
Encoding: 337 214 81
Width: 705
GlyphClass: 2
Flags: MW
HStem: -10 28<302.5 407.5 302.5 426> 582 28<299.5 404.5> 651 100<248.5 276.5 431 459>
VStem: 55 105<201.5 403> 212 100<686.5 715> 395 100<686.5 715> 545 105<202 403.5 201 410.5>
LayerCount: 2
Back
Fore
SplineSet
263 651 m 0
 234 651 212 672 212 701 c 0
 212 729 234 751 263 751 c 0
 290 751 312 729 312 701 c 0
 312 672 290 651 263 651 c 0
445 651 m 0
 417 651 395 672 395 701 c 0
 395 729 417 751 445 751 c 0
 473 751 495 729 495 701 c 0
 495 672 473 651 445 651 c 0
650 300 m 0
 650 102 500 -10 352 -10 c 0
 203 -10 55 99 55 304 c 0
 55 502 207 610 355 610 c 0
 502 610 650 507 650 300 c 0
545 304 m 0
 545 517 457 582 352 582 c 0
 247 582 160 508 160 300 c 0
 160 90 250 18 355 18 c 0
 460 18 545 100 545 304 c 0
EndSplineSet
EndChar

StartChar: Ograve
Encoding: 338 210 82
Width: 705
GlyphClass: 2
Flags: MW
HStem: -10 28<302.5 407.5 302.5 426> 582 28<299.5 404.5>
VStem: 55 105<201.5 403> 545 105<202 403.5 201 410.5>
LayerCount: 2
Back
Fore
SplineSet
422 613 m 1
 365 659 299 688 274 713 c 0
 266 721 261 731 261 741 c 0
 261 764 284 786 307 786 c 0
 317 786 327 782 336 773 c 0
 360 749 389 683 438 630 c 1
 422 613 l 1
650 300 m 0
 650 102 500 -10 352 -10 c 0
 203 -10 55 99 55 304 c 0
 55 502 207 610 355 610 c 0
 502 610 650 507 650 300 c 0
545 304 m 0
 545 517 457 582 352 582 c 0
 247 582 160 508 160 300 c 0
 160 90 250 18 355 18 c 0
 460 18 545 100 545 304 c 0
EndSplineSet
EndChar

StartChar: Ohungarumlaut
Encoding: 339 336 83
Width: 705
GlyphClass: 2
Flags: MW
HStem: -10 28<302.5 407.5 302.5 426> 582 28<299.5 404.5>
VStem: 55 105<201.5 403> 545 105<202 403.5 201 410.5>
LayerCount: 2
Back
Fore
SplineSet
240 630 m 1
 225 646 l 1
 272 697 300 762 324 785 c 0
 332 794 342 797 352 797 c 0
 374 797 396 776 396 754 c 0
 396 744 392 734 384 727 c 0
 360 702 295 674 240 630 c 1
383 630 m 1
 372 649 l 1
 428 689 469 747 497 764 c 0
 507 772 517 772 527 770 c 0
 549 766 566 741 561 719 c 0
 559 709 553 700 544 695 c 0
 515 676 446 662 383 630 c 1
650 300 m 0
 650 102 500 -10 352 -10 c 0
 203 -10 55 99 55 304 c 0
 55 502 207 610 355 610 c 0
 502 610 650 507 650 300 c 0
545 304 m 0
 545 517 457 582 352 582 c 0
 247 582 160 508 160 300 c 0
 160 90 250 18 355 18 c 0
 460 18 545 100 545 304 c 0
EndSplineSet
EndChar

StartChar: Omacron
Encoding: 340 332 84
Width: 705
GlyphClass: 2
Flags: MW
HStem: -10 28<302.5 407.5 302.5 426> 582 28<299.5 404.5> 670 50<205 505 205 505>
VStem: 55 105<201.5 403> 545 105<202 403.5 201 410.5>
LayerCount: 2
Back
Fore
SplineSet
205 720 m 1
 505 720 l 1
 505 670 l 1
 205 670 l 1
 205 720 l 1
650 300 m 0
 650 102 500 -10 352 -10 c 0
 203 -10 55 99 55 304 c 0
 55 502 207 610 355 610 c 0
 502 610 650 507 650 300 c 0
545 304 m 0
 545 517 457 582 352 582 c 0
 247 582 160 508 160 300 c 0
 160 90 250 18 355 18 c 0
 460 18 545 100 545 304 c 0
EndSplineSet
EndChar

StartChar: Oslash
Encoding: 341 216 85
Width: 705
GlyphClass: 2
Flags: MW
HStem: -10 28<339 407.5 339 426> 582 28<299.5 363.5>
VStem: 55 105<246 403> 545 105<202 367.5>
LayerCount: 2
Back
Fore
SplineSet
481 583 m 1
 576 540 650 446 650 300 c 0
 650 102 500 -10 352 -10 c 0
 319 -10 285 -5 254 6 c 1
 190 -155 l 1
 130 -155 l 1
 203 29 l 1
 118 78 55 171 55 304 c 0
 55 502 207 610 355 610 c 0
 380 610 404 607 428 601 c 1
 471 710 l 1
 531 710 l 1
 481 583 l 1
160 300 m 0
 160 192 184 120 221 76 c 1
 417 572 l 1
 396 579 375 582 352 582 c 0
 247 582 160 508 160 300 c 0
355 18 m 0
 460 18 545 100 545 304 c 0
 545 431 514 506 466 545 c 1
 267 39 l 1
 293 24 323 18 355 18 c 0
EndSplineSet
EndChar

StartChar: Otilde
Encoding: 342 213 86
Width: 705
GlyphClass: 2
Flags: MW
HStem: -10 28<302.5 407.5 302.5 426> 582 28<299.5 404.5>
VStem: 55 105<201.5 403> 545 105<202 403.5 201 410.5>
LayerCount: 2
Back
Fore
SplineSet
215 656 m 1
 235 651 l 1
 246 691 264 708 291 708 c 0
 331 708 357 649 414 649 c 0
 454 649 488 677 504 756 c 1
 483 761 l 1
 472 721 453 704 426 704 c 0
 386 704 361 763 304 763 c 0
 264 763 231 735 215 656 c 1
650 300 m 0
 650 102 500 -10 352 -10 c 0
 203 -10 55 99 55 304 c 0
 55 502 207 610 355 610 c 0
 502 610 650 507 650 300 c 0
545 304 m 0
 545 517 457 582 352 582 c 0
 247 582 160 508 160 300 c 0
 160 90 250 18 355 18 c 0
 460 18 545 100 545 304 c 0
EndSplineSet
EndChar

StartChar: OE
Encoding: 343 338 87
Width: 981
GlyphClass: 2
Flags: MW
HStem: -10 28<302.5 373.5> 0 26<494 560 650 796 796 829.5 477 560> 295 29<650 852 650 852> 574 26<500 560 500 500 650 796 650 650> 582 28<299.5 376 281 404.5>
VStem: 55 105<201.5 403> 545 105<202 295 324 410.5> 926 17.5
LayerCount: 2
Back
Fore
SplineSet
912 133 m 2x77
 926 180 l 1
 946 180 l 1
 941 0 l 1
 477 0 l 1x77
 477 17 l 1
 438 -1 395 -10 352 -10 c 0
 203 -10 55 99 55 304 c 0
 55 502 207 610 355 610 c 0
 397 610 439 602 477 585 c 1xaf
 477 600 l 1
 941 600 l 1
 946 420 l 1
 926 420 l 1
 912 467 l 2
 898 515 863 574 796 574 c 2
 650 574 l 1
 650 324 l 1
 852 324 l 1
 852 295 l 1
 650 295 l 1
 650 26 l 1
 796 26 l 2
 863 26 897 82 912 133 c 2x77
355 18 m 0xaf
 460 18 545 100 545 304 c 0
 545 517 457 582 352 582 c 0
 247 582 160 508 160 300 c 0
 160 90 250 18 355 18 c 0xaf
560 574 m 1x77
 500 574 l 1
 522 562 542 548 560 530 c 1
 560 574 l 1x77
494 26 m 1
 560 26 l 1
 560 74 l 1
 540 55 518 39 494 26 c 1
EndSplineSet
EndChar

StartChar: P
Encoding: 344 80 88
Width: 600
GlyphClass: 2
Flags: MW
HStem: 0 26<35 118 208 324 35 118> 265 29<208 312 208 322> 574 26<35 118 35 334 208 208 208 319>
VStem: 118 90<26 265 26 294 294 574> 447.62 82
LayerCount: 2
Back
Fore
SplineSet
312 265 m 2
 208 265 l 1
 208 26 l 1
 324 26 l 1
 324 0 l 1
 35 0 l 1
 35 26 l 1
 118 26 l 1
 118 574 l 1
 35 574 l 1
 35 600 l 1
 334 600 l 2
 602 600 595 265 312 265 c 2
319 574 m 2
 208 574 l 1
 208 294 l 1
 322 294 l 2
 482 294 498 574 319 574 c 2
EndSplineSet
EndChar

StartChar: Q
Encoding: 346 81 90
Width: 705
GlyphClass: 2
Flags: MW
HStem: -90 77<561 592> -10 28<336.5 362 336.5 365> 84 35<325 351> 582 28<300 405>
VStem: 55 105<237.5 402.5> 545 105<240 404 234.5 410.5>
LayerCount: 2
Back
Fore
SplineSet
689 51 m 1
 712 36 l 1
 672 -46 622 -90 562 -90 c 0xbc
 498 -90 460 -45 428 0 c 1
 403 -7 378 -10 352 -10 c 0x7c
 203 -10 55 101 55 301 c 0
 55 504 207 610 355 610 c 0
 502 610 650 505 650 303 c 0
 650 166 581 71 491 24 c 1
 517 3 544 -13 578 -13 c 0
 611 -13 647 5 689 51 c 1
354 582 m 0
 246 582 160 507 160 301 c 0
 160 174 193 98 241 57 c 1
 267 93 302 119 339 119 c 0
 387 119 423 86 458 53 c 1
 511 94 545 175 545 305 c 0
 545 516 456 582 354 582 c 0
352 18 m 0x7c
 372 18 391 21 409 27 c 1
 387 58 365 84 337 84 c 0
 313 84 288 70 263 41 c 1
 290 25 321 18 352 18 c 0x7c
EndSplineSet
EndChar

StartChar: R
Encoding: 347 82 91
Width: 625
GlyphClass: 2
Flags: MW
HStem: 0 26<35 118 208 294 35 118 548 586 586 595.5> 275 29<208 292 208 322> 574 26<35 118 35 334 208 208 208 319>
VStem: 118 90<26 275 26 304 304 574> 447.62 81.94
AnchorPoint: "Anchor-0" 330 0 basechar 0
LayerCount: 2
Back
Fore
SplineSet
292 275 m 1
 208 275 l 1
 208 26 l 1
 294 26 l 1
 294 0 l 1
 35 0 l 1
 35 26 l 1
 118 26 l 1
 118 574 l 1
 35 574 l 1
 35 600 l 1
 334 600 l 2
 576 600 594 335 387 284 c 1
 548 26 l 1
 586 26 l 2
 605 26 610 23 610 0 c 1
 452 0 l 1
 292 275 l 1
319 574 m 2
 208 574 l 1
 208 304 l 1
 322 304 l 2
 482 304 498 574 319 574 c 2
EndSplineSet
EndChar

StartChar: Racute
Encoding: 348 340 92
Width: 625
GlyphClass: 2
Flags: MW
HStem: 0 26<35 118 208 294 35 118 548 586 586 595.5> 275 29<208 292 208 322> 574 26<35 118 35 334 208 208 208 319>
VStem: 118 90<26 275 26 304 304 574> 447.62 81.94
AnchorPoint: "Anchor-0" 330 0 basechar 0
LayerCount: 2
Back
Fore
SplineSet
393 713 m 0
 368 688 302 659 245 613 c 1
 229 630 l 1
 278 683 307 749 331 773 c 0
 340 782 350 786 360 786 c 0
 383 786 406 764 406 741 c 0
 406 731 401 721 393 713 c 0
292 275 m 1
 208 275 l 1
 208 26 l 1
 294 26 l 1
 294 0 l 1
 35 0 l 1
 35 26 l 1
 118 26 l 1
 118 574 l 1
 35 574 l 1
 35 600 l 1
 334 600 l 2
 576 600 594 335 387 284 c 1
 548 26 l 1
 586 26 l 2
 605 26 610 23 610 0 c 1
 452 0 l 1
 292 275 l 1
319 574 m 2
 208 574 l 1
 208 304 l 1
 322 304 l 2
 482 304 498 574 319 574 c 2
EndSplineSet
EndChar

StartChar: Rcaron
Encoding: 349 344 93
Width: 625
GlyphClass: 2
Flags: MW
HStem: 0 26<35 118 208 294 35 118 548 586 586 595.5> 275 29<208 292 208 322> 574 26<35 118 35 334 208 208 208 319>
VStem: 118 90<26 275 26 304 304 574> 447.62 81.94
AnchorPoint: "Anchor-0" 330 0 basechar 0
LayerCount: 2
Back
Fore
SplineSet
304 631 m 0
 262 631 240 678 161 765 c 1
 174 782 l 1
 213 755 269 725 303 707 c 1
 339 725 395 757 432 781 c 1
 445 766 l 1
 367 678 346 631 304 631 c 0
292 275 m 1
 208 275 l 1
 208 26 l 1
 294 26 l 1
 294 0 l 1
 35 0 l 1
 35 26 l 1
 118 26 l 1
 118 574 l 1
 35 574 l 1
 35 600 l 1
 334 600 l 2
 576 600 594 335 387 284 c 1
 548 26 l 1
 586 26 l 2
 605 26 610 23 610 0 c 1
 452 0 l 1
 292 275 l 1
319 574 m 2
 208 574 l 1
 208 304 l 1
 322 304 l 2
 482 304 498 574 319 574 c 2
EndSplineSet
EndChar

StartChar: S
Encoding: 350 83 94
Width: 562
GlyphClass: 2
Flags: MW
HStem: -10 629<247 478>
VStem: 70 432<102.5 210 -2 260.5>
AnchorPoint: "Anchor-0" 281 0 basechar 0
LayerCount: 2
Back
Fore
SplineSet
98 210 m 1
 70 210 l 1
 70 -2 l 1
 98 -2 100 5 100 41 c 1
 151 7 216 -10 278 -10 c 0
 394 -10 502 48 502 157 c 0
 502 364 164 325 164 478 c 0
 164 545 224 584 289 584 c 0
 367 584 451 531 449 425 c 1
 478 425 l 1
 478 619 l 1
 453 619 448 606 448 571 c 1
 401 599 340 612 285 612 c 0
 175 612 74 554 74 452 c 0
 74 249 410 285 410 133 c 0
 410 59 344 18 273 18 c 0
 169 18 109 87 98 210 c 1
EndSplineSet
EndChar

StartChar: Sacute
Encoding: 351 346 95
Width: 562
GlyphClass: 2
Flags: MW
HStem: 612 18<225 312.5>
VStem: 70 432<102.5 210 -2 260.5>
AnchorPoint: "Anchor-0" 281 0 basechar 0
LayerCount: 2
Back
Fore
SplineSet
241 613 m 1
 225 630 l 1
 274 683 303 749 327 773 c 0
 336 782 346 786 356 786 c 0
 379 786 402 764 402 741 c 0
 402 731 397 721 389 713 c 0
 364 688 298 659 241 613 c 1
98 210 m 1
 70 210 l 1
 70 -2 l 1
 98 -2 100 5 100 41 c 1
 151 7 216 -10 278 -10 c 0
 394 -10 502 48 502 157 c 0
 502 364 164 325 164 478 c 0
 164 545 224 584 289 584 c 0
 367 584 451 531 449 425 c 1
 478 425 l 1
 478 619 l 1
 453 619 448 606 448 571 c 1
 401 599 340 612 285 612 c 0
 175 612 74 554 74 452 c 0
 74 249 410 285 410 133 c 0
 410 59 344 18 273 18 c 0
 169 18 109 87 98 210 c 1
EndSplineSet
EndChar

StartChar: Scaron
Encoding: 352 352 96
Width: 562
GlyphClass: 2
Flags: MW
HStem: -10 28<247 308.5 221 336> 584 28<256.5 312.5 230 328>
VStem: 70 30<23 41 23 210> 74 90<401.5 503> 410 92<102.5 209> 448 30<571 588.5>
AnchorPoint: "Anchor-0" 281 0 basechar 0
LayerCount: 2
Back
Fore
SplineSet
300 631 m 0xe4
 258 631 236 678 157 765 c 1
 170 782 l 1
 209 755 265 725 299 707 c 1
 335 725 391 757 428 781 c 1
 441 766 l 1
 363 678 342 631 300 631 c 0xe4
164 478 m 0xd8
 164 325 502 364 502 157 c 0
 502 48 394 -10 278 -10 c 0
 216 -10 151 7 100 41 c 1
 100 5 98 -2 70 -2 c 1
 70 210 l 1
 98 210 l 1xe8
 109 87 169 18 273 18 c 0
 344 18 410 59 410 133 c 0xd8
 410 285 74 249 74 452 c 0
 74 554 175 612 285 612 c 0
 340 612 401 599 448 571 c 1
 448 606 453 619 478 619 c 1
 478 425 l 1
 449 425 l 1xd4
 451 531 367 584 289 584 c 0
 224 584 164 545 164 478 c 0xd8
EndSplineSet
EndChar

StartChar: T
Encoding: 353 84 97
Width: 582
GlyphClass: 2
Flags: MW
HStem: 0 26<139 246 336 419 419 429 139 246> 574 26<161.5 195 195 246 336 387 336 336>
VStem: 37.5 29.5 246 90<26 574 26 574> 515 29.5
AnchorPoint: "Anchor-0" 289 0 basechar 0
LayerCount: 2
Back
Fore
SplineSet
542 600 m 1
 547 403 l 1
 515 403 l 1
 496 470 l 2
 482 520 454 574 387 574 c 2
 336 574 l 1
 336 26 l 1
 419 26 l 2
 439 26 444 22 444 0 c 1
 139 0 l 1
 139 26 l 1
 246 26 l 1
 246 574 l 1
 195 574 l 2
 128 574 100 520 86 470 c 2
 67 403 l 1
 35 403 l 1
 40 600 l 1
 542 600 l 1
EndSplineSet
EndChar

StartChar: Tcaron
Encoding: 354 356 98
Width: 582
GlyphClass: 2
Flags: MW
HStem: 0 26<139 246 336 419 419 429 139 246> 574 26<161.5 195 195 246 336 387 336 336>
VStem: 37.5 29.5 246 90<26 574 26 574> 515 29.5
AnchorPoint: "Anchor-0" 289 0 basechar 0
LayerCount: 2
Back
Fore
SplineSet
291 631 m 0
 249 631 227 678 148 765 c 1
 161 782 l 1
 200 755 256 725 290 707 c 1
 326 725 382 757 419 781 c 1
 432 766 l 1
 354 678 333 631 291 631 c 0
542 600 m 1
 547 403 l 1
 515 403 l 1
 496 470 l 2
 482 520 454 574 387 574 c 2
 336 574 l 1
 336 26 l 1
 419 26 l 2
 439 26 444 22 444 0 c 1
 139 0 l 1
 139 26 l 1
 246 26 l 1
 246 574 l 1
 195 574 l 2
 128 574 100 520 86 470 c 2
 67 403 l 1
 35 403 l 1
 40 600 l 1
 542 600 l 1
EndSplineSet
EndChar

StartChar: U
Encoding: 355 85 99
Width: 662
GlyphClass: 2
Flags: MW
HStem: -10 28<306 409 306 415.5> 574 26<30 105 30 279 195 195 195 279 431 527 562 637 562 562>
VStem: 105 90<225 231 231 574> 527 35<228 234 234 574>
LayerCount: 2
Back
Fore
SplineSet
637 600 m 1
 637 574 l 1
 562 574 l 1
 562 234 l 2
 562 69 493 -10 338 -10 c 0
 193 -10 105 59 105 225 c 2
 105 574 l 1
 30 574 l 1
 30 600 l 1
 279 600 l 1
 279 574 l 1
 195 574 l 1
 195 231 l 2
 195 76 253 18 359 18 c 0
 459 18 527 78 527 228 c 2
 527 574 l 1
 431 574 l 1
 431 600 l 1
 637 600 l 1
EndSplineSet
EndChar

StartChar: Uacute
Encoding: 356 218 100
Width: 662
GlyphClass: 2
Flags: MW
HStem: -10 28<306 409 306 415.5> 574 26<30 105 30 279 195 195 195 279 431 527 562 637 562 562>
VStem: 105 90<225 231 231 574> 527 35<228 234 234 574>
LayerCount: 2
Back
Fore
SplineSet
442 713 m 0
 417 688 351 659 294 613 c 1
 278 630 l 1
 327 683 356 749 380 773 c 0
 389 782 399 786 409 786 c 0
 432 786 455 764 455 741 c 0
 455 731 450 721 442 713 c 0
637 600 m 1
 637 574 l 1
 562 574 l 1
 562 234 l 2
 562 69 493 -10 338 -10 c 0
 193 -10 105 59 105 225 c 2
 105 574 l 1
 30 574 l 1
 30 600 l 1
 279 600 l 1
 279 574 l 1
 195 574 l 1
 195 231 l 2
 195 76 253 18 359 18 c 0
 459 18 527 78 527 228 c 2
 527 574 l 1
 431 574 l 1
 431 600 l 1
 637 600 l 1
EndSplineSet
EndChar

StartChar: Ucircumflex
Encoding: 357 219 101
Width: 662
GlyphClass: 2
Flags: MW
HStem: -10 28<306 409 306 415.5> 574 26<30 105 30 279 195 195 195 279 431 527 562 637 562 562>
VStem: 105 90<225 231 231 574> 527 35<228 234 234 574>
LayerCount: 2
Back
Fore
SplineSet
353 700 m 1
 321 684 272 657 231 630 c 1
 219 644 l 1
 293 728 311 773 351 773 c 0
 391 773 410 728 485 645 c 1
 473 629 l 1
 437 654 385 683 353 700 c 1
637 600 m 1
 637 574 l 1
 562 574 l 1
 562 234 l 2
 562 69 493 -10 338 -10 c 0
 193 -10 105 59 105 225 c 2
 105 574 l 1
 30 574 l 1
 30 600 l 1
 279 600 l 1
 279 574 l 1
 195 574 l 1
 195 231 l 2
 195 76 253 18 359 18 c 0
 459 18 527 78 527 228 c 2
 527 574 l 1
 431 574 l 1
 431 600 l 1
 637 600 l 1
EndSplineSet
EndChar

StartChar: Udieresis
Encoding: 358 220 102
Width: 662
GlyphClass: 2
Flags: MW
HStem: -10 28<306 409 306 415.5> 574 26<30 105 30 279 195 195 195 279 431 527 562 637 562 562> 651 100<247.5 275.5 430 458>
VStem: 105 90<225 231 231 574> 211 100<686.5 715> 394 100<686.5 715> 527 35<228 234 234 574>
LayerCount: 2
Back
Fore
SplineSet
262 651 m 0
 233 651 211 672 211 701 c 0
 211 729 233 751 262 751 c 0
 289 751 311 729 311 701 c 0
 311 672 289 651 262 651 c 0
444 651 m 0
 416 651 394 672 394 701 c 0
 394 729 416 751 444 751 c 0
 472 751 494 729 494 701 c 0
 494 672 472 651 444 651 c 0
637 600 m 1
 637 574 l 1
 562 574 l 1
 562 234 l 2
 562 69 493 -10 338 -10 c 0
 193 -10 105 59 105 225 c 2
 105 574 l 1
 30 574 l 1
 30 600 l 1
 279 600 l 1
 279 574 l 1
 195 574 l 1
 195 231 l 2xd2
 195 76 253 18 359 18 c 0
 459 18 527 78 527 228 c 2
 527 574 l 1
 431 574 l 1
 431 600 l 1
 637 600 l 1
EndSplineSet
EndChar

StartChar: Ugrave
Encoding: 359 217 103
Width: 662
GlyphClass: 2
Flags: MW
HStem: -10 28<306 409 306 415.5> 574 26<30 105 30 279 195 195 195 279 431 527 562 637 562 562>
VStem: 105 90<225 231 231 574> 527 35<228 234 234 574>
LayerCount: 2
Back
Fore
SplineSet
421 613 m 1
 364 659 298 688 273 713 c 0
 265 721 260 731 260 741 c 0
 260 764 283 786 306 786 c 0
 316 786 326 782 335 773 c 0
 359 749 388 683 437 630 c 1
 421 613 l 1
637 600 m 1
 637 574 l 1
 562 574 l 1
 562 234 l 2
 562 69 493 -10 338 -10 c 0
 193 -10 105 59 105 225 c 2
 105 574 l 1
 30 574 l 1
 30 600 l 1
 279 600 l 1
 279 574 l 1
 195 574 l 1
 195 231 l 2
 195 76 253 18 359 18 c 0
 459 18 527 78 527 228 c 2
 527 574 l 1
 431 574 l 1
 431 600 l 1
 637 600 l 1
EndSplineSet
EndChar

StartChar: Uhungarumlaut
Encoding: 360 368 104
Width: 662
GlyphClass: 2
Flags: MW
HStem: -10 28<306 409 306 415.5> 574 26<30 105 30 279 195 195 195 279 431 527 562 637 562 562>
VStem: 105 90<225 231 231 574> 527 35<228 234 234 574>
LayerCount: 2
Back
Fore
SplineSet
383 727 m 0
 359 702 294 674 239 630 c 1
 224 646 l 1
 271 697 299 762 323 785 c 0
 331 794 341 797 351 797 c 0
 373 797 395 776 395 754 c 0
 395 744 391 734 383 727 c 0
382 630 m 1
 371 649 l 1
 427 689 468 747 496 764 c 0
 506 772 516 772 526 770 c 0
 548 766 565 741 560 719 c 0
 558 709 552 700 543 695 c 0
 514 676 445 662 382 630 c 1
637 600 m 1
 637 574 l 1
 562 574 l 1
 562 234 l 2
 562 69 493 -10 338 -10 c 0
 193 -10 105 59 105 225 c 2
 105 574 l 1
 30 574 l 1
 30 600 l 1
 279 600 l 1
 279 574 l 1
 195 574 l 1
 195 231 l 2
 195 76 253 18 359 18 c 0
 459 18 527 78 527 228 c 2
 527 574 l 1
 431 574 l 1
 431 600 l 1
 637 600 l 1
EndSplineSet
EndChar

StartChar: Umacron
Encoding: 361 362 105
Width: 662
GlyphClass: 2
Flags: MW
HStem: -10 28<306 409 306 415.5> 574 26<30 105 30 279 195 195 195 279 431 527 562 637 562 562> 670 50<204 504 204 504>
VStem: 105 90<225 231 231 574> 527 35<228 234 234 574>
LayerCount: 2
Back
Fore
SplineSet
504 720 m 1
 504 670 l 1
 204 670 l 1
 204 720 l 1
 504 720 l 1
637 600 m 1
 637 574 l 1
 562 574 l 1
 562 234 l 2
 562 69 493 -10 338 -10 c 0
 193 -10 105 59 105 225 c 2
 105 574 l 1
 30 574 l 1
 30 600 l 1
 279 600 l 1
 279 574 l 1
 195 574 l 1
 195 231 l 2
 195 76 253 18 359 18 c 0
 459 18 527 78 527 228 c 2
 527 574 l 1
 431 574 l 1
 431 600 l 1
 637 600 l 1
EndSplineSet
EndChar

StartChar: Uogonek
Encoding: 362 370 106
Width: 662
GlyphClass: 2
Flags: MW
HStem: -191 29<399.5 405.5> -10 28<306 409 306 415.5> 574 26<30 105 30 279 195 195 195 279 431 527 562 637 562 562>
VStem: 105 90<225 231 231 574> 294 76<-128.5 -93.5 -128.5 -92.5> 527 35<228 234 234 574>
LayerCount: 2
Back
Fore
SplineSet
637 600 m 1
 637 574 l 1
 562 574 l 1
 562 234 l 2
 562 69 493 -10 338 -10 c 0
 193 -10 105 59 105 225 c 2
 105 574 l 1
 30 574 l 1
 30 600 l 1
 279 600 l 1
 279 574 l 1
 195 574 l 1
 195 231 l 2
 195 76 253 18 359 18 c 0
 459 18 527 78 527 228 c 2
 527 574 l 1
 431 574 l 1
 431 600 l 1
 637 600 l 1
412 -162 m 0
 428 -162 448 -155 467 -139 c 1
 479 -154 l 1
 454 -180 421 -191 390 -191 c 0
 330 -191 294 -157 294 -116 c 0
 294 -69 343 -13 465 9 c 1
 466 0 l 1
 399 -26 370 -75 370 -112 c 0
 370 -145 387 -162 412 -162 c 0
EndSplineSet
EndChar

StartChar: Uring
Encoding: 363 366 107
Width: 662
GlyphClass: 2
Flags: MW
HStem: -10 28<306 409 306 415.5> 574 26<30 105 30 279 195 195 195 279 431 527 562 637 562 562> 612 23<338 375 338 388.5> 772 23<339 376>
VStem: 105 90<225 231 231 574> 253 54<687 720 687 731> 408 54<688 721> 527 35<228 234 234 574>
LayerCount: 2
Back
Fore
SplineSet
355 612 m 0
 291 612 253 652 253 705 c 0
 253 757 293 795 360 795 c 0
 425 795 462 756 462 706 c 0
 462 653 422 612 355 612 c 0
357 772 m 0
 321 772 307 737 307 703 c 0
 307 671 319 635 357 635 c 0
 393 635 408 671 408 705 c 0
 408 737 395 772 357 772 c 0
637 600 m 1xdf
 637 574 l 1
 562 574 l 1
 562 234 l 2
 562 69 493 -10 338 -10 c 0
 193 -10 105 59 105 225 c 2
 105 574 l 1
 30 574 l 1
 30 600 l 1
 279 600 l 1
 279 574 l 1
 195 574 l 1
 195 231 l 2
 195 76 253 18 359 18 c 0
 459 18 527 78 527 228 c 2
 527 574 l 1
 431 574 l 1
 431 600 l 1
 637 600 l 1xdf
EndSplineSet
EndChar

StartChar: V
Encoding: 364 86 108
Width: 590
GlyphClass: 2
Flags: MW
HStem: 574 26<5 65 5 239 159 159 159 239 418 504 542 593 542 542>
VStem: 418 175<574 600 574 600>
LayerCount: 2
Back
Fore
SplineSet
418 600 m 1
 593 600 l 1
 593 574 l 1
 542 574 l 1
 336 -5 l 1
 319 -5 l 2
 290 -5 278 7 255 69 c 2
 65 574 l 1
 5 574 l 1
 5 600 l 1
 239 600 l 1
 239 574 l 1
 159 574 l 1
 339 105 l 1
 504 574 l 1
 418 574 l 1
 418 600 l 1
EndSplineSet
EndChar

StartChar: W
Encoding: 365 87 109
Width: 860
GlyphClass: 2
Flags: MW
HStem: 574 26<10 68 10 239 157 157 157 239 457 457 457 531 693 775 807 860 807 807>
VStem: 693 167<574 600 574 600>
LayerCount: 2
Back
Fore
SplineSet
693 600 m 1
 860 600 l 1
 860 574 l 1
 807 574 l 1
 608 0 l 1
 571 0 l 1
 443 363 l 1
 313 0 l 1
 276 0 l 1
 68 574 l 1
 10 574 l 1
 10 600 l 1
 239 600 l 1
 239 574 l 1
 157 574 l 1
 320 110 l 1
 427 409 l 1
 359 600 l 1
 531 600 l 1
 531 574 l 1
 457 574 l 1
 614 112 l 1
 775 574 l 1
 693 574 l 1
 693 600 l 1
EndSplineSet
EndChar

StartChar: X
Encoding: 366 88 110
Width: 606
GlyphClass: 2
Flags: MW
HStem: 0 26<26 42 117 215 12 42 354 439 547 582 582 591.5> 574 26<26 70 26 250 174 174 174 250 394 484 548.5 568>
VStem: 12 594<0 9.5>
LayerCount: 2
Back
Fore
SplineSet
582 26 m 2
 601 26 606 22 606 0 c 1
 354 0 l 1
 354 26 l 1
 439 26 l 1
 284 256 l 1
 117 26 l 1
 215 26 l 1
 215 0 l 1
 12 0 l 1
 12 19 20 26 32 26 c 0
 52 26 86 35 100 54 c 2
 267 282 l 1
 70 574 l 1
 26 574 l 1
 26 600 l 1
 250 600 l 1
 250 574 l 1
 174 574 l 1
 325 353 l 1
 484 574 l 1
 394 574 l 1
 394 600 l 1
 578 600 l 1
 578 585 575 574 561 574 c 0
 536 574 511 564 498 546 c 2
 341 329 l 1
 547 26 l 1
 582 26 l 2
EndSplineSet
EndChar

StartChar: Y
Encoding: 367 89 111
Width: 567
GlyphClass: 2
Flags: MW
HStem: 0 26<161 244 334 385 385 395 161 244> 574 26<5 58 5 229 157 157 157 229 383 469 537.5 557>
VStem: 245.5 90
LayerCount: 2
Back
Fore
SplineSet
383 600 m 1
 567 600 l 1
 567 585 564 574 550 574 c 0
 525 574 496 564 487 546 c 2
 337 249 l 1
 334 26 l 1
 385 26 l 2
 405 26 410 22 410 0 c 1
 161 0 l 1
 161 26 l 1
 244 26 l 1
 247 239 l 1
 58 574 l 1
 5 574 l 1
 5 600 l 1
 229 600 l 1
 229 574 l 1
 157 574 l 1
 318 283 l 1
 469 574 l 1
 383 574 l 1
 383 600 l 1
EndSplineSet
EndChar

StartChar: Yacute
Encoding: 368 221 112
Width: 567
GlyphClass: 2
Flags: MW
HStem: 0 26<161 244 334 385 385 395 161 244> 574 26<5 58 5 229 157 157 157 229 383 469 537.5 557>
VStem: 245.5 90
LayerCount: 2
Back
Fore
SplineSet
394 713 m 0
 369 688 303 659 246 613 c 1
 230 630 l 1
 279 683 308 749 332 773 c 0
 341 782 351 786 361 786 c 0
 384 786 407 764 407 741 c 0
 407 731 402 721 394 713 c 0
383 600 m 1
 567 600 l 1
 567 585 564 574 550 574 c 0
 525 574 496 564 487 546 c 2
 337 249 l 1
 334 26 l 1
 385 26 l 2
 405 26 410 22 410 0 c 1
 161 0 l 1
 161 26 l 1
 244 26 l 1
 247 239 l 1
 58 574 l 1
 5 574 l 1
 5 600 l 1
 229 600 l 1
 229 574 l 1
 157 574 l 1
 318 283 l 1
 469 574 l 1
 383 574 l 1
 383 600 l 1
EndSplineSet
EndChar

StartChar: Ydieresis
Encoding: 369 376 113
Width: 567
GlyphClass: 2
Flags: MW
HStem: 0 26<161 244 334 385 385 395 161 244> 574 26<5 58 5 229 157 157 157 229 383 469 537.5 557> 651 100<199.5 227.5 382 410>
VStem: 163 100<686.5 715> 245.5 90 346 100<686.5 715>
LayerCount: 2
Back
Fore
SplineSet
214 651 m 0xf4
 185 651 163 672 163 701 c 0
 163 729 185 751 214 751 c 0
 241 751 263 729 263 701 c 0
 263 672 241 651 214 651 c 0xf4
396 651 m 0
 368 651 346 672 346 701 c 0
 346 729 368 751 396 751 c 0
 424 751 446 729 446 701 c 0
 446 672 424 651 396 651 c 0
383 600 m 1
 567 600 l 1
 567 585 564 574 550 574 c 0
 525 574 496 564 487 546 c 2
 337 249 l 1
 334 26 l 1
 385 26 l 2
 405 26 410 22 410 0 c 1
 161 0 l 1
 161 26 l 1
 244 26 l 1
 247 239 l 1xc8
 58 574 l 1
 5 574 l 1
 5 600 l 1
 229 600 l 1
 229 574 l 1
 157 574 l 1
 318 283 l 1
 469 574 l 1
 383 574 l 1
 383 600 l 1
EndSplineSet
EndChar

StartChar: Z
Encoding: 370 90 114
Width: 575
GlyphClass: 2
Flags: MW
HStem: 0 26<152 381 381 411.5> 574 26<200.5 219 219 416>
VStem: 508 21<207 207>
LayerCount: 2
Back
Fore
SplineSet
508 207 m 1
 530 207 l 1
 528 0 l 1
 35 0 l 1
 35 20 l 1
 416 574 l 1
 219 574 l 2
 182 574 159 548 138 509 c 2
 91 419 l 1
 71 419 l 1
 80 600 l 1
 525 600 l 1
 525 579 l 1
 152 26 l 1
 381 26 l 2
 442 26 466 67 479 111 c 2
 508 207 l 1
EndSplineSet
EndChar

StartChar: Zacute
Encoding: 371 377 115
Width: 575
GlyphClass: 2
Flags: MW
HStem: 0 26<152 381 381 411.5> 574 26<200.5 219 219 416>
VStem: 508 21<207 207>
LayerCount: 2
Back
Fore
SplineSet
398 713 m 0
 373 688 307 659 250 613 c 1
 234 630 l 1
 283 683 312 749 336 773 c 0
 345 782 355 786 365 786 c 0
 388 786 411 764 411 741 c 0
 411 731 406 721 398 713 c 0
508 207 m 1
 530 207 l 1
 528 0 l 1
 35 0 l 1
 35 20 l 1
 416 574 l 1
 219 574 l 2
 182 574 159 548 138 509 c 2
 91 419 l 1
 71 419 l 1
 80 600 l 1
 525 600 l 1
 525 579 l 1
 152 26 l 1
 381 26 l 2
 442 26 466 67 479 111 c 2
 508 207 l 1
EndSplineSet
EndChar

StartChar: Zcaron
Encoding: 372 381 116
Width: 575
GlyphClass: 2
Flags: MW
HStem: 0 26<152 381 381 411.5> 574 26<200.5 219 219 416>
VStem: 508 21<207 207>
LayerCount: 2
Back
Fore
SplineSet
309 631 m 0
 267 631 245 678 166 765 c 1
 179 782 l 1
 218 755 274 725 308 707 c 1
 344 725 400 757 437 781 c 1
 450 766 l 1
 372 678 351 631 309 631 c 0
508 207 m 1
 530 207 l 1
 528 0 l 1
 35 0 l 1
 35 20 l 1
 416 574 l 1
 219 574 l 2
 182 574 159 548 138 509 c 2
 91 419 l 1
 71 419 l 1
 80 600 l 1
 525 600 l 1
 525 579 l 1
 152 26 l 1
 381 26 l 2
 442 26 466 67 479 111 c 2
 508 207 l 1
EndSplineSet
EndChar

StartChar: Zdotaccent
Encoding: 373 379 117
Width: 575
GlyphClass: 2
Flags: MW
HStem: 0 26<152 381 381 411.5> 574 26<200.5 219 219 416> 646 110<292.5 323>
VStem: 253 109<685.5 716> 508 21<207 207>
LayerCount: 2
Back
Fore
SplineSet
308 646 m 0
 277 646 253 670 253 701 c 0
 253 731 277 756 308 756 c 0
 338 756 362 731 362 701 c 0
 362 670 338 646 308 646 c 0
508 207 m 1
 530 207 l 1
 528 0 l 1
 35 0 l 1
 35 20 l 1
 416 574 l 1
 219 574 l 2
 182 574 159 548 138 509 c 2
 91 419 l 1
 71 419 l 1
 80 600 l 1
 525 600 l 1
 525 579 l 1
 152 26 l 1
 381 26 l 2
 442 26 466 67 479 111 c 2
 508 207 l 1
EndSplineSet
EndChar

StartChar: uni0122
Encoding: 374 290 118
Width: 700
GlyphClass: 2
Flags: MW
HStem: -10 31<299 379> 244 26<416 499 416 665 589 665 589 589> 582 28<299.5 378 281 412>
VStem: 55 105<199.5 403> 363 44<-169.5 -88> 499 90<84 244 0 244> 551 27.5
AnchorPoint: "Anchor-0" 350 0 basechar 0
LayerCount: 2
Back
Fore
SplineSet
665 270 m 1xf4
 665 244 l 1
 589 244 l 1
 589 0 l 1
 498 31 l 1xfc
 461 6 403 -10 355 -10 c 0
 214 -10 55 95 55 304 c 0
 55 502 207 610 355 610 c 0
 401 610 447 600 489 579 c 1
 576 597 l 1
 581 403 l 1
 551 403 l 1xf2
 514 530 472 582 352 582 c 0
 247 582 160 508 160 300 c 0
 160 90 243 21 355 21 c 0
 409 21 461 42 499 84 c 1
 499 244 l 1
 416 244 l 1
 416 270 l 1
 665 270 l 1xf4
346 -36 m 0
 386 -36 407 -67 407 -109 c 0
 407 -154 383 -210 338 -256 c 1
 314 -240 l 1
 341 -212 363 -179 363 -160 c 0
 363 -150 353 -145 338 -142 c 0
 315 -137 293 -120 293 -91 c 0
 293 -60 317 -36 346 -36 c 0
EndSplineSet
EndChar

StartChar: uni0136
Encoding: 375 310 119
Width: 640
GlyphClass: 2
Flags: MW
HStem: 0 26<40 116 206 265 265 274.5 40 116 582 609 609 619> 574 26<40 116 40 289 206 206 206 289 415 495 551.5 578.5>
VStem: 116 90<26 262 26 308 308 574> 372 44<-169.5 -88>
AnchorPoint: "Anchor-0" 359 0 basechar 0
LayerCount: 2
Back
Fore
SplineSet
609 26 m 2
 629 26 635 22 635 0 c 1
 483 0 l 1
 247 301 l 1
 206 262 l 1
 206 26 l 1
 265 26 l 2
 284 26 289 22 289 0 c 1
 40 0 l 1
 40 26 l 1
 116 26 l 1
 116 574 l 1
 40 574 l 1
 40 600 l 1
 289 600 l 1
 289 574 l 1
 206 574 l 1
 206 308 l 1
 495 574 l 1
 415 574 l 1
 415 600 l 1
 595 600 l 1
 595 572 593 574 564 574 c 0
 539 574 520 556 494 532 c 2
 319 368 l 1
 582 26 l 1
 609 26 l 2
355 -36 m 0
 395 -36 416 -67 416 -109 c 0
 416 -154 392 -210 347 -256 c 1
 323 -240 l 1
 350 -212 372 -179 372 -160 c 0
 372 -150 362 -145 347 -142 c 0
 324 -137 302 -120 302 -91 c 0
 302 -60 326 -36 355 -36 c 0
EndSplineSet
EndChar

StartChar: uni013B
Encoding: 376 315 120
Width: 499
GlyphClass: 2
Flags: MW
HStem: 0 26<35 118 208 334 334 367.5 35 118> 574 26<35 118 35 291 208 208 208 291>
VStem: 118 90<26 574 26 574> 263 44<-169.5 -88> 464 17.5
AnchorPoint: "Anchor-0" 250 0 basechar 0
LayerCount: 2
Back
Fore
SplineSet
464 200 m 1
 484 200 l 1
 479 0 l 1
 35 0 l 1
 35 26 l 1
 118 26 l 1
 118 574 l 1
 35 574 l 1
 35 600 l 1
 291 600 l 1
 291 574 l 1
 208 574 l 1
 208 26 l 1
 334 26 l 2
 401 26 431 83 445 133 c 2
 464 200 l 1
246 -36 m 0
 286 -36 307 -67 307 -109 c 0
 307 -154 283 -210 238 -256 c 1
 214 -240 l 1
 241 -212 263 -179 263 -160 c 0
 263 -150 253 -145 238 -142 c 0
 215 -137 193 -120 193 -91 c 0
 193 -60 217 -36 246 -36 c 0
EndSplineSet
EndChar

StartChar: uni0145
Encoding: 377 325 121
Width: 670
GlyphClass: 2
Flags: MW
HStem: 0 26<25 98 138 206 206 215.5 25 98> 574 26<25 98 25 162 445 537 577 650 577 577>
VStem: 98 40<26 482 26 574> 348 44<-169.5 -88> 537 40<136 574 5 574>
AnchorPoint: "Anchor-0" 335 0 basechar 0
LayerCount: 2
Back
Fore
SplineSet
445 600 m 1
 650 600 l 1
 650 574 l 1
 577 574 l 1
 577 5 l 1
 526 -5 l 1
 138 482 l 1
 138 26 l 1
 206 26 l 2
 225 26 230 22 230 0 c 1
 25 0 l 1
 25 26 l 1
 98 26 l 1
 98 574 l 1
 25 574 l 1
 25 600 l 1
 162 600 l 1
 537 136 l 1
 537 574 l 1
 445 574 l 1
 445 600 l 1
331 -36 m 0
 371 -36 392 -67 392 -109 c 0
 392 -154 368 -210 323 -256 c 1
 299 -240 l 1
 326 -212 348 -179 348 -160 c 0
 348 -150 338 -145 323 -142 c 0
 300 -137 278 -120 278 -91 c 0
 278 -60 302 -36 331 -36 c 0
EndSplineSet
EndChar

StartChar: uni0156
Encoding: 378 342 122
Width: 625
GlyphClass: 2
Flags: MW
HStem: 0 26<35 118 208 294 35 118 548 586 586 595.5> 275 29<208 292 208 322> 574 26<35 118 35 334 208 208 208 319>
VStem: 118 90<26 275 304 574> 343 44<-169.5 -88> 447.62 81.94
AnchorPoint: "Anchor-0" 330 0 basechar 0
LayerCount: 2
Back
Fore
SplineSet
586 26 m 2
 605 26 610 23 610 0 c 1
 452 0 l 1
 292 275 l 1
 208 275 l 1
 208 26 l 1
 294 26 l 1
 294 0 l 1
 35 0 l 1
 35 26 l 1
 118 26 l 1
 118 574 l 1
 35 574 l 1
 35 600 l 1
 334 600 l 2
 576 600 594 335 387 284 c 1
 548 26 l 1
 586 26 l 2
208 304 m 1
 322 304 l 2
 482 304 498 574 319 574 c 2
 208 574 l 1
 208 304 l 1
326 -36 m 0
 366 -36 387 -67 387 -109 c 0
 387 -154 363 -210 318 -256 c 1
 294 -240 l 1
 321 -212 343 -179 343 -160 c 0
 343 -150 333 -145 318 -142 c 0
 295 -137 273 -120 273 -91 c 0
 273 -60 297 -36 326 -36 c 0
EndSplineSet
EndChar

StartChar: uni015E
Encoding: 379 350 123
Width: 562
GlyphClass: 2
Flags: MW
HStem: -227 25<274 292 264.5 323.5> -77 25<271.5 333>
VStem: 335 75<-156 -114>
AnchorPoint: "Anchor-0" 281 0 basechar 0
LayerCount: 2
Back
Fore
SplineSet
98 210 m 1
 70 210 l 1
 70 -2 l 1
 98 -2 100 5 100 41 c 1
 151 7 216 -10 278 -10 c 0
 394 -10 502 48 502 157 c 0
 502 364 164 325 164 478 c 0
 164 545 224 584 289 584 c 0
 367 584 451 531 449 425 c 1
 478 425 l 1
 478 619 l 1
 453 619 448 606 448 571 c 1
 401 599 340 612 285 612 c 0
 175 612 74 554 74 452 c 0
 74 249 410 285 410 133 c 0
 410 59 344 18 273 18 c 0
 169 18 109 87 98 210 c 1
259 3 m 1
 284 3 l 1
 255 -62 l 1
 271 -55 289 -52 307 -52 c 0
 359 -52 410 -81 410 -136 c 0
 410 -193 353 -227 294 -227 c 0
 254 -227 213 -211 190 -174 c 1
 206 -162 l 1
 226 -189 253 -202 276 -202 c 0
 308 -202 335 -178 335 -134 c 0
 335 -94 310 -77 280 -77 c 0
 263 -77 244 -83 229 -94 c 1
 215 -85 l 1
 259 3 l 1
EndSplineSet
EndChar

StartChar: uni0162
Encoding: 380 354 124
Width: 582
GlyphClass: 2
Flags: MW
HStem: -227 25<282 300 272.5 331.5> -77 25<279.5 341> 0 26<139 246 139 266 139 246 336 419 419 429> 574 26<161.5 195 195 246 336 387 336 336>
VStem: 37.5 29.5 246 90<26 574 26 574> 343 75<-156 -114> 515 29.5
AnchorPoint: "Anchor-0" 289 0 basechar 0
LayerCount: 2
Back
Fore
SplineSet
542 600 m 1
 547 403 l 1
 515 403 l 1
 496 470 l 2
 482 520 454 574 387 574 c 2
 336 574 l 1
 336 26 l 1
 419 26 l 2xfd
 439 26 444 22 444 0 c 1
 291 0 l 1
 263 -62 l 1
 279 -55 297 -52 315 -52 c 0
 367 -52 418 -81 418 -136 c 0
 418 -193 361 -227 302 -227 c 0
 262 -227 221 -211 198 -174 c 1
 214 -162 l 1
 234 -189 261 -202 284 -202 c 0
 316 -202 343 -178 343 -134 c 0
 343 -94 318 -77 288 -77 c 0xfb
 271 -77 252 -83 237 -94 c 1
 223 -85 l 1
 266 0 l 1
 139 0 l 1
 139 26 l 1
 246 26 l 1
 246 574 l 1
 195 574 l 2
 128 574 100 520 86 470 c 2
 67 403 l 1
 35 403 l 1
 40 600 l 1
 542 600 l 1
EndSplineSet
EndChar

StartChar: uni0218
Encoding: 381 536 125
Width: 562
GlyphClass: 2
Flags: MW
HStem: -256 875<269 478>
VStem: 294 44<-169.5 -88>
AnchorPoint: "Anchor-0" 281 0 basechar 0
LayerCount: 2
Back
Fore
SplineSet
98 210 m 1
 70 210 l 1
 70 -2 l 1
 98 -2 100 5 100 41 c 1
 151 7 216 -10 278 -10 c 0
 394 -10 502 48 502 157 c 0
 502 364 164 325 164 478 c 0
 164 545 224 584 289 584 c 0
 367 584 451 531 449 425 c 1
 478 425 l 1
 478 619 l 1
 453 619 448 606 448 571 c 1
 401 599 340 612 285 612 c 0
 175 612 74 554 74 452 c 0
 74 249 410 285 410 133 c 0
 410 59 344 18 273 18 c 0
 169 18 109 87 98 210 c 1
269 -256 m 1
 245 -240 l 1
 272 -212 294 -179 294 -160 c 0
 294 -150 284 -145 269 -142 c 0
 246 -137 224 -120 224 -91 c 0
 224 -60 248 -36 277 -36 c 0
 317 -36 338 -67 338 -109 c 0
 338 -154 314 -210 269 -256 c 1
EndSplineSet
EndChar

StartChar: uni021A
Encoding: 382 538 126
Width: 582
GlyphClass: 2
Flags: MW
HStem: 0 26<139 246 336 419 419 429 139 246> 574 26<161.5 195 195 246 336 387 336 336>
VStem: 37.5 29.5 246 90<26 574 26 574> 302 44<-169.5 -88> 515 29.5
AnchorPoint: "Anchor-0" 289 0 basechar 0
LayerCount: 2
Back
Fore
SplineSet
542 600 m 1xf4
 547 403 l 1
 515 403 l 1
 496 470 l 2
 482 520 454 574 387 574 c 2
 336 574 l 1
 336 26 l 1
 419 26 l 2
 439 26 444 22 444 0 c 1
 139 0 l 1
 139 26 l 1
 246 26 l 1
 246 574 l 1
 195 574 l 2
 128 574 100 520 86 470 c 2
 67 403 l 1
 35 403 l 1
 40 600 l 1
 542 600 l 1xf4
285 -36 m 0xec
 325 -36 346 -67 346 -109 c 0
 346 -154 322 -210 277 -256 c 1
 253 -240 l 1
 280 -212 302 -179 302 -160 c 0
 302 -150 292 -145 277 -142 c 0
 254 -137 232 -120 232 -91 c 0
 232 -60 256 -36 285 -36 c 0xec
EndSplineSet
EndChar

StartChar: a
Encoding: 383 97 127
Width: 482
GlyphClass: 2
Flags: MW
HStem: -10 31<403.5 420> -10 40<172 188> 217 27<305 305> 410 25<168.5 243.5>
VStem: 35 84<90.5 153> 305 80<137 217 217 217 244 284> 451 26<94 95>
LayerCount: 2
Back
Fore
SplineSet
451 95 m 1xbe
 477 94 l 1
 474 26 449 -10 391 -10 c 0xbe
 345 -10 314 17 306 83 c 1
 281 21 217 -10 159 -10 c 0x7e
 94 -10 35 28 35 105 c 0
 35 201 113 240 305 244 c 1
 305 307 l 2
 305 377 274 410 213 410 c 0
 121 410 163 312 101 312 c 0
 74 312 59 330 59 349 c 0
 59 390 113 435 224 435 c 0
 333 435 385 386 385 284 c 2
 385 73 l 2
 385 40 395 21 412 21 c 0
 433 21 447 45 451 95 c 1xbe
192 30 m 0x7e
 235 30 290 68 305 137 c 1
 305 217 l 1
 180 215 119 200 119 122 c 0
 119 59 152 30 192 30 c 0x7e
EndSplineSet
EndChar

StartChar: aacute
Encoding: 384 225 128
Width: 482
GlyphClass: 2
Flags: MW
HStem: -10 31<403.5 420> -10 40<172 188> 217 27<305 305> 410 25<168.5 243.5>
VStem: 35 84<90.5 153> 305 80<137 217 217 217 244 284> 451 26<94 95>
LayerCount: 2
Back
Fore
SplineSet
331 583 m 0x7e
 306 558 240 529 183 483 c 1
 167 500 l 1
 216 553 245 619 269 643 c 0
 278 652 288 656 298 656 c 0
 321 656 344 634 344 611 c 0
 344 601 339 591 331 583 c 0x7e
451 95 m 1xbe
 477 94 l 1
 474 26 449 -10 391 -10 c 0xbe
 345 -10 314 17 306 83 c 1
 281 21 217 -10 159 -10 c 0x7e
 94 -10 35 28 35 105 c 0
 35 201 113 240 305 244 c 1
 305 307 l 2
 305 377 274 410 213 410 c 0
 121 410 163 312 101 312 c 0
 74 312 59 330 59 349 c 0
 59 390 113 435 224 435 c 0
 333 435 385 386 385 284 c 2
 385 73 l 2
 385 40 395 21 412 21 c 0
 433 21 447 45 451 95 c 1xbe
192 30 m 0x7e
 235 30 290 68 305 137 c 1
 305 217 l 1
 180 215 119 200 119 122 c 0
 119 59 152 30 192 30 c 0x7e
EndSplineSet
EndChar

StartChar: abreve
Encoding: 385 259 129
Width: 482
GlyphClass: 2
Flags: MW
HStem: -10 31<403.5 420> -10 40<172 188> 217 27<305 305> 410 25<168.5 243.5> 510 64<219.5 265.5 219.5 285.5>
VStem: 35 84<90.5 153> 118 20<606 639> 305 80<137 217 217 217 244 284> 342 21<606 639> 451 26<94 95>
LayerCount: 2
Back
Fore
SplineSet
241 510 m 0xbac0
 153 510 118 573 118 639 c 1
 138 639 l 1
 149 586 195 574 244 574 c 0
 287 574 331 583 342 639 c 1
 363 639 l 1
 363 573 330 510 241 510 c 0xbac0
451 95 m 1
 477 94 l 1
 474 26 449 -10 391 -10 c 0xbd40
 345 -10 314 17 306 83 c 1
 281 21 217 -10 159 -10 c 0x7d40
 94 -10 35 28 35 105 c 0
 35 201 113 240 305 244 c 1
 305 307 l 2
 305 377 274 410 213 410 c 0
 121 410 163 312 101 312 c 0
 74 312 59 330 59 349 c 0
 59 390 113 435 224 435 c 0
 333 435 385 386 385 284 c 2
 385 73 l 2xbd40
 385 40 395 21 412 21 c 0
 433 21 447 45 451 95 c 1
192 30 m 0x7d40
 235 30 290 68 305 137 c 1
 305 217 l 1
 180 215 119 200 119 122 c 0
 119 59 152 30 192 30 c 0x7d40
EndSplineSet
EndChar

StartChar: acircumflex
Encoding: 386 226 130
Width: 482
GlyphClass: 2
Flags: MW
HStem: -10 31<403.5 420> -10 40<172 188> 217 27<305 305> 410 25<168.5 243.5>
VStem: 35 84<90.5 153> 305 80<137 217 217 217 244 284> 451 26<94 95>
LayerCount: 2
Back
Fore
SplineSet
242 570 m 1x7e
 210 554 161 527 120 500 c 1
 108 514 l 1
 182 598 200 643 240 643 c 0
 280 643 299 598 374 515 c 1
 362 499 l 1
 326 524 274 553 242 570 c 1x7e
451 95 m 1xbe
 477 94 l 1
 474 26 449 -10 391 -10 c 0xbe
 345 -10 314 17 306 83 c 1
 281 21 217 -10 159 -10 c 0x7e
 94 -10 35 28 35 105 c 0
 35 201 113 240 305 244 c 1
 305 307 l 2
 305 377 274 410 213 410 c 0
 121 410 163 312 101 312 c 0
 74 312 59 330 59 349 c 0
 59 390 113 435 224 435 c 0
 333 435 385 386 385 284 c 2
 385 73 l 2
 385 40 395 21 412 21 c 0
 433 21 447 45 451 95 c 1xbe
192 30 m 0x7e
 235 30 290 68 305 137 c 1
 305 217 l 1
 180 215 119 200 119 122 c 0
 119 59 152 30 192 30 c 0x7e
EndSplineSet
EndChar

StartChar: adieresis
Encoding: 387 228 131
Width: 482
GlyphClass: 2
Flags: MW
HStem: -10 31<403.5 420> -10 40<172 188> 217 27<305 305> 410 25<168.5 243.5> 521 100<136.5 164.5 319 347>
VStem: 35 84<90.5 153> 100 100<556.5 585> 283 100<556.5 585> 305 80<137 217 217 217 244 284> 451 26<94 95>
LayerCount: 2
Back
Fore
SplineSet
151 521 m 0xbb40
 122 521 100 542 100 571 c 0
 100 599 122 621 151 621 c 0
 178 621 200 599 200 571 c 0
 200 542 178 521 151 521 c 0xbb40
333 521 m 0
 305 521 283 542 283 571 c 0
 283 599 305 621 333 621 c 0
 361 621 383 599 383 571 c 0
 383 542 361 521 333 521 c 0
451 95 m 1
 477 94 l 1
 474 26 449 -10 391 -10 c 0xbcc0
 345 -10 314 17 306 83 c 1
 281 21 217 -10 159 -10 c 0x7cc0
 94 -10 35 28 35 105 c 0
 35 201 113 240 305 244 c 1
 305 307 l 2
 305 377 274 410 213 410 c 0
 121 410 163 312 101 312 c 0
 74 312 59 330 59 349 c 0
 59 390 113 435 224 435 c 0
 333 435 385 386 385 284 c 2
 385 73 l 2xbcc0
 385 40 395 21 412 21 c 0
 433 21 447 45 451 95 c 1
192 30 m 0x7cc0
 235 30 290 68 305 137 c 1
 305 217 l 1
 180 215 119 200 119 122 c 0
 119 59 152 30 192 30 c 0x7cc0
EndSplineSet
EndChar

StartChar: agrave
Encoding: 388 224 132
Width: 482
GlyphClass: 2
Flags: MW
HStem: -10 31<403.5 420> -10 40<172 188> 217 27<305 305> 410 25<168.5 243.5>
VStem: 35 84<90.5 153> 305 80<137 217 217 217 244 284> 451 26<94 95>
LayerCount: 2
Back
Fore
SplineSet
310 483 m 1x7e
 253 529 187 558 162 583 c 0
 154 591 149 601 149 611 c 0
 149 634 172 656 195 656 c 0
 205 656 215 652 224 643 c 0
 248 619 277 553 326 500 c 1
 310 483 l 1x7e
451 95 m 1xbe
 477 94 l 1
 474 26 449 -10 391 -10 c 0xbe
 345 -10 314 17 306 83 c 1
 281 21 217 -10 159 -10 c 0x7e
 94 -10 35 28 35 105 c 0
 35 201 113 240 305 244 c 1
 305 307 l 2
 305 377 274 410 213 410 c 0
 121 410 163 312 101 312 c 0
 74 312 59 330 59 349 c 0
 59 390 113 435 224 435 c 0
 333 435 385 386 385 284 c 2
 385 73 l 2
 385 40 395 21 412 21 c 0
 433 21 447 45 451 95 c 1xbe
192 30 m 0x7e
 235 30 290 68 305 137 c 1
 305 217 l 1
 180 215 119 200 119 122 c 0
 119 59 152 30 192 30 c 0x7e
EndSplineSet
EndChar

StartChar: amacron
Encoding: 389 257 133
Width: 482
GlyphClass: 2
Flags: MW
HStem: -10 31<403.5 420> -10 40<172 188> 217 27<305 305> 410 25<168.5 243.5> 540 50<93 393 93 393>
VStem: 35 84<90.5 153> 305 80<137 217 217 217 244 284> 451 26<94 95>
LayerCount: 2
Back
Fore
SplineSet
393 590 m 1x7f
 393 540 l 1
 93 540 l 1
 93 590 l 1
 393 590 l 1x7f
451 95 m 1xbf
 477 94 l 1
 474 26 449 -10 391 -10 c 0xbf
 345 -10 314 17 306 83 c 1
 281 21 217 -10 159 -10 c 0x7f
 94 -10 35 28 35 105 c 0
 35 201 113 240 305 244 c 1
 305 307 l 2
 305 377 274 410 213 410 c 0
 121 410 163 312 101 312 c 0
 74 312 59 330 59 349 c 0
 59 390 113 435 224 435 c 0
 333 435 385 386 385 284 c 2
 385 73 l 2
 385 40 395 21 412 21 c 0
 433 21 447 45 451 95 c 1xbf
192 30 m 0x7f
 235 30 290 68 305 137 c 1
 305 217 l 1
 180 215 119 200 119 122 c 0
 119 59 152 30 192 30 c 0x7f
EndSplineSet
EndChar

StartChar: aogonek
Encoding: 390 261 134
Width: 482
GlyphClass: 2
Flags: MW
HStem: -191 29<389.5 395.5> -10 31 -10 40<172 188> 0 8 217 27<305 305> 410 25<168.5 243.5>
VStem: 35 84<90.5 153> 284 76<-128.5 -97.5> 305 80<137 217 217 217 244 284> 451 26<94 95>
LayerCount: 2
Back
Fore
SplineSet
402 -162 m 0x9f40
 418 -162 438 -155 457 -139 c 1
 469 -154 l 1
 444 -180 411 -191 380 -191 c 0
 320 -191 284 -157 284 -116 c 0xaf40
 284 -79 314 -37 385 -10 c 1xcec0
 342 -8 314 20 306 83 c 1
 281 21 217 -10 159 -10 c 0xaec0
 94 -10 35 28 35 105 c 0
 35 201 113 240 305 244 c 1
 305 307 l 2
 305 377 274 410 213 410 c 0
 121 410 163 312 101 312 c 0
 74 312 59 330 59 349 c 0
 59 390 113 435 224 435 c 0
 333 435 385 386 385 284 c 2
 385 73 l 2
 385 40 395 21 412 21 c 0
 433 21 447 45 451 95 c 1
 477 94 l 1xcec0
 475 53 466 24 446 7 c 1
 449 8 452 8 455 9 c 2
 456 0 l 1
 389 -26 360 -75 360 -112 c 0
 360 -145 377 -162 402 -162 c 0x9f40
192 30 m 0xaec0
 235 30 290 68 305 137 c 1
 305 217 l 1
 180 215 119 200 119 122 c 0
 119 59 152 30 192 30 c 0xaec0
EndSplineSet
EndChar

StartChar: aring
Encoding: 391 229 135
Width: 482
GlyphClass: 2
Flags: MW
HStem: -10 31<403.5 420> -10 40<172 188> 217 27<305 305> 410 25<168.5 243.5> 482 23<223 260 223 273.5> 642 23<224 261>
VStem: 35 84<90.5 153> 138 54<557 590 557 601> 293 54<558 591> 305 80<137 217 217 217 244 284> 451 26<94 95>
LayerCount: 2
Back
Fore
SplineSet
240 482 m 0xbfa0
 176 482 138 522 138 575 c 0
 138 627 178 665 245 665 c 0
 310 665 347 626 347 576 c 0
 347 523 307 482 240 482 c 0xbfa0
242 642 m 0
 206 642 192 607 192 573 c 0
 192 541 204 505 242 505 c 0
 278 505 293 541 293 575 c 0
 293 607 280 642 242 642 c 0
451 95 m 1
 477 94 l 1
 474 26 449 -10 391 -10 c 0xbe60
 345 -10 314 17 306 83 c 1
 281 21 217 -10 159 -10 c 0x7e60
 94 -10 35 28 35 105 c 0
 35 201 113 240 305 244 c 1
 305 307 l 2
 305 377 274 410 213 410 c 0
 121 410 163 312 101 312 c 0
 74 312 59 330 59 349 c 0
 59 390 113 435 224 435 c 0
 333 435 385 386 385 284 c 2
 385 73 l 2xbe60
 385 40 395 21 412 21 c 0
 433 21 447 45 451 95 c 1
192 30 m 0x7e60
 235 30 290 68 305 137 c 1
 305 217 l 1
 180 215 119 200 119 122 c 0
 119 59 152 30 192 30 c 0x7e60
EndSplineSet
EndChar

StartChar: atilde
Encoding: 392 227 136
Width: 482
GlyphClass: 2
Flags: MW
HStem: -10 31<403.5 420> -10 40<172 188> 217 27<305 305> 410 25<168.5 243.5> 519 55<294 322> 578 55<172 199>
VStem: 35 84<90.5 153> 305 80<137 217 217 217 244 284> 451 26<94 95>
LayerCount: 2
Back
Fore
SplineSet
179 578 m 0x7780
 152 578 134 561 123 521 c 1
 103 526 l 1x7780
 119 605 152 633 192 633 c 0
 249 633 274 574 314 574 c 0
 341 574 360 591 371 631 c 1
 392 626 l 1x7b80
 376 547 342 519 302 519 c 0
 245 519 219 578 179 578 c 0x7780
451 95 m 1xbb80
 477 94 l 1
 474 26 449 -10 391 -10 c 0xbb80
 345 -10 314 17 306 83 c 1
 281 21 217 -10 159 -10 c 0x7b80
 94 -10 35 28 35 105 c 0
 35 201 113 240 305 244 c 1
 305 307 l 2
 305 377 274 410 213 410 c 0
 121 410 163 312 101 312 c 0
 74 312 59 330 59 349 c 0
 59 390 113 435 224 435 c 0
 333 435 385 386 385 284 c 2
 385 73 l 2
 385 40 395 21 412 21 c 0
 433 21 447 45 451 95 c 1xbb80
192 30 m 0x7b80
 235 30 290 68 305 137 c 1
 305 217 l 1
 180 215 119 200 119 122 c 0
 119 59 152 30 192 30 c 0x7b80
EndSplineSet
EndChar

StartChar: ae
Encoding: 393 230 137
Width: 946
GlyphClass: 2
Flags: MW
HStem: -10 28<708.5 773.5> -10 31<403.5 420> -10 40<172 188> 217 27<305 305> 219 27.5 410 25<168.5 243.5 700 762.5>
VStem: 35 84<90.5 153> 305 80<137 217 217 217 244 284> 451 26<94 95> 522 90<220 220 220 248 220 266.5> 827 84<282 336>
AnchorPoint: "Anchor-0" 714 0 basechar 0
LayerCount: 2
Back
Fore
SplineSet
412 21 m 0x57e0
 433 21 447 45 451 95 c 1
 477 94 l 1
 474 26 449 -10 391 -10 c 0x4fe0
 345 -10 314 17 306 83 c 1
 281 21 217 -10 159 -10 c 0x2fe0
 94 -10 35 28 35 105 c 0
 35 201 113 240 305 244 c 1
 305 307 l 2
 305 377 274 410 213 410 c 0
 121 410 163 312 101 312 c 0
 74 312 59 330 59 349 c 0
 59 390 113 435 224 435 c 0
 333 435 385 386 385 284 c 2
 385 73 l 2
 385 40 395 21 412 21 c 0x57e0
748 18 m 0x8fe0
 805 18 854 49 880 105 c 1
 906 100 l 1
 879 29 815 -10 732 -10 c 0
 619 -10 522 68 522 209 c 0
 522 324 586 435 729 435 c 0
 831 435 911 376 911 298 c 0
 911 223 838 216 727 218 c 2
 612 220 l 1
 615 80 669 18 748 18 c 0x8fe0
731 410 m 0
 669 410 616 359 612 248 c 1
 713 245 l 2
 792 243 827 254 827 310 c 0
 827 362 794 410 731 410 c 0
192 30 m 0x37e0
 235 30 290 68 305 137 c 1
 305 217 l 1
 180 215 119 200 119 122 c 0
 119 59 152 30 192 30 c 0x37e0
EndSplineSet
EndChar

StartChar: b
Encoding: 394 98 138
Width: 550
GlyphClass: 2
Flags: MW
HStem: -10 25<278.5 330.5 262.5 355> 0 26<25 49.5 25 165 25 49.5> 395 40<308.5 345> 624 26<25 101 25 181>
VStem: 101 80<319 624 624 624> 420 90<144.5 266.5>
LayerCount: 2
Back
Fore
SplineSet
339 435 m 0xbc
 458 435 510 324 510 218 c 0
 510 66 404 -10 306 -10 c 0
 251 -10 199 14 169 62 c 1xbc
 165 0 l 1
 25 0 l 1
 25 26 l 1
 74 26 101 33 101 78 c 2x7c
 101 624 l 1
 25 624 l 1
 25 650 l 1
 181 650 l 1
 181 319 l 1
 213 406 278 435 339 435 c 0xbc
296 15 m 0
 365 15 420 78 420 211 c 0
 420 322 382 395 308 395 c 0
 228 395 180 308 180 192 c 0
 180 75 229 15 296 15 c 0
EndSplineSet
EndChar

StartChar: c
Encoding: 395 99 139
Width: 449
GlyphClass: 2
Flags: MW
HStem: -10 27<227.5 294.5> 410 25<213 293 178 312>
VStem: 40 90<155 267> 324.36 94.64
AnchorPoint: "Anchor-0" 230 0 basechar 0
LayerCount: 2
Back
Fore
SplineSet
252 435 m 0
 334 435 419 388 419 328 c 0
 419 305 402 285 372 287 c 0
 287 292 366 410 258 410 c 0
 168 410 130 327 130 217 c 0
 130 93 189 17 266 17 c 0
 328 17 379 50 405 106 c 1
 431 100 l 1
 403 29 335 -10 254 -10 c 0
 138 -10 40 69 40 208 c 0
 40 326 104 435 252 435 c 0
EndSplineSet
EndChar

StartChar: cacute
Encoding: 396 263 140
Width: 449
GlyphClass: 2
Flags: MW
HStem: -10 27<227.5 294.5> 410 25<213 293 178 312>
VStem: 40 90<155 267> 324.36 94.64
AnchorPoint: "Anchor-0" 230 0 basechar 0
LayerCount: 2
Back
Fore
SplineSet
187 483 m 1
 171 500 l 1
 220 553 249 619 273 643 c 0
 282 652 292 656 302 656 c 0
 325 656 348 634 348 611 c 0
 348 601 343 591 335 583 c 0
 310 558 244 529 187 483 c 1
252 435 m 0
 334 435 419 388 419 328 c 0
 419 305 402 285 372 287 c 0
 287 292 366 410 258 410 c 0
 168 410 130 327 130 217 c 0
 130 93 189 17 266 17 c 0
 328 17 379 50 405 106 c 1
 431 100 l 1
 403 29 335 -10 254 -10 c 0
 138 -10 40 69 40 208 c 0
 40 326 104 435 252 435 c 0
EndSplineSet
EndChar

StartChar: ccaron
Encoding: 397 269 141
Width: 449
GlyphClass: 2
Flags: MW
HStem: -10 27<227.5 294.5> 410 25<213 293 178 312>
VStem: 40 90<155 267> 324.36 94.64
AnchorPoint: "Anchor-0" 230 0 basechar 0
LayerCount: 2
Back
Fore
SplineSet
246 501 m 0
 204 501 182 548 103 635 c 1
 116 652 l 1
 155 625 211 595 245 577 c 1
 281 595 337 627 374 651 c 1
 387 636 l 1
 309 548 288 501 246 501 c 0
405 106 m 1
 431 100 l 1
 403 29 335 -10 254 -10 c 0
 138 -10 40 69 40 208 c 0
 40 326 104 435 252 435 c 0
 334 435 419 388 419 328 c 0
 419 305 402 285 372 287 c 0
 287 292 366 410 258 410 c 0
 168 410 130 327 130 217 c 0
 130 93 189 17 266 17 c 0
 328 17 379 50 405 106 c 1
EndSplineSet
EndChar

StartChar: ccedilla
Encoding: 398 231 142
Width: 449
GlyphClass: 2
Flags: MW
HStem: -227 25<223 241 213.5 272.5> -77 25<220.5 282> -10 27<249.5 294.5> 410 25<213 293 178 312>
VStem: 40 90<155 267> 284 75<-156 -114> 324.36 94.64
AnchorPoint: "Anchor-0" 230 0 basechar 0
LayerCount: 2
Back
Fore
SplineSet
254 -10 m 0xfc
 245 -10 236 -10 228 -9 c 1
 204 -62 l 1
 220 -55 238 -52 256 -52 c 0
 308 -52 359 -81 359 -136 c 0
 359 -193 302 -227 243 -227 c 0
 203 -227 162 -211 139 -174 c 1
 155 -162 l 1
 175 -189 202 -202 225 -202 c 0
 257 -202 284 -178 284 -134 c 0
 284 -94 259 -77 229 -77 c 0xfc
 212 -77 193 -83 178 -94 c 1
 164 -85 l 1
 204 -5 l 1
 111 15 40 90 40 208 c 0
 40 326 104 435 252 435 c 0
 334 435 419 388 419 328 c 0
 419 305 402 285 372 287 c 0xfa
 287 292 366 410 258 410 c 0
 168 410 130 327 130 217 c 0
 130 93 189 17 266 17 c 0
 328 17 379 50 405 106 c 1
 431 100 l 1
 403 29 335 -10 254 -10 c 0xfc
EndSplineSet
EndChar

StartChar: d
Encoding: 399 100 143
Width: 548
GlyphClass: 2
Flags: MW
HStem: -10 40<205 241> 0 26<449 499 499 508.5 449 523> 410 25<219.5 267 173.5 287.5> 624 26<271 367 271 447>
VStem: 40 90<158.5 259.5> 367 81
LayerCount: 2
Back
Fore
SplineSet
523 0 m 1x7c
 376 0 l 1x7c
 368 103 l 1
 335 19 271 -10 211 -10 c 0xbc
 98 -10 40 95 40 202 c 0
 40 317 107 435 240 435 c 0
 294 435 337 416 367 383 c 1
 367 624 l 1
 271 624 l 1
 271 650 l 1
 447 650 l 1
 449 26 l 1
 499 26 l 2
 518 26 523 23 523 0 c 1x7c
242 30 m 0xbc
 322 30 370 117 370 233 c 0
 370 350 321 410 254 410 c 0
 185 410 130 347 130 214 c 0
 130 103 168 30 242 30 c 0xbc
EndSplineSet
EndChar

StartChar: dcaron
Encoding: 401 271 145
Width: 552
GlyphClass: 2
Flags: MW
HStem: -10 40<205 241> 0 26<449 499 499 508.5 449 523> 410 25<219.5 267 173.5 287.5> 624 26<271 367 271 447>
VStem: 40 90<158.5 259.5> 367 81 548 44<528.5 610>
LayerCount: 2
Back
Fore
SplineSet
531 662 m 0x7e
 571 662 592 631 592 589 c 0
 592 544 568 488 523 442 c 1
 499 458 l 1
 526 486 548 519 548 538 c 0
 548 548 538 553 523 556 c 0
 500 561 478 578 478 607 c 0
 478 638 502 662 531 662 c 0x7e
499 26 m 2
 518 26 523 23 523 0 c 1
 376 0 l 1x7e
 368 103 l 1
 335 19 271 -10 211 -10 c 0xbe
 98 -10 40 95 40 202 c 0
 40 317 107 435 240 435 c 0
 294 435 337 416 367 383 c 1
 367 624 l 1
 271 624 l 1
 271 650 l 1
 447 650 l 1
 449 26 l 1
 499 26 l 2
242 30 m 0xbe
 322 30 370 117 370 233 c 0
 370 350 321 410 254 410 c 0
 185 410 130 347 130 214 c 0
 130 103 168 30 242 30 c 0xbe
EndSplineSet
EndChar

StartChar: dcroat
Encoding: 402 273 146
Width: 548
GlyphClass: 2
Flags: MW
HStem: -10 40<205 241> 0 26<449 499 499 508.5 449 523> 410 25<219.5 267 173.5 287.5> 509 33<183 367 183 367 447 523> 624 26<271 367 271 447>
VStem: 40 90<158.5 259.5> 367 81
LayerCount: 2
Back
Fore
SplineSet
523 542 m 1x7e
 523 509 l 1
 447 509 l 1
 449 26 l 1
 499 26 l 2
 518 26 523 23 523 0 c 1
 376 0 l 1x7e
 368 103 l 1
 335 19 271 -10 211 -10 c 0xbe
 98 -10 40 95 40 202 c 0
 40 317 107 435 240 435 c 0
 294 435 337 416 367 383 c 1
 367 509 l 1
 183 509 l 1
 183 542 l 1
 367 542 l 1
 367 624 l 1
 271 624 l 1
 271 650 l 1
 447 650 l 1
 447 542 l 1
 523 542 l 1x7e
242 30 m 0xbe
 322 30 370 117 370 233 c 0
 370 350 321 410 254 410 c 0
 185 410 130 347 130 214 c 0
 130 103 168 30 242 30 c 0xbe
EndSplineSet
EndChar

StartChar: e
Encoding: 403 101 147
Width: 464
GlyphClass: 2
Flags: MW
HStem: -10 28<226.5 291.5> 219 27.5 410 25<218 280.5>
VStem: 40 90<220 220 220 248 220 266.5> 345 84<282 336>
AnchorPoint: "Anchor-0" 232 0 basechar 0
LayerCount: 2
Back
Fore
SplineSet
266 18 m 0
 323 18 372 49 398 105 c 1
 424 100 l 1
 397 29 333 -10 250 -10 c 0
 137 -10 40 68 40 209 c 0
 40 324 104 435 247 435 c 0
 349 435 429 376 429 298 c 0
 429 223 356 216 245 218 c 2
 130 220 l 1
 133 80 187 18 266 18 c 0
249 410 m 0
 187 410 134 359 130 248 c 1
 231 245 l 2
 310 243 345 254 345 310 c 0
 345 362 312 410 249 410 c 0
EndSplineSet
EndChar

StartChar: eacute
Encoding: 404 233 148
Width: 464
GlyphClass: 2
Flags: MW
HStem: -10 28<226.5 291.5> 219 27.5 410 25<218 280.5>
VStem: 40 90<220 220 220 248 220 266.5> 345 84<282 336>
AnchorPoint: "Anchor-0" 232 0 basechar 0
LayerCount: 2
Back
Fore
SplineSet
322 583 m 0
 297 558 231 529 174 483 c 1
 158 500 l 1
 207 553 236 619 260 643 c 0
 269 652 279 656 289 656 c 0
 312 656 335 634 335 611 c 0
 335 601 330 591 322 583 c 0
266 18 m 0
 323 18 372 49 398 105 c 1
 424 100 l 1
 397 29 333 -10 250 -10 c 0
 137 -10 40 68 40 209 c 0
 40 324 104 435 247 435 c 0
 349 435 429 376 429 298 c 0
 429 223 356 216 245 218 c 2
 130 220 l 1
 133 80 187 18 266 18 c 0
249 410 m 0
 187 410 134 359 130 248 c 1
 231 245 l 2
 310 243 345 254 345 310 c 0
 345 362 312 410 249 410 c 0
EndSplineSet
EndChar

StartChar: ecaron
Encoding: 405 283 149
Width: 464
GlyphClass: 2
Flags: MW
HStem: -10 28<226.5 291.5> 219 27.5 410 25<218 280.5>
VStem: 40 90<220 220 220 248 220 266.5> 345 84<282 336>
AnchorPoint: "Anchor-0" 232 0 basechar 0
LayerCount: 2
Back
Fore
SplineSet
233 501 m 0
 191 501 169 548 90 635 c 1
 103 652 l 1
 142 625 198 595 232 577 c 1
 268 595 324 627 361 651 c 1
 374 636 l 1
 296 548 275 501 233 501 c 0
266 18 m 0
 323 18 372 49 398 105 c 1
 424 100 l 1
 397 29 333 -10 250 -10 c 0
 137 -10 40 68 40 209 c 0
 40 324 104 435 247 435 c 0
 349 435 429 376 429 298 c 0
 429 223 356 216 245 218 c 2
 130 220 l 1
 133 80 187 18 266 18 c 0
249 410 m 0
 187 410 134 359 130 248 c 1
 231 245 l 2
 310 243 345 254 345 310 c 0
 345 362 312 410 249 410 c 0
EndSplineSet
EndChar

StartChar: ecircumflex
Encoding: 406 234 150
Width: 464
GlyphClass: 2
Flags: MW
HStem: -10 28<226.5 291.5> 219 27.5 410 25<218 280.5>
VStem: 40 90<220 220 220 248 220 266.5> 345 84<282 336>
AnchorPoint: "Anchor-0" 232 0 basechar 0
LayerCount: 2
Back
Fore
SplineSet
233 570 m 1
 201 554 152 527 111 500 c 1
 99 514 l 1
 173 598 191 643 231 643 c 0
 271 643 290 598 365 515 c 1
 353 499 l 1
 317 524 265 553 233 570 c 1
266 18 m 0
 323 18 372 49 398 105 c 1
 424 100 l 1
 397 29 333 -10 250 -10 c 0
 137 -10 40 68 40 209 c 0
 40 324 104 435 247 435 c 0
 349 435 429 376 429 298 c 0
 429 223 356 216 245 218 c 2
 130 220 l 1
 133 80 187 18 266 18 c 0
249 410 m 0
 187 410 134 359 130 248 c 1
 231 245 l 2
 310 243 345 254 345 310 c 0
 345 362 312 410 249 410 c 0
EndSplineSet
EndChar

StartChar: edieresis
Encoding: 407 235 151
Width: 464
GlyphClass: 2
Flags: MW
HStem: -10 28<226.5 291.5> 219 27.5 410 25<218 280.5> 521 100<127.5 155.5 310 338>
VStem: 40 90<220 220 220 248 220 266.5> 91 100<556.5 585> 274 100<556.5 585> 345 84<282 336>
AnchorPoint: "Anchor-0" 232 0 basechar 0
LayerCount: 2
Back
Fore
SplineSet
142 521 m 0xf6
 113 521 91 542 91 571 c 0
 91 599 113 621 142 621 c 0
 169 621 191 599 191 571 c 0
 191 542 169 521 142 521 c 0xf6
324 521 m 0
 296 521 274 542 274 571 c 0
 274 599 296 621 324 621 c 0
 352 621 374 599 374 571 c 0
 374 542 352 521 324 521 c 0
266 18 m 0
 323 18 372 49 398 105 c 1
 424 100 l 1
 397 29 333 -10 250 -10 c 0
 137 -10 40 68 40 209 c 0
 40 324 104 435 247 435 c 0
 349 435 429 376 429 298 c 0
 429 223 356 216 245 218 c 2
 130 220 l 1xe9
 133 80 187 18 266 18 c 0
249 410 m 0xe9
 187 410 134 359 130 248 c 1
 231 245 l 2
 310 243 345 254 345 310 c 0
 345 362 312 410 249 410 c 0xe9
EndSplineSet
EndChar

StartChar: edotaccent
Encoding: 408 279 152
Width: 464
GlyphClass: 2
Flags: MW
HStem: -10 28<226.5 291.5> 219 27.5 410 25<218 280.5> 516 110<216.5 247>
VStem: 40 90<220 220 220 248 220 266.5> 177 109<555.5 586> 345 84<282 336>
AnchorPoint: "Anchor-0" 232 0 basechar 0
LayerCount: 2
Back
Fore
SplineSet
232 516 m 0
 201 516 177 540 177 571 c 0
 177 601 201 626 232 626 c 0
 262 626 286 601 286 571 c 0
 286 540 262 516 232 516 c 0
266 18 m 0
 323 18 372 49 398 105 c 1
 424 100 l 1
 397 29 333 -10 250 -10 c 0
 137 -10 40 68 40 209 c 0
 40 324 104 435 247 435 c 0
 349 435 429 376 429 298 c 0
 429 223 356 216 245 218 c 2
 130 220 l 1
 133 80 187 18 266 18 c 0
249 410 m 0
 187 410 134 359 130 248 c 1
 231 245 l 2
 310 243 345 254 345 310 c 0
 345 362 312 410 249 410 c 0
EndSplineSet
EndChar

StartChar: egrave
Encoding: 409 232 153
Width: 464
GlyphClass: 2
Flags: MW
HStem: -10 28<226.5 291.5> 219 27.5 410 25<218 280.5>
VStem: 40 90<220 220 220 248 220 266.5> 345 84<282 336>
AnchorPoint: "Anchor-0" 232 0 basechar 0
LayerCount: 2
Back
Fore
SplineSet
301 483 m 1
 244 529 178 558 153 583 c 0
 145 591 140 601 140 611 c 0
 140 634 163 656 186 656 c 0
 196 656 206 652 215 643 c 0
 239 619 268 553 317 500 c 1
 301 483 l 1
266 18 m 0
 323 18 372 49 398 105 c 1
 424 100 l 1
 397 29 333 -10 250 -10 c 0
 137 -10 40 68 40 209 c 0
 40 324 104 435 247 435 c 0
 349 435 429 376 429 298 c 0
 429 223 356 216 245 218 c 2
 130 220 l 1
 133 80 187 18 266 18 c 0
249 410 m 0
 187 410 134 359 130 248 c 1
 231 245 l 2
 310 243 345 254 345 310 c 0
 345 362 312 410 249 410 c 0
EndSplineSet
EndChar

StartChar: emacron
Encoding: 410 275 154
Width: 464
GlyphClass: 2
Flags: MW
HStem: -10 28<226.5 291.5> 219 27.5 410 25<218 280.5> 540 50<84 384 84 384>
VStem: 40 90<220 220 220 248 220 266.5> 345 84<282 336>
AnchorPoint: "Anchor-0" 232 0 basechar 0
LayerCount: 2
Back
Fore
SplineSet
384 590 m 1
 384 540 l 1
 84 540 l 1
 84 590 l 1
 384 590 l 1
266 18 m 0
 323 18 372 49 398 105 c 1
 424 100 l 1
 397 29 333 -10 250 -10 c 0
 137 -10 40 68 40 209 c 0
 40 324 104 435 247 435 c 0
 349 435 429 376 429 298 c 0
 429 223 356 216 245 218 c 2
 130 220 l 1
 133 80 187 18 266 18 c 0
249 410 m 0
 187 410 134 359 130 248 c 1
 231 245 l 2
 310 243 345 254 345 310 c 0
 345 362 312 410 249 410 c 0
EndSplineSet
EndChar

StartChar: eogonek
Encoding: 411 281 155
Width: 464
GlyphClass: 2
Flags: MW
HStem: -191 29<311.5 317.5> -10 28<226.5 291.5> 219 27.5 410 25<218 280.5>
VStem: 40 90<220 220 220 248 220 266.5> 206 76<-128.5 -93.5 -128.5 -92.5> 345 84<282 336>
AnchorPoint: "Anchor-0" 232 0 basechar 0
LayerCount: 2
Back
Fore
SplineSet
266 18 m 0
 323 18 372 49 398 105 c 1
 424 100 l 1
 397 29 333 -10 250 -10 c 0
 137 -10 40 68 40 209 c 0
 40 324 104 435 247 435 c 0
 349 435 429 376 429 298 c 0
 429 223 356 216 245 218 c 2
 130 220 l 1
 133 80 187 18 266 18 c 0
249 410 m 0
 187 410 134 359 130 248 c 1
 231 245 l 2
 310 243 345 254 345 310 c 0
 345 362 312 410 249 410 c 0
324 -162 m 0
 340 -162 360 -155 379 -139 c 1
 391 -154 l 1
 366 -180 333 -191 302 -191 c 0
 242 -191 206 -157 206 -116 c 0
 206 -69 255 -13 377 9 c 1
 378 0 l 1
 311 -26 282 -75 282 -112 c 0
 282 -145 299 -162 324 -162 c 0
EndSplineSet
EndChar

StartChar: f
Encoding: 412 102 156
Width: 309
GlyphClass: 2
Flags: MW
HStem: 0 26<30 51 186 252 252 261.5 30 51> 399 26<35 106 35 106 186 296> 625 25<236.5 284.5>
VStem: 106 80<78 399 26 399 425 431 26 441 26 519.5>
LayerCount: 2
Back
Fore
SplineSet
277 650 m 0
 345 650 394 618 394 581 c 0
 394 561 379 544 352 544 c 0
 305 544 313 625 256 625 c 0
 210 625 186 586 186 431 c 2
 186 425 l 1
 296 425 l 1
 296 399 l 1
 186 399 l 1
 186 26 l 1
 252 26 l 2
 271 26 276 22 276 0 c 1
 30 0 l 1
 30 26 l 1
 72 26 106 36 106 78 c 2
 106 399 l 1
 35 399 l 1
 35 425 l 1
 106 425 l 1
 106 441 l 2
 106 598 196 650 277 650 c 0
EndSplineSet
EndChar

StartChar: g
Encoding: 413 103 157
Width: 491
GlyphClass: 2
Flags: MW
HStem: -190 27<197.5 284.5 197.5 317.5> -37 80 116 24 410 25<203 258.5 194 277> 434 55<409.5 414.5>
VStem: 60 85<246.5 314.5 239.5 326> 65 38<70.5 80.5> 75 36<-105.5 -79> 334 85<239.5 303 227 314.5> 410 48<-95 -70>
LayerCount: 2
Back
Fore
SplineSet
403 434 m 0xec40
 384 434 367 419 361 397 c 1
 396 370 419 329 419 277 c 0
 419 177 333 115 239 115 c 2
 237 115 l 1
 151 116 l 2
 117 116 103 99 103 82 c 0
 103 59 119 46 150 45 c 2xea80
 332 41 l 2
 420 39 458 -1 458 -63 c 0
 458 -127 394 -190 241 -190 c 0
 130 -190 75 -143 75 -90 c 0xf140
 75 -68 85 -43 107 -20 c 1
 78 -1 65 31 65 60 c 0xf240
 65 101 89 141 153 141 c 1
 104 169 60 217 60 276 c 0
 60 376 147 435 241 435 c 0xf440
 276 435 310 427 338 412 c 1
 353 458 391 489 428 489 c 0
 468 489 486 464 486 442 c 0
 486 426 475 411 455 411 c 0
 433 411 426 434 403 434 c 0xec40
240 140 m 0xf480
 314 140 334 202 334 277 c 0
 334 352 314 410 240 410 c 0
 166 410 145 352 145 277 c 0
 145 202 166 140 240 140 c 0xf480
166 -37 m 2
 153 -37 142 -35 131 -32 c 1
 118 -49 111 -68 111 -84 c 0
 111 -127 154 -163 241 -163 c 0
 328 -163 410 -138 410 -90 c 0
 410 -50 380 -40 320 -39 c 2xf140
 166 -37 l 2
EndSplineSet
EndChar

StartChar: gbreve
Encoding: 414 287 158
Width: 491
GlyphClass: 2
Flags: MW
HStem: -190 27<197.5 284.5 197.5 317.5> -37 80 116 24 410 25<203 258.5 194 277> 434 55<409.5 414.5> 510 64<231.5 277.5 231.5 297.5>
VStem: 60 85<246.5 314.5 239.5 326> 65 38<70.5 80.5> 75 36<-105.5 -79> 130 20<639 639> 334 85<239.5 303 227 314.5> 354 21<606 639> 410 48<-95 -70>
LayerCount: 2
Back
Fore
SplineSet
253 510 m 0xf458
 165 510 130 573 130 639 c 1
 150 639 l 1
 161 586 207 574 256 574 c 0
 299 574 343 583 354 639 c 1
 375 639 l 1
 375 573 342 510 253 510 c 0xf458
403 434 m 0xee18
 384 434 367 419 361 397 c 1
 396 370 419 329 419 277 c 0
 419 177 333 115 239 115 c 2
 237 115 l 1
 151 116 l 2
 117 116 103 99 103 82 c 0
 103 59 119 46 150 45 c 2xed20
 332 41 l 2
 420 39 458 -1 458 -63 c 0
 458 -127 394 -190 241 -190 c 0
 130 -190 75 -143 75 -90 c 0xf498
 75 -68 85 -43 107 -20 c 1
 78 -1 65 31 65 60 c 0xf518
 65 101 89 141 153 141 c 1
 104 169 60 217 60 276 c 0
 60 376 147 435 241 435 c 0xf618
 276 435 310 427 338 412 c 1
 353 458 391 489 428 489 c 0
 468 489 486 464 486 442 c 0
 486 426 475 411 455 411 c 0
 433 411 426 434 403 434 c 0xee18
240 140 m 0xf620
 314 140 334 202 334 277 c 0
 334 352 314 410 240 410 c 0
 166 410 145 352 145 277 c 0
 145 202 166 140 240 140 c 0xf620
166 -37 m 2
 153 -37 142 -35 131 -32 c 1
 118 -49 111 -68 111 -84 c 0
 111 -127 154 -163 241 -163 c 0
 328 -163 410 -138 410 -90 c 0
 410 -50 380 -40 320 -39 c 2xf498
 166 -37 l 2
EndSplineSet
EndChar

StartChar: h
Encoding: 415 104 159
Width: 571
GlyphClass: 2
Flags: MW
HStem: 0 26<30 51 187 233 233 242.5 30 51 326 345 470 521 521 531> 390 45<307.5 323> 624 26<30 107 30 187>
VStem: 107 80<78 241 329 624 624 624> 390 80<78 273 26 312>
LayerCount: 2
Back
Fore
SplineSet
326 26 m 1
 364 26 390 38 390 78 c 2
 390 273 l 2
 390 351 347 390 299 390 c 0
 248 390 187 342 187 241 c 2
 187 26 l 1
 233 26 l 2
 252 26 257 22 257 0 c 1
 30 0 l 1
 30 26 l 1
 72 26 107 36 107 78 c 2
 107 624 l 1
 30 624 l 1
 30 650 l 1
 187 650 l 1
 187 329 l 1
 213 400 277 435 338 435 c 0
 408 435 470 383 470 273 c 2
 470 26 l 1
 521 26 l 2
 541 26 546 22 546 0 c 1
 326 0 l 1
 326 26 l 1
EndSplineSet
EndChar

StartChar: i
Encoding: 416 105 160
Width: 287
GlyphClass: 2
Flags: MW
HStem: 0 26<30 51 186 238 238 247.5 30 51> 399 26<30 106 30 186> 516 110<126.5 157>
VStem: 87 109<555.5 586> 106 80<78 399 399 399>
LayerCount: 2
Back
Fore
SplineSet
142 516 m 0xf0
 111 516 87 540 87 571 c 0
 87 601 111 626 142 626 c 0
 172 626 196 601 196 571 c 0
 196 540 172 516 142 516 c 0xf0
262 0 m 1xc8
 30 0 l 1
 30 26 l 1
 72 26 106 36 106 78 c 2
 106 399 l 1
 30 399 l 1
 30 425 l 1
 186 425 l 1
 186 26 l 1
 238 26 l 2
 257 26 262 22 262 0 c 1xc8
EndSplineSet
EndChar

StartChar: dotlessi
Encoding: 417 305 161
Width: 287
GlyphClass: 2
Flags: MW
HStem: 0 26<30 51 186 238 238 247.5 30 51> 399 26<30 106 30 186>
VStem: 106 80<78 399 399 399>
LayerCount: 2
Back
Fore
SplineSet
262 0 m 1
 30 0 l 1
 30 26 l 1
 72 26 106 36 106 78 c 2
 106 399 l 1
 30 399 l 1
 30 425 l 1
 186 425 l 1
 186 26 l 1
 238 26 l 2
 257 26 262 22 262 0 c 1
EndSplineSet
EndChar

StartChar: iacute
Encoding: 418 237 162
Width: 287
GlyphClass: 2
Flags: MW
HStem: 0 26<30 51 186 238 238 247.5 30 51> 399 26<30 106 30 186>
VStem: 106 80<78 399 399 399>
LayerCount: 2
Back
Fore
SplineSet
86 483 m 1
 70 500 l 1
 119 553 148 619 172 643 c 0
 181 652 191 656 201 656 c 0
 224 656 247 634 247 611 c 0
 247 601 242 591 234 583 c 0
 209 558 143 529 86 483 c 1
262 0 m 1
 30 0 l 1
 30 26 l 1
 72 26 106 36 106 78 c 2
 106 399 l 1
 30 399 l 1
 30 425 l 1
 186 425 l 1
 186 26 l 1
 238 26 l 2
 257 26 262 22 262 0 c 1
EndSplineSet
EndChar

StartChar: icircumflex
Encoding: 419 238 163
Width: 287
GlyphClass: 2
Flags: MW
HStem: 0 26<30 51 186 238 238 247.5 30 51> 399 26<30 106 30 186>
VStem: 106 80<78 399 399 399>
LayerCount: 2
Back
Fore
SplineSet
143 643 m 0
 183 643 202 598 277 515 c 1
 265 499 l 1
 229 524 177 553 145 570 c 1
 113 554 64 527 23 500 c 1
 11 514 l 1
 85 598 103 643 143 643 c 0
238 26 m 2
 257 26 262 22 262 0 c 1
 30 0 l 1
 30 26 l 1
 72 26 106 36 106 78 c 2
 106 399 l 1
 30 399 l 1
 30 425 l 1
 186 425 l 1
 186 26 l 1
 238 26 l 2
EndSplineSet
EndChar

StartChar: idieresis
Encoding: 420 239 164
Width: 287
GlyphClass: 2
Flags: MW
HStem: 0 26<30 51 186 238 238 247.5 30 51> 399 26<30 106 30 186> 521 100<49.5 77.5 212 240>
VStem: 13 100<556.5 585> 106 80<78 399 399 399> 176 100<556.5 585>
LayerCount: 2
Back
Fore
SplineSet
64 521 m 0xf4
 35 521 13 542 13 571 c 0
 13 599 35 621 64 621 c 0
 91 621 113 599 113 571 c 0
 113 542 91 521 64 521 c 0xf4
226 521 m 0
 198 521 176 542 176 571 c 0
 176 599 198 621 226 621 c 0
 254 621 276 599 276 571 c 0
 276 542 254 521 226 521 c 0
262 0 m 1xc8
 30 0 l 1
 30 26 l 1
 72 26 106 36 106 78 c 2
 106 399 l 1
 30 399 l 1
 30 425 l 1
 186 425 l 1
 186 26 l 1
 238 26 l 2
 257 26 262 22 262 0 c 1xc8
EndSplineSet
EndChar

StartChar: igrave
Encoding: 421 236 165
Width: 287
GlyphClass: 2
Flags: MW
HStem: 0 26<30 51 186 238 238 247.5 30 51> 399 26<30 106 30 186>
VStem: 106 80<78 399 399 399>
LayerCount: 2
Back
Fore
SplineSet
213 483 m 1
 156 529 90 558 65 583 c 0
 57 591 52 601 52 611 c 0
 52 634 75 656 98 656 c 0
 108 656 118 652 127 643 c 0
 151 619 180 553 229 500 c 1
 213 483 l 1
262 0 m 1
 30 0 l 1
 30 26 l 1
 72 26 106 36 106 78 c 2
 106 399 l 1
 30 399 l 1
 30 425 l 1
 186 425 l 1
 186 26 l 1
 238 26 l 2
 257 26 262 22 262 0 c 1
EndSplineSet
EndChar

StartChar: imacron
Encoding: 422 299 166
Width: 287
GlyphClass: 2
Flags: MW
HStem: 0 26<30 51 186 238 238 247.5 30 51> 399 26<30 106 30 186> 540 50<26 266 26 266>
VStem: 106 80<78 399 399 399>
LayerCount: 2
Back
Fore
SplineSet
26 590 m 1
 266 590 l 1
 266 540 l 1
 26 540 l 1
 26 590 l 1
262 0 m 1
 30 0 l 1
 30 26 l 1
 72 26 106 36 106 78 c 2
 106 399 l 1
 30 399 l 1
 30 425 l 1
 186 425 l 1
 186 26 l 1
 238 26 l 2
 257 26 262 22 262 0 c 1
EndSplineSet
EndChar

StartChar: iogonek
Encoding: 423 303 167
Width: 287
GlyphClass: 2
Flags: MW
HStem: -191 29<195.5 201.5> 0 26<30 51 186 221 30 51> 399 26<30 106 30 186> 516 110<128.5 159>
VStem: 89 109<555.5 586> 90 76<-128.5 -95> 106 80<78 399 399 399>
LayerCount: 2
Back
Fore
SplineSet
144 516 m 0xf8
 113 516 89 540 89 571 c 0
 89 601 113 626 144 626 c 0
 174 626 198 601 198 571 c 0
 198 540 174 516 144 516 c 0xf8
263 -139 m 1xf4
 275 -154 l 1
 250 -180 217 -191 186 -191 c 0
 126 -191 90 -157 90 -116 c 0xf4
 90 -74 128 -26 221 0 c 1
 30 0 l 1
 30 26 l 1
 72 26 106 36 106 78 c 2
 106 399 l 1
 30 399 l 1
 30 425 l 1
 186 425 l 1
 186 26 l 1
 238 26 l 2xf2
 257 26 262 22 262 0 c 1
 195 -26 166 -75 166 -112 c 0
 166 -145 183 -162 208 -162 c 0
 224 -162 244 -155 263 -139 c 1xf4
EndSplineSet
EndChar

StartChar: j
Encoding: 424 106 168
Width: 271
GlyphClass: 2
Flags: MW
HStem: -190 22<59 90> 399 26<37 113 37 193> 516 110<133.5 164>
VStem: -27 80.45 94 109<555.5 586> 113 80<-67 -13 -13 -3 -3 399 399 399>
LayerCount: 2
Back
Fore
SplineSet
149 516 m 0xe8
 118 516 94 540 94 571 c 0
 94 601 118 626 149 626 c 0
 179 626 203 601 203 571 c 0
 203 540 179 516 149 516 c 0xe8
193 425 m 1xd4
 193 -13 l 2
 193 -143 121 -190 59 -190 c 0
 13 -190 -27 -164 -27 -129 c 0
 -27 -108 -12 -93 13 -93 c 0
 67 -93 41 -168 77 -168 c 0
 107 -168 112 -121 113 -67 c 2
 113 -3 l 1
 113 399 l 1
 37 399 l 1
 37 425 l 1
 193 425 l 1xd4
EndSplineSet
EndChar

StartChar: k
Encoding: 425 107 169
Width: 510
GlyphClass: 2
Flags: MW
HStem: 0 26<30 51 186 228 228 237.5 30 51 448 486 486 495.5> 399 26<310 383 310 478 434.5 461> 624 26<30 106 30 186>
VStem: 106 80<78 178 26 218 218 624 624 624> 310 168<412.5 425 412.5 425 412.5 425>
AnchorPoint: "Anchor-0" 289 0 basechar 0
LayerCount: 2
Back
Fore
SplineSet
231 220 m 1
 186 178 l 1
 186 26 l 1
 228 26 l 2
 247 26 252 22 252 0 c 1
 30 0 l 1
 30 26 l 1
 72 26 106 36 106 78 c 2
 106 624 l 1
 30 624 l 1
 30 650 l 1
 186 650 l 1
 186 218 l 1
 383 399 l 1
 310 399 l 1
 310 425 l 1
 478 425 l 1
 478 400 476 399 446 399 c 0
 423 399 405 383 382 361 c 2
 288 273 l 1
 448 26 l 1
 486 26 l 2
 505 26 510 23 510 0 c 1
 372 0 l 1
 231 220 l 1
EndSplineSet
EndChar

StartChar: l
Encoding: 426 108 170
Width: 287
GlyphClass: 2
Flags: MW
HStem: 0 26<30 51 186 238 238 247.5 30 51> 624 26<30 106 30 186>
VStem: 106 80<78 624 624 624>
LayerCount: 2
Back
Fore
SplineSet
262 0 m 1
 30 0 l 1
 30 26 l 1
 72 26 106 36 106 78 c 2
 106 624 l 1
 30 624 l 1
 30 650 l 1
 186 650 l 1
 186 26 l 1
 238 26 l 2
 257 26 262 22 262 0 c 1
EndSplineSet
EndChar

StartChar: lacute
Encoding: 427 314 171
Width: 287
GlyphClass: 2
Flags: MW
HStem: 0 26<30 51 186 238 238 247.5 30 51> 624 26<30 106 30 186>
VStem: 106 80<78 624 624 624>
LayerCount: 2
Back
Fore
SplineSet
47 677 m 1
 35 697 l 1
 97 735 142 792 172 809 c 0
 182 815 193 816 202 814 c 0
 225 808 242 781 236 758 c 0
 233 749 225 740 215 735 c 0
 185 717 114 706 47 677 c 1
262 0 m 1
 30 0 l 1
 30 26 l 1
 72 26 106 36 106 78 c 2
 106 624 l 1
 30 624 l 1
 30 650 l 1
 186 650 l 1
 186 26 l 1
 238 26 l 2
 257 26 262 22 262 0 c 1
EndSplineSet
EndChar

StartChar: lcaron
Encoding: 428 318 172
Width: 309
GlyphClass: 2
Flags: MW
HStem: 0 26<30 51 186 238 238 247.5 30 51> 624 26<30 106 30 186>
VStem: 106 80<78 624 624 624> 285 44<528.5 610>
LayerCount: 2
Back
Fore
SplineSet
260 442 m 1
 236 458 l 1
 263 486 285 519 285 538 c 0
 285 548 275 553 260 556 c 0
 237 561 215 578 215 607 c 0
 215 638 239 662 268 662 c 0
 308 662 329 631 329 589 c 0
 329 544 305 488 260 442 c 1
262 0 m 1
 30 0 l 1
 30 26 l 1
 72 26 106 36 106 78 c 2
 106 624 l 1
 30 624 l 1
 30 650 l 1
 186 650 l 1
 186 26 l 1
 238 26 l 2
 257 26 262 22 262 0 c 1
EndSplineSet
EndChar

StartChar: lslash
Encoding: 429 322 173
Width: 287
GlyphClass: 2
Flags: MW
HStem: 0 26<30 51 186 238 238 247.5 30 51> 624 26<30 106 30 186>
VStem: 106 80<78 286 286 286 321 332 366 624 624 624>
LayerCount: 2
Back
Fore
SplineSet
238 26 m 2
 257 26 262 22 262 0 c 1
 30 0 l 1
 30 26 l 1
 72 26 106 36 106 78 c 2
 106 286 l 1
 19 237 l 1
 4 263 l 1
 106 321 l 1
 106 624 l 1
 30 624 l 1
 30 650 l 1
 186 650 l 1
 186 366 l 1
 277 417 l 1
 292 392 l 1
 186 332 l 1
 186 26 l 1
 238 26 l 2
EndSplineSet
EndChar

StartChar: m
Encoding: 430 109 174
Width: 818
GlyphClass: 2
Flags: MW
HStem: 0 26<30 51 187 233 233 242.5 30 51 308 327 452 503 503 513 573 592 717 768 768 778> 393 42<557.5 580.5> 399 26<30 107 30 182>
VStem: 107 80<78 241 26 399> 372 80<78 273 273 282 26 283 26 320.5> 637 80<78 273 26 283 26 320.5>
LayerCount: 2
Back
Fore
SplineSet
573 26 m 1xbc
 611 26 637 38 637 78 c 2
 637 283 l 2
 637 358 601 393 560 393 c 0
 517 393 467 353 452 282 c 1
 452 273 l 1
 452 26 l 1
 503 26 l 2
 523 26 528 22 528 0 c 1
 308 0 l 1
 308 26 l 1
 346 26 372 38 372 78 c 2
 372 283 l 2
 372 358 337 392 297 392 c 0xdc
 247 392 190 337 187 241 c 2
 187 26 l 1
 233 26 l 2
 252 26 257 22 257 0 c 1
 30 0 l 1
 30 26 l 1
 72 26 107 36 107 78 c 2
 107 399 l 1
 30 399 l 1
 30 425 l 1
 182 425 l 1xbc
 186 325 l 1
 215 401 272 435 327 435 c 0
 379 435 429 397 446 326 c 1
 475 401 530 435 585 435 c 0xdc
 656 435 717 378 717 273 c 2
 717 26 l 1
 768 26 l 2
 788 26 793 22 793 0 c 1
 573 0 l 1
 573 26 l 1xbc
EndSplineSet
EndChar

StartChar: n
Encoding: 431 110 175
Width: 571
GlyphClass: 2
Flags: MW
HStem: 0 26<30 51 187 233 233 242.5 30 51 326 345 470 521 521 531> 392 43<303.5 326> 399 26<30 107 30 182>
VStem: 107 80<78 241 26 399> 390 80<78 273 26 283 26 319.5>
AnchorPoint: "Anchor-0" 286 0 basechar 0
LayerCount: 2
Back
Fore
SplineSet
326 26 m 1xb8
 364 26 390 38 390 78 c 2
 390 283 l 2
 390 356 349 392 303 392 c 0xd8
 249 392 190 341 187 241 c 2
 187 26 l 1
 233 26 l 2
 252 26 257 22 257 0 c 1
 30 0 l 1
 30 26 l 1
 72 26 107 36 107 78 c 2
 107 399 l 1
 30 399 l 1
 30 425 l 1
 182 425 l 1xb8
 186 325 l 1
 215 401 275 435 332 435 c 0xd8
 405 435 470 378 470 273 c 2
 470 26 l 1
 521 26 l 2
 541 26 546 22 546 0 c 1
 326 0 l 1
 326 26 l 1xb8
EndSplineSet
EndChar

StartChar: nacute
Encoding: 432 324 176
Width: 571
GlyphClass: 2
Flags: MW
HStem: 0 26<30 51 187 233 233 242.5 30 51 326 345 470 521 521 531> 392 43<303.5 326> 399 26<30 107 30 182>
VStem: 107 80<78 241 26 399> 390 80<78 273 26 283 26 319.5>
AnchorPoint: "Anchor-0" 286 0 basechar 0
LayerCount: 2
Back
Fore
SplineSet
376 583 m 0xb8
 351 558 285 529 228 483 c 1
 212 500 l 1
 261 553 290 619 314 643 c 0
 323 652 333 656 343 656 c 0
 366 656 389 634 389 611 c 0
 389 601 384 591 376 583 c 0xb8
326 26 m 1
 364 26 390 38 390 78 c 2
 390 283 l 2
 390 356 349 392 303 392 c 0xd8
 249 392 190 341 187 241 c 2
 187 26 l 1
 233 26 l 2
 252 26 257 22 257 0 c 1
 30 0 l 1
 30 26 l 1
 72 26 107 36 107 78 c 2
 107 399 l 1
 30 399 l 1
 30 425 l 1
 182 425 l 1xb8
 186 325 l 1
 215 401 275 435 332 435 c 0xd8
 405 435 470 378 470 273 c 2
 470 26 l 1
 521 26 l 2
 541 26 546 22 546 0 c 1
 326 0 l 1
 326 26 l 1
EndSplineSet
EndChar

StartChar: ncaron
Encoding: 433 328 177
Width: 571
GlyphClass: 2
Flags: MW
HStem: 0 26<30 51 187 233 233 242.5 30 51 326 345 470 521 521 531> 392 43<303.5 326> 399 26<30 107 30 182>
VStem: 107 80<78 241 26 399> 390 80<78 273 26 283 26 319.5>
AnchorPoint: "Anchor-0" 286 0 basechar 0
LayerCount: 2
Back
Fore
SplineSet
287 501 m 0xb8
 245 501 223 548 144 635 c 1
 157 652 l 1
 196 625 252 595 286 577 c 1
 322 595 378 627 415 651 c 1
 428 636 l 1
 350 548 329 501 287 501 c 0xb8
326 26 m 1
 364 26 390 38 390 78 c 2
 390 283 l 2
 390 356 349 392 303 392 c 0xd8
 249 392 190 341 187 241 c 2
 187 26 l 1
 233 26 l 2
 252 26 257 22 257 0 c 1
 30 0 l 1
 30 26 l 1
 72 26 107 36 107 78 c 2
 107 399 l 1
 30 399 l 1
 30 425 l 1
 182 425 l 1xb8
 186 325 l 1
 215 401 275 435 332 435 c 0xd8
 405 435 470 378 470 273 c 2
 470 26 l 1
 521 26 l 2
 541 26 546 22 546 0 c 1
 326 0 l 1
 326 26 l 1
EndSplineSet
EndChar

StartChar: ntilde
Encoding: 434 241 178
Width: 571
GlyphClass: 2
Flags: MW
HStem: 0 26<30 51 187 233 233 242.5 30 51 326 345 470 521 521 531> 392 43<303.5 326> 399 26<30 107 30 182> 519 55<339 367> 578 55<217 244>
VStem: 107 80<78 241 26 399> 390 80<78 273 26 283 26 319.5>
AnchorPoint: "Anchor-0" 286 0 basechar 0
LayerCount: 2
Back
Fore
SplineSet
224 578 m 0xae
 197 578 179 561 168 521 c 1
 148 526 l 1xae
 164 605 197 633 237 633 c 0
 294 633 319 574 359 574 c 0
 386 574 405 591 416 631 c 1
 437 626 l 1xb6
 421 547 387 519 347 519 c 0
 290 519 264 578 224 578 c 0xae
326 26 m 1xd6
 364 26 390 38 390 78 c 2
 390 283 l 2
 390 356 349 392 303 392 c 0xd6
 249 392 190 341 187 241 c 2
 187 26 l 1
 233 26 l 2
 252 26 257 22 257 0 c 1
 30 0 l 1
 30 26 l 1
 72 26 107 36 107 78 c 2
 107 399 l 1
 30 399 l 1
 30 425 l 1
 182 425 l 1xb6
 186 325 l 1
 215 401 275 435 332 435 c 0
 405 435 470 378 470 273 c 2
 470 26 l 1
 521 26 l 2
 541 26 546 22 546 0 c 1
 326 0 l 1
 326 26 l 1xd6
EndSplineSet
EndChar

StartChar: o
Encoding: 435 111 179
Width: 513
GlyphClass: 2
Flags: MW
HStem: -10 25<211 305.5 211 310> 410 25<209.5 304>
VStem: 40 95<155 271.5 155 288> 378 95<158 273.5>
LayerCount: 2
Back
Fore
SplineSet
473 213 m 0
 473 69 364 -10 256 -10 c 0
 148 -10 40 68 40 217 c 0
 40 359 151 435 259 435 c 0
 366 435 473 361 473 213 c 0
259 15 m 0
 352 15 378 99 378 217 c 0
 378 330 352 410 256 410 c 0
 163 410 135 330 135 213 c 0
 135 97 163 15 259 15 c 0
EndSplineSet
EndChar

StartChar: oacute
Encoding: 436 243 180
Width: 513
GlyphClass: 2
Flags: MW
HStem: -10 25<211 305.5 211 310> 410 25<209.5 304>
VStem: 40 95<155 271.5 155 288> 378 95<158 273.5>
LayerCount: 2
Back
Fore
SplineSet
204 483 m 1
 188 500 l 1
 237 553 266 619 290 643 c 0
 299 652 309 656 319 656 c 0
 342 656 365 634 365 611 c 0
 365 601 360 591 352 583 c 0
 327 558 261 529 204 483 c 1
473 213 m 0
 473 69 364 -10 256 -10 c 0
 148 -10 40 68 40 217 c 0
 40 359 151 435 259 435 c 0
 366 435 473 361 473 213 c 0
259 15 m 0
 352 15 378 99 378 217 c 0
 378 330 352 410 256 410 c 0
 163 410 135 330 135 213 c 0
 135 97 163 15 259 15 c 0
EndSplineSet
EndChar

StartChar: ocircumflex
Encoding: 437 244 181
Width: 513
GlyphClass: 2
Flags: MW
HStem: -10 25<211 305.5 211 310> 410 25<209.5 304>
VStem: 40 95<155 271.5 155 288> 378 95<158 273.5>
LayerCount: 2
Back
Fore
SplineSet
263 570 m 1
 231 554 182 527 141 500 c 1
 129 514 l 1
 203 598 221 643 261 643 c 0
 301 643 320 598 395 515 c 1
 383 499 l 1
 347 524 295 553 263 570 c 1
259 435 m 0
 366 435 473 361 473 213 c 0
 473 69 364 -10 256 -10 c 0
 148 -10 40 68 40 217 c 0
 40 359 151 435 259 435 c 0
259 15 m 0
 352 15 378 99 378 217 c 0
 378 330 352 410 256 410 c 0
 163 410 135 330 135 213 c 0
 135 97 163 15 259 15 c 0
EndSplineSet
EndChar

StartChar: odieresis
Encoding: 438 246 182
Width: 513
GlyphClass: 2
Flags: MW
HStem: -10 25<211 305.5 211 310> 410 25<209.5 304> 521 100<157.5 185.5 340 368>
VStem: 40 95<155 271.5 155 288> 121 100<556.5 585> 304 100<556.5 585> 378 95<158 273.5>
LayerCount: 2
Back
Fore
SplineSet
172 521 m 0xec
 143 521 121 542 121 571 c 0
 121 599 143 621 172 621 c 0
 199 621 221 599 221 571 c 0
 221 542 199 521 172 521 c 0xec
354 521 m 0
 326 521 304 542 304 571 c 0
 304 599 326 621 354 621 c 0
 382 621 404 599 404 571 c 0
 404 542 382 521 354 521 c 0
473 213 m 0xd2
 473 69 364 -10 256 -10 c 0
 148 -10 40 68 40 217 c 0
 40 359 151 435 259 435 c 0
 366 435 473 361 473 213 c 0xd2
259 15 m 0
 352 15 378 99 378 217 c 0
 378 330 352 410 256 410 c 0
 163 410 135 330 135 213 c 0
 135 97 163 15 259 15 c 0
EndSplineSet
EndChar

StartChar: ograve
Encoding: 439 242 183
Width: 513
GlyphClass: 2
Flags: MW
HStem: -10 25<211 305.5 211 310> 410 25<209.5 304>
VStem: 40 95<155 271.5 155 288> 378 95<158 273.5>
LayerCount: 2
Back
Fore
SplineSet
331 483 m 1
 274 529 208 558 183 583 c 0
 175 591 170 601 170 611 c 0
 170 634 193 656 216 656 c 0
 226 656 236 652 245 643 c 0
 269 619 298 553 347 500 c 1
 331 483 l 1
473 213 m 0
 473 69 364 -10 256 -10 c 0
 148 -10 40 68 40 217 c 0
 40 359 151 435 259 435 c 0
 366 435 473 361 473 213 c 0
259 15 m 0
 352 15 378 99 378 217 c 0
 378 330 352 410 256 410 c 0
 163 410 135 330 135 213 c 0
 135 97 163 15 259 15 c 0
EndSplineSet
EndChar

StartChar: ohungarumlaut
Encoding: 440 337 184
Width: 513
GlyphClass: 2
Flags: MW
HStem: -10 25<211 305.5 211 310> 410 25<209.5 304>
VStem: 40 95<155 271.5 155 288> 378 95<158 273.5>
LayerCount: 2
Back
Fore
SplineSet
149 500 m 1
 134 516 l 1
 181 567 209 632 233 655 c 0
 241 664 251 667 261 667 c 0
 283 667 305 646 305 624 c 0
 305 614 301 604 293 597 c 0
 269 572 204 544 149 500 c 1
292 500 m 1
 281 519 l 1
 337 559 378 617 406 634 c 0
 416 642 426 642 436 640 c 0
 458 636 475 611 470 589 c 0
 468 579 462 570 453 565 c 0
 424 546 355 532 292 500 c 1
473 213 m 0
 473 69 364 -10 256 -10 c 0
 148 -10 40 68 40 217 c 0
 40 359 151 435 259 435 c 0
 366 435 473 361 473 213 c 0
259 15 m 0
 352 15 378 99 378 217 c 0
 378 330 352 410 256 410 c 0
 163 410 135 330 135 213 c 0
 135 97 163 15 259 15 c 0
EndSplineSet
EndChar

StartChar: omacron
Encoding: 441 333 185
Width: 513
GlyphClass: 2
Flags: MW
HStem: -10 25<211 305.5 211 310> 410 25<209.5 304> 540 50<114 414 114 414>
VStem: 40 95<155 271.5 155 288> 378 95<158 273.5>
LayerCount: 2
Back
Fore
SplineSet
114 590 m 1
 414 590 l 1
 414 540 l 1
 114 540 l 1
 114 590 l 1
473 213 m 0
 473 69 364 -10 256 -10 c 0
 148 -10 40 68 40 217 c 0
 40 359 151 435 259 435 c 0
 366 435 473 361 473 213 c 0
259 15 m 0
 352 15 378 99 378 217 c 0
 378 330 352 410 256 410 c 0
 163 410 135 330 135 213 c 0
 135 97 163 15 259 15 c 0
EndSplineSet
EndChar

StartChar: oslash
Encoding: 442 248 186
Width: 513
GlyphClass: 2
Flags: MW
HStem: -10 25<227.5 305.5 227.5 310> 410 25<209.5 281.5>
VStem: 40 95<200 271.5 200 288> 378 95<158 236.5>
LayerCount: 2
Back
Fore
SplineSet
490 441 m 1
 416 369 l 1
 451 333 473 280 473 213 c 0
 473 69 364 -10 256 -10 c 0
 197 -10 139 13 97 58 c 1
 29 -9 l 1
 8 11 l 1
 79 80 l 1
 55 116 40 162 40 217 c 0
 40 359 151 435 259 435 c 0
 308 435 357 420 396 389 c 1
 469 460 l 1
 490 441 l 1
135 213 m 0
 135 187 136 162 140 139 c 1
 356 350 l 1
 338 388 307 410 256 410 c 0
 163 410 135 330 135 213 c 0
378 217 m 0
 378 256 375 291 367 321 c 1
 147 106 l 1
 163 50 196 15 259 15 c 0
 352 15 378 99 378 217 c 0
EndSplineSet
EndChar

StartChar: otilde
Encoding: 443 245 187
Width: 513
GlyphClass: 2
Flags: MW
HStem: -10 25<211 305.5 211 310> 410 25<209.5 304>
VStem: 40 95<155 271.5 155 288> 378 95<158 273.5>
LayerCount: 2
Back
Fore
SplineSet
124 526 m 1
 144 521 l 1
 155 561 173 578 200 578 c 0
 240 578 266 519 323 519 c 0
 363 519 397 547 413 626 c 1
 392 631 l 1
 381 591 362 574 335 574 c 0
 295 574 270 633 213 633 c 0
 173 633 140 605 124 526 c 1
473 213 m 0
 473 69 364 -10 256 -10 c 0
 148 -10 40 68 40 217 c 0
 40 359 151 435 259 435 c 0
 366 435 473 361 473 213 c 0
259 15 m 0
 352 15 378 99 378 217 c 0
 378 330 352 410 256 410 c 0
 163 410 135 330 135 213 c 0
 135 97 163 15 259 15 c 0
EndSplineSet
EndChar

StartChar: oe
Encoding: 444 339 188
Width: 977
GlyphClass: 2
Flags: MW
HStem: -10 25<211 305.5 211 310> -10 28<739.5 804.5> 219 27.5 410 25<209.5 304 731 793.5>
VStem: 40 95<155 271.5 155 288> 378 95<158 273.5> 553 90<220 220 220 248 220 266.5> 858 84<282 336>
AnchorPoint: "Anchor-0" 745 0 basechar 0
LayerCount: 2
Back
Fore
SplineSet
259 435 m 0xbf
 366 435 473 361 473 213 c 0
 473 69 364 -10 256 -10 c 0
 148 -10 40 68 40 217 c 0
 40 359 151 435 259 435 c 0xbf
779 18 m 0x7f
 836 18 885 49 911 105 c 1
 937 100 l 1
 910 29 846 -10 763 -10 c 0
 650 -10 553 68 553 209 c 0
 553 324 617 435 760 435 c 0
 862 435 942 376 942 298 c 0
 942 223 869 216 758 218 c 2
 643 220 l 1
 646 80 700 18 779 18 c 0x7f
259 15 m 0xbf
 352 15 378 99 378 217 c 0
 378 330 352 410 256 410 c 0
 163 410 135 330 135 213 c 0
 135 97 163 15 259 15 c 0xbf
762 410 m 0
 700 410 647 359 643 248 c 1
 744 245 l 2
 823 243 858 254 858 310 c 0
 858 362 825 410 762 410 c 0
EndSplineSet
EndChar

StartChar: p
Encoding: 445 112 189
Width: 550
GlyphClass: 2
Flags: MW
HStem: -190 26<25 49.5 181 253 253 262.5 25 49.5> -10 25<280.5 334 263.5 353> 395 40<306.5 345> 399 26<25 101 25 175>
VStem: 101 80<-112 39 -164 399> 420 90<148 269>
LayerCount: 2
Back
Fore
SplineSet
253 -164 m 2xdc
 272 -164 277 -168 277 -190 c 1
 25 -190 l 1
 25 -164 l 1
 74 -164 101 -157 101 -112 c 2
 101 399 l 1
 25 399 l 1
 25 425 l 1
 175 425 l 1xdc
 180 316 l 1
 209 402 273 435 340 435 c 0xec
 458 435 510 329 510 222 c 0
 510 68 403 -10 303 -10 c 0
 258 -10 213 6 181 39 c 1
 181 -164 l 1
 253 -164 l 2xdc
180 193 m 0
 180 66 231 15 296 15 c 0
 372 15 420 84 420 212 c 0
 420 326 382 395 308 395 c 0xec
 229 395 180 318 180 193 c 0
EndSplineSet
EndChar

StartChar: q
Encoding: 447 113 191
Width: 550
GlyphClass: 2
Flags: MW
HStem: -190 26<272 304.5 449 501 501 510.5 272 304.5> -10 40<208.5 246.5> 399 26<449 525 449 449> 410 25<214.5 266.5 192.5 290.5>
VStem: 40 90<154.5 272 154.5 278> 369 80<-137.5 -113>
LayerCount: 2
Back
Fore
SplineSet
525 399 m 1xec
 449 399 l 1xec
 449 -164 l 1
 501 -164 l 2
 520 -164 525 -167 525 -190 c 1
 272 -190 l 1
 272 -164 l 1
 337 -164 369 -162 369 -113 c 2
 370 97 l 1
 339 25 279 -10 214 -10 c 0
 122 -10 40 60 40 195 c 0
 40 361 143 435 242 435 c 0
 291 435 339 417 374 383 c 1xdc
 379 425 l 1
 525 425 l 1
 525 399 l 1xec
244 30 m 0
 319 30 370 105 370 232 c 0
 370 350 326 410 255 410 c 0xdc
 174 410 130 331 130 213 c 0
 130 96 173 30 244 30 c 0
EndSplineSet
EndChar

StartChar: r
Encoding: 448 114 192
Width: 398
GlyphClass: 2
Flags: MW
HStem: 0 26<30 51 187 255 255 264.5 30 51> 392 39<262.5 347.5> 399 26<30 107 30 182>
VStem: 107 80<78 224 26 399>
AnchorPoint: "Anchor-0" 145 0 basechar 0
LayerCount: 2
Back
Fore
SplineSet
325 431 m 0xd0
 370 431 393 401 393 374 c 0
 393 352 378 333 348 333 c 0
 300 333 305 392 275 392 c 0xd0
 250 392 187 331 187 224 c 2
 187 26 l 1
 255 26 l 2
 274 26 279 22 279 0 c 1
 30 0 l 1
 30 26 l 1
 72 26 107 36 107 78 c 2
 107 399 l 1
 30 399 l 1
 30 425 l 1
 182 425 l 1xb0
 186 327 l 1
 213 398 278 431 325 431 c 0xd0
EndSplineSet
EndChar

StartChar: racute
Encoding: 449 341 193
Width: 398
GlyphClass: 2
Flags: MW
HStem: 0 26<30 51 187 255 255 264.5 30 51> 392 39<262.5 347.5> 399 26<30 107 30 182>
VStem: 107 80<78 224 26 399>
AnchorPoint: "Anchor-0" 145 0 basechar 0
LayerCount: 2
Back
Fore
SplineSet
289 583 m 0xb0
 264 558 198 529 141 483 c 1
 125 500 l 1
 174 553 203 619 227 643 c 0
 236 652 246 656 256 656 c 0
 279 656 302 634 302 611 c 0
 302 601 297 591 289 583 c 0xb0
325 431 m 0xd0
 370 431 393 401 393 374 c 0
 393 352 378 333 348 333 c 0
 300 333 305 392 275 392 c 0xd0
 250 392 187 331 187 224 c 2
 187 26 l 1
 255 26 l 2
 274 26 279 22 279 0 c 1
 30 0 l 1
 30 26 l 1
 72 26 107 36 107 78 c 2
 107 399 l 1
 30 399 l 1
 30 425 l 1
 182 425 l 1xb0
 186 327 l 1
 213 398 278 431 325 431 c 0xd0
EndSplineSet
EndChar

StartChar: rcaron
Encoding: 450 345 194
Width: 398
GlyphClass: 2
Flags: MW
HStem: 0 26<30 51 187 255 255 264.5 30 51> 392 39<262.5 347.5> 399 26<30 107 30 182>
VStem: 107 80<78 224 26 399>
AnchorPoint: "Anchor-0" 145 0 basechar 0
LayerCount: 2
Back
Fore
SplineSet
200 501 m 0xb0
 158 501 136 548 57 635 c 1
 70 652 l 1
 109 625 165 595 199 577 c 1
 235 595 291 627 328 651 c 1
 341 636 l 1
 263 548 242 501 200 501 c 0xb0
325 431 m 0xd0
 370 431 393 401 393 374 c 0
 393 352 378 333 348 333 c 0
 300 333 305 392 275 392 c 0xd0
 250 392 187 331 187 224 c 2
 187 26 l 1
 255 26 l 2
 274 26 279 22 279 0 c 1
 30 0 l 1
 30 26 l 1
 72 26 107 36 107 78 c 2
 107 399 l 1
 30 399 l 1
 30 425 l 1
 182 425 l 1xb0
 186 327 l 1
 213 398 278 431 325 431 c 0xd0
EndSplineSet
EndChar

StartChar: s
Encoding: 451 115 195
Width: 404
GlyphClass: 2
Flags: MW
HStem: -10 451<179.5 345>
VStem: 79 210<13 146.5 133 146.5 67.5 147 67.5 147> 124 194<336 356.5 336 363.5>
AnchorPoint: "Anchor-0" 202 0 basechar 0
LayerCount: 2
Back
Fore
SplineSet
79 133 m 2xc0
 79 147 l 1
 52 147 l 1
 52 -5 l 1
 74 -5 79 0 79 26 c 1xc0
 113 3 155 -10 204 -10 c 0
 285 -10 362 25 362 109 c 0
 362 258 124 230 124 340 c 0
 124 387 168 410 217 410 c 0
 276 410 318 377 318 336 c 1
 320 316 l 1
 345 316 l 1
 345 441 l 1
 325 441 318 432 318 407 c 1xa0
 288 425 244 435 200 435 c 0
 123 435 52 405 52 325 c 0
 52 179 289 201 289 92 c 0
 289 43 242 17 192 17 c 0
 134 17 79 53 79 133 c 2xc0
EndSplineSet
EndChar

StartChar: sacute
Encoding: 452 347 196
Width: 404
GlyphClass: 2
Flags: MW
HStem: -10 666<179.5 270.5>
VStem: 124 194<336 356.5 336 363.5>
AnchorPoint: "Anchor-0" 202 0 basechar 0
LayerCount: 2
Back
Fore
SplineSet
144 483 m 1
 128 500 l 1
 177 553 206 619 230 643 c 0
 239 652 249 656 259 656 c 0
 282 656 305 634 305 611 c 0
 305 601 300 591 292 583 c 0
 267 558 201 529 144 483 c 1
79 133 m 2
 79 147 l 1
 52 147 l 1
 52 -5 l 1
 74 -5 79 0 79 26 c 1
 113 3 155 -10 204 -10 c 0
 285 -10 362 25 362 109 c 0
 362 258 124 230 124 340 c 0
 124 387 168 410 217 410 c 0
 276 410 318 377 318 336 c 1
 320 316 l 1
 345 316 l 1
 345 441 l 1
 325 441 318 432 318 407 c 1
 288 425 244 435 200 435 c 0
 123 435 52 405 52 325 c 0
 52 179 289 201 289 92 c 0
 289 43 242 17 192 17 c 0
 134 17 79 53 79 133 c 2
EndSplineSet
EndChar

StartChar: scaron
Encoding: 453 353 197
Width: 404
GlyphClass: 2
Flags: MW
HStem: -10 27<179.5 217 163 244.5> -5 152<52 63> 410 25<192.5 222 161.5 246.5>
VStem: 52 27<13 26 93 133 133 147> 52 72<285 363.5 285 365> 289 73<67.5 146.5> 318 27<336 356.5 407 419.5>
AnchorPoint: "Anchor-0" 202 0 basechar 0
LayerCount: 2
Back
Fore
SplineSet
203 501 m 0xb2
 161 501 139 548 60 635 c 1
 73 652 l 1
 112 625 168 595 202 577 c 1
 238 595 294 627 331 651 c 1
 344 636 l 1
 266 548 245 501 203 501 c 0xb2
124 340 m 0xac
 124 230 362 258 362 109 c 0
 362 25 285 -10 204 -10 c 0xb4
 155 -10 113 3 79 26 c 1
 79 0 74 -5 52 -5 c 1
 52 147 l 1
 79 147 l 1x72
 79 133 l 2xb2
 79 53 134 17 192 17 c 0
 242 17 289 43 289 92 c 0xac
 289 201 52 179 52 325 c 0
 52 405 123 435 200 435 c 0
 244 435 288 425 318 407 c 1
 318 432 325 441 345 441 c 1
 345 316 l 1
 320 316 l 1
 318 336 l 1xaa
 318 377 276 410 217 410 c 0
 168 410 124 387 124 340 c 0xac
EndSplineSet
EndChar

StartChar: t
Encoding: 455 116 199
Width: 331
GlyphClass: 2
Flags: MW
HStem: -11 30<211 235.5> 399 26<25 96 25 96 176 326>
VStem: 96 80<118 399 425 520 520 520>
AnchorPoint: "Anchor-0" 187 0 basechar 0
LayerCount: 2
Back
Fore
SplineSet
326 399 m 1
 176 399 l 1
 176 96 l 2
 176 44 196 19 226 19 c 0
 255 19 282 44 299 109 c 1
 326 104 l 1
 309 19 260 -11 211 -11 c 0
 153 -11 96 16 96 118 c 2
 96 399 l 1
 25 399 l 1
 25 425 l 1
 96 425 l 1
 96 520 l 1
 176 541 l 1
 176 425 l 1
 326 425 l 1
 326 399 l 1
EndSplineSet
EndChar

StartChar: tcaron
Encoding: 456 357 200
Width: 331
GlyphClass: 2
Flags: MW
HStem: -11 30<211 235.5> 399 26<25 96 25 96 176 326>
VStem: 96 80<118 399 425 520 520 520> 271 44<537.5 619>
AnchorPoint: "Anchor-0" 187 0 basechar 0
LayerCount: 2
Back
Fore
SplineSet
246 565 m 0
 223 570 201 587 201 616 c 0
 201 647 225 671 254 671 c 0
 294 671 315 640 315 598 c 0
 315 553 291 497 246 451 c 1
 222 467 l 1
 249 495 271 528 271 547 c 0
 271 557 261 562 246 565 c 0
326 399 m 1
 176 399 l 1
 176 96 l 2
 176 44 196 19 226 19 c 0
 255 19 282 44 299 109 c 1
 326 104 l 1
 309 19 260 -11 211 -11 c 0
 153 -11 96 16 96 118 c 2
 96 399 l 1
 25 399 l 1
 25 425 l 1
 96 425 l 1
 96 520 l 1
 176 541 l 1
 176 425 l 1
 326 425 l 1
 326 399 l 1
EndSplineSet
EndChar

StartChar: u
Encoding: 457 117 201
Width: 567
GlyphClass: 2
Flags: MW
HStem: -10 43<244.5 269> 0 26<465 518 518 527.5 465 542> 399 26<20 97 20 177 308 385>
VStem: 97 80<162 399 399 399> 385 80<184 399 399 399>
LayerCount: 2
Back
Fore
SplineSet
542 0 m 1x78
 394 0 l 1x78
 387 102 l 1
 358 25 298 -10 240 -10 c 0
 167 -10 97 22 97 162 c 2
 97 399 l 1
 20 399 l 1
 20 425 l 1
 177 425 l 1
 177 147 l 2
 177 64 220 33 269 33 c 0xb8
 323 33 382 84 385 184 c 2
 385 399 l 1
 308 399 l 1
 308 425 l 1
 465 425 l 1
 465 26 l 1
 518 26 l 2
 537 26 542 23 542 0 c 1x78
EndSplineSet
EndChar

StartChar: uacute
Encoding: 458 250 202
Width: 567
GlyphClass: 2
Flags: MW
HStem: -10 43<244.5 269> 0 26<465 518 518 527.5 465 542> 399 26<20 97 20 177 308 385>
VStem: 97 80<162 399 399 399> 385 80<184 399 399 399>
LayerCount: 2
Back
Fore
SplineSet
374 583 m 0x78
 349 558 283 529 226 483 c 1
 210 500 l 1
 259 553 288 619 312 643 c 0
 321 652 331 656 341 656 c 0
 364 656 387 634 387 611 c 0
 387 601 382 591 374 583 c 0x78
542 0 m 1
 394 0 l 1x78
 387 102 l 1
 358 25 298 -10 240 -10 c 0
 167 -10 97 22 97 162 c 2
 97 399 l 1
 20 399 l 1
 20 425 l 1
 177 425 l 1
 177 147 l 2
 177 64 220 33 269 33 c 0xb8
 323 33 382 84 385 184 c 2
 385 399 l 1
 308 399 l 1
 308 425 l 1
 465 425 l 1
 465 26 l 1
 518 26 l 2
 537 26 542 23 542 0 c 1
EndSplineSet
EndChar

StartChar: ucircumflex
Encoding: 459 251 203
Width: 567
GlyphClass: 2
Flags: MW
HStem: -10 43<244.5 269> 0 26<465 518 518 527.5 465 542> 399 26<20 97 20 177 308 385>
VStem: 97 80<162 399 399 399> 385 80<184 399 399 399>
LayerCount: 2
Back
Fore
SplineSet
285 570 m 1x78
 253 554 204 527 163 500 c 1
 151 514 l 1
 225 598 243 643 283 643 c 0
 323 643 342 598 417 515 c 1
 405 499 l 1
 369 524 317 553 285 570 c 1x78
542 0 m 1
 394 0 l 1x78
 387 102 l 1
 358 25 298 -10 240 -10 c 0
 167 -10 97 22 97 162 c 2
 97 399 l 1
 20 399 l 1
 20 425 l 1
 177 425 l 1
 177 147 l 2
 177 64 220 33 269 33 c 0xb8
 323 33 382 84 385 184 c 2
 385 399 l 1
 308 399 l 1
 308 425 l 1
 465 425 l 1
 465 26 l 1
 518 26 l 2
 537 26 542 23 542 0 c 1
EndSplineSet
EndChar

StartChar: udieresis
Encoding: 460 252 204
Width: 567
GlyphClass: 2
Flags: MW
HStem: -10 43<244.5 269> 0 26<465 518 518 527.5 465 542> 399 26<20 97 20 177 308 385> 521 100<179.5 207.5 362 390>
VStem: 97 80<162 399 399 399> 143 100<556.5 585> 326 100<556.5 585> 385 80<184 399 399 399>
LayerCount: 2
Back
Fore
SplineSet
194 521 m 0x76
 165 521 143 542 143 571 c 0
 143 599 165 621 194 621 c 0
 221 621 243 599 243 571 c 0
 243 542 221 521 194 521 c 0x76
376 521 m 0
 348 521 326 542 326 571 c 0
 326 599 348 621 376 621 c 0
 404 621 426 599 426 571 c 0
 426 542 404 521 376 521 c 0
542 0 m 1x69
 394 0 l 1x69
 387 102 l 1
 358 25 298 -10 240 -10 c 0
 167 -10 97 22 97 162 c 2
 97 399 l 1
 20 399 l 1
 20 425 l 1
 177 425 l 1
 177 147 l 2
 177 64 220 33 269 33 c 0xa9
 323 33 382 84 385 184 c 2
 385 399 l 1
 308 399 l 1
 308 425 l 1
 465 425 l 1
 465 26 l 1
 518 26 l 2
 537 26 542 23 542 0 c 1x69
EndSplineSet
EndChar

StartChar: ugrave
Encoding: 461 249 205
Width: 567
GlyphClass: 2
Flags: MW
HStem: -10 43<244.5 269> 0 26<465 518 518 527.5 465 542> 399 26<20 97 20 177 308 385>
VStem: 97 80<162 399 399 399> 385 80<184 399 399 399>
LayerCount: 2
Back
Fore
SplineSet
353 483 m 1x78
 296 529 230 558 205 583 c 0
 197 591 192 601 192 611 c 0
 192 634 215 656 238 656 c 0
 248 656 258 652 267 643 c 0
 291 619 320 553 369 500 c 1
 353 483 l 1x78
542 0 m 1
 394 0 l 1x78
 387 102 l 1
 358 25 298 -10 240 -10 c 0
 167 -10 97 22 97 162 c 2
 97 399 l 1
 20 399 l 1
 20 425 l 1
 177 425 l 1
 177 147 l 2
 177 64 220 33 269 33 c 0xb8
 323 33 382 84 385 184 c 2
 385 399 l 1
 308 399 l 1
 308 425 l 1
 465 425 l 1
 465 26 l 1
 518 26 l 2
 537 26 542 23 542 0 c 1
EndSplineSet
EndChar

StartChar: uhungarumlaut
Encoding: 462 369 206
Width: 567
GlyphClass: 2
Flags: MW
HStem: -10 43<244.5 269> 0 26<465 518 518 527.5 465 542> 399 26<20 97 20 177 308 385>
VStem: 97 80<162 399 399 399> 385 80<184 399 399 399>
LayerCount: 2
Back
Fore
SplineSet
315 597 m 0x78
 291 572 226 544 171 500 c 1
 156 516 l 1
 203 567 231 632 255 655 c 0
 263 664 273 667 283 667 c 0
 305 667 327 646 327 624 c 0
 327 614 323 604 315 597 c 0x78
314 500 m 1
 303 519 l 1
 359 559 400 617 428 634 c 0
 438 642 448 642 458 640 c 0
 480 636 497 611 492 589 c 0
 490 579 484 570 475 565 c 0
 446 546 377 532 314 500 c 1
542 0 m 1
 394 0 l 1x78
 387 102 l 1
 358 25 298 -10 240 -10 c 0
 167 -10 97 22 97 162 c 2
 97 399 l 1
 20 399 l 1
 20 425 l 1
 177 425 l 1
 177 147 l 2
 177 64 220 33 269 33 c 0xb8
 323 33 382 84 385 184 c 2
 385 399 l 1
 308 399 l 1
 308 425 l 1
 465 425 l 1
 465 26 l 1
 518 26 l 2
 537 26 542 23 542 0 c 1
EndSplineSet
EndChar

StartChar: umacron
Encoding: 463 363 207
Width: 567
GlyphClass: 2
Flags: MW
HStem: -10 43<244.5 269> 0 26<465 518 518 527.5 465 542> 399 26<20 97 20 177 308 385> 540 50<136 436 136 436>
VStem: 97 80<162 399 399 399> 385 80<184 399 399 399>
LayerCount: 2
Back
Fore
SplineSet
436 590 m 1x7c
 436 540 l 1
 136 540 l 1
 136 590 l 1
 436 590 l 1x7c
542 0 m 1
 394 0 l 1x7c
 387 102 l 1
 358 25 298 -10 240 -10 c 0
 167 -10 97 22 97 162 c 2
 97 399 l 1
 20 399 l 1
 20 425 l 1
 177 425 l 1
 177 147 l 2
 177 64 220 33 269 33 c 0xbc
 323 33 382 84 385 184 c 2
 385 399 l 1
 308 399 l 1
 308 425 l 1
 465 425 l 1
 465 26 l 1
 518 26 l 2
 537 26 542 23 542 0 c 1
EndSplineSet
EndChar

StartChar: uni0123
Encoding: 464 291 208
Width: 491
GlyphClass: 2
Flags: MW
HStem: -190 27<197.5 284.5 197.5 317.5> -37 80 116 24 410 25<203 258.5 194 277> 434 55<409.5 414.5>
VStem: 60 85<246.5 314.5 239.5 326> 65 38<70.5 80.5> 75 36<-105.5 -79> 186 44<543 624.5> 334 85<239.5 303 227 314.5> 410 48<-95 -70>
LayerCount: 2
Back
Fore
SplineSet
247 491 m 0xf4a0
 207 491 186 522 186 564 c 0
 186 609 210 665 255 711 c 1
 279 695 l 1
 252 667 230 634 230 615 c 0
 230 605 240 600 255 597 c 0
 278 592 300 575 300 546 c 0
 300 515 276 491 247 491 c 0xf4a0
403 434 m 0xeca0
 384 434 367 419 361 397 c 1
 396 370 419 329 419 277 c 0
 419 177 333 115 239 115 c 2
 237 115 l 1
 151 116 l 2
 117 116 103 99 103 82 c 0
 103 59 119 46 150 45 c 2xeac0
 332 41 l 2
 420 39 458 -1 458 -63 c 0
 458 -127 394 -190 241 -190 c 0
 130 -190 75 -143 75 -90 c 0xf1a0
 75 -68 85 -43 107 -20 c 1
 78 -1 65 31 65 60 c 0xf2a0
 65 101 89 141 153 141 c 1
 104 169 60 217 60 276 c 0
 60 376 147 435 241 435 c 0xf4a0
 276 435 310 427 338 412 c 1
 353 458 391 489 428 489 c 0
 468 489 486 464 486 442 c 0
 486 426 475 411 455 411 c 0
 433 411 426 434 403 434 c 0xeca0
240 140 m 0xf4c0
 314 140 334 202 334 277 c 0
 334 352 314 410 240 410 c 0
 166 410 145 352 145 277 c 0
 145 202 166 140 240 140 c 0xf4c0
166 -37 m 2
 153 -37 142 -35 131 -32 c 1
 118 -49 111 -68 111 -84 c 0
 111 -127 154 -163 241 -163 c 0
 328 -163 410 -138 410 -90 c 0
 410 -50 380 -40 320 -39 c 2xf1a0
 166 -37 l 2
EndSplineSet
EndChar

StartChar: uni0137
Encoding: 465 311 209
Width: 510
GlyphClass: 2
Flags: MW
HStem: 0 26<30 51 186 228 228 237.5 30 51 448 486 486 495.5> 399 26<310 383 310 478 434.5 461> 624 26<30 106 30 186>
VStem: 106 80<78 178 26 218 218 624 624 624> 302 44<-169.5 -88> 310 168<412.5 425 412.5 425 412.5 425>
AnchorPoint: "Anchor-0" 289 0 basechar 0
LayerCount: 2
Back
Fore
SplineSet
486 26 m 2xf4
 505 26 510 23 510 0 c 1
 372 0 l 1
 231 220 l 1
 186 178 l 1
 186 26 l 1
 228 26 l 2
 247 26 252 22 252 0 c 1
 30 0 l 1
 30 26 l 1
 72 26 106 36 106 78 c 2
 106 624 l 1
 30 624 l 1
 30 650 l 1
 186 650 l 1
 186 218 l 1
 383 399 l 1
 310 399 l 1
 310 425 l 1
 478 425 l 1
 478 400 476 399 446 399 c 0
 423 399 405 383 382 361 c 2
 288 273 l 1
 448 26 l 1
 486 26 l 2xf4
285 -36 m 0xf8
 325 -36 346 -67 346 -109 c 0
 346 -154 322 -210 277 -256 c 1
 253 -240 l 1
 280 -212 302 -179 302 -160 c 0
 302 -150 292 -145 277 -142 c 0
 254 -137 232 -120 232 -91 c 0
 232 -60 256 -36 285 -36 c 0xf8
EndSplineSet
EndChar

StartChar: uni013C
Encoding: 466 316 210
Width: 287
GlyphClass: 2
Flags: MW
HStem: 0 26<30 51 186 238 238 247.5 30 51> 624 26<30 106 30 186>
VStem: 106 80<78 624 624 624> 152 44<-169.5 -88>
LayerCount: 2
Back
Fore
SplineSet
262 0 m 1xe0
 30 0 l 1
 30 26 l 1
 72 26 106 36 106 78 c 2
 106 624 l 1
 30 624 l 1
 30 650 l 1
 186 650 l 1
 186 26 l 1
 238 26 l 2
 257 26 262 22 262 0 c 1xe0
127 -256 m 1xd0
 103 -240 l 1
 130 -212 152 -179 152 -160 c 0
 152 -150 142 -145 127 -142 c 0
 104 -137 82 -120 82 -91 c 0
 82 -60 106 -36 135 -36 c 0
 175 -36 196 -67 196 -109 c 0
 196 -154 172 -210 127 -256 c 1xd0
EndSplineSet
EndChar

StartChar: uni0146
Encoding: 467 326 211
Width: 571
GlyphClass: 2
Flags: MW
HStem: 0 26<30 51 187 233 233 242.5 30 51 326 345 470 521 521 531> 392 43<303.5 326> 399 26<30 107 30 182>
VStem: 107 80<78 241 26 399> 299 44<-169.5 -88> 390 80<78 273 26 283 26 319.5>
AnchorPoint: "Anchor-0" 286 0 basechar 0
LayerCount: 2
Back
Fore
SplineSet
233 26 m 2xb4
 252 26 257 22 257 0 c 1
 30 0 l 1
 30 26 l 1
 72 26 107 36 107 78 c 2
 107 399 l 1
 30 399 l 1
 30 425 l 1
 182 425 l 1xb4
 186 325 l 1
 215 401 275 435 332 435 c 0
 405 435 470 378 470 273 c 2
 470 26 l 1
 521 26 l 2
 541 26 546 22 546 0 c 1
 326 0 l 1
 326 26 l 1
 364 26 390 38 390 78 c 2
 390 283 l 2
 390 356 349 392 303 392 c 0xd4
 249 392 190 341 187 241 c 2
 187 26 l 1
 233 26 l 2xb4
282 -36 m 0xbc
 322 -36 343 -67 343 -109 c 0
 343 -154 319 -210 274 -256 c 1
 250 -240 l 1
 277 -212 299 -179 299 -160 c 0
 299 -150 289 -145 274 -142 c 0
 251 -137 229 -120 229 -91 c 0
 229 -60 253 -36 282 -36 c 0xbc
EndSplineSet
EndChar

StartChar: uni0157
Encoding: 468 343 212
Width: 398
GlyphClass: 2
Flags: MW
HStem: 0 26<30 51 187 255 255 264.5 30 51> 392 39<262.5 347.5> 399 26<30 107 30 182>
VStem: 107 80<78 224 26 399> 158 44<-169.5 -88>
AnchorPoint: "Anchor-0" 145 0 basechar 0
LayerCount: 2
Back
Fore
SplineSet
325 431 m 0xd0
 370 431 393 401 393 374 c 0
 393 352 378 333 348 333 c 0
 300 333 305 392 275 392 c 0xd0
 250 392 187 331 187 224 c 2
 187 26 l 1
 255 26 l 2
 274 26 279 22 279 0 c 1
 30 0 l 1
 30 26 l 1
 72 26 107 36 107 78 c 2
 107 399 l 1
 30 399 l 1
 30 425 l 1
 182 425 l 1xb0
 186 327 l 1
 213 398 278 431 325 431 c 0xd0
141 -36 m 0xa8
 181 -36 202 -67 202 -109 c 0
 202 -154 178 -210 133 -256 c 1
 109 -240 l 1
 136 -212 158 -179 158 -160 c 0
 158 -150 148 -145 133 -142 c 0
 110 -137 88 -120 88 -91 c 0
 88 -60 112 -36 141 -36 c 0xa8
EndSplineSet
EndChar

StartChar: uni015F
Encoding: 469 351 213
Width: 404
GlyphClass: 2
Flags: MW
HStem: -227 25<195 213 185.5 244.5> -77 25<192.5 254>
VStem: 79 210<13 146.5 133 146.5 67.5 147 67.5 147> 124 194<336 356.5 336 363.5> 256 75<-156 -114>
AnchorPoint: "Anchor-0" 202 0 basechar 0
LayerCount: 2
Back
Fore
SplineSet
79 133 m 2xe0
 79 147 l 1
 52 147 l 1
 52 -5 l 1
 74 -5 79 0 79 26 c 1xe0
 113 3 155 -10 204 -10 c 0
 285 -10 362 25 362 109 c 0
 362 258 124 230 124 340 c 0
 124 387 168 410 217 410 c 0
 276 410 318 377 318 336 c 1
 320 316 l 1
 345 316 l 1
 345 441 l 1
 325 441 318 432 318 407 c 1xd0
 288 425 244 435 200 435 c 0
 123 435 52 405 52 325 c 0
 52 179 289 201 289 92 c 0
 289 43 242 17 192 17 c 0
 134 17 79 53 79 133 c 2xe0
180 3 m 1
 205 3 l 1
 176 -62 l 1
 192 -55 210 -52 228 -52 c 0
 280 -52 331 -81 331 -136 c 0
 331 -193 274 -227 215 -227 c 0
 175 -227 134 -211 111 -174 c 1
 127 -162 l 1
 147 -189 174 -202 197 -202 c 0
 229 -202 256 -178 256 -134 c 0
 256 -94 231 -77 201 -77 c 0xc8
 184 -77 165 -83 150 -94 c 1
 136 -85 l 1
 180 3 l 1
EndSplineSet
EndChar

StartChar: uni0163
Encoding: 470 355 214
Width: 331
GlyphClass: 2
Flags: MW
HStem: -227 25<180 198 170.5 229.5> -77 25<177.5 239> -11 30<211 235.5> 399 26<25 96 25 96 176 326>
VStem: 96 80<118 399 425 520 520 520> 241 75<-156 -114>
AnchorPoint: "Anchor-0" 187 0 basechar 0
LayerCount: 2
Back
Fore
SplineSet
326 399 m 1
 176 399 l 1
 176 96 l 2
 176 44 196 19 226 19 c 0
 255 19 282 44 299 109 c 1
 326 104 l 1
 309 19 260 -11 211 -11 c 0
 202 -11 193 -10 185 -9 c 1
 161 -62 l 1
 177 -55 195 -52 213 -52 c 0
 265 -52 316 -81 316 -136 c 0
 316 -193 259 -227 200 -227 c 0
 160 -227 119 -211 96 -174 c 1
 112 -162 l 1
 132 -189 159 -202 182 -202 c 0
 214 -202 241 -178 241 -134 c 0
 241 -94 216 -77 186 -77 c 0
 169 -77 150 -83 135 -94 c 1
 121 -85 l 1
 162 -3 l 1
 125 11 96 46 96 118 c 2
 96 399 l 1
 25 399 l 1
 25 425 l 1
 96 425 l 1
 96 520 l 1
 176 541 l 1
 176 425 l 1
 326 425 l 1
 326 399 l 1
EndSplineSet
EndChar

StartChar: uni0219
Encoding: 471 537 215
Width: 404
GlyphClass: 2
Flags: MW
HStem: -256 697<190 345>
VStem: 79 210<13 146.5 133 146.5 67.5 147 67.5 147> 124 194<336 356.5 336 363.5> 215 44<-169.5 -88>
AnchorPoint: "Anchor-0" 202 0 basechar 0
LayerCount: 2
Back
Fore
SplineSet
79 133 m 2xc0
 79 147 l 1
 52 147 l 1
 52 -5 l 1
 74 -5 79 0 79 26 c 1xc0
 113 3 155 -10 204 -10 c 0
 285 -10 362 25 362 109 c 0
 362 258 124 230 124 340 c 0
 124 387 168 410 217 410 c 0
 276 410 318 377 318 336 c 1
 320 316 l 1
 345 316 l 1
 345 441 l 1
 325 441 318 432 318 407 c 1xa0
 288 425 244 435 200 435 c 0
 123 435 52 405 52 325 c 0
 52 179 289 201 289 92 c 0
 289 43 242 17 192 17 c 0
 134 17 79 53 79 133 c 2xc0
190 -256 m 1x90
 166 -240 l 1
 193 -212 215 -179 215 -160 c 0
 215 -150 205 -145 190 -142 c 0
 167 -137 145 -120 145 -91 c 0
 145 -60 169 -36 198 -36 c 0
 238 -36 259 -67 259 -109 c 0
 259 -154 235 -210 190 -256 c 1x90
EndSplineSet
EndChar

StartChar: uni021B
Encoding: 472 539 216
Width: 331
GlyphClass: 2
Flags: MW
HStem: -11 30<211 235.5> 399 26<25 96 25 96 176 326>
VStem: 96 80<118 399 425 520 520 520> 200 44<-169.5 -88>
AnchorPoint: "Anchor-0" 187 0 basechar 0
LayerCount: 2
Back
Fore
SplineSet
326 399 m 1
 176 399 l 1
 176 96 l 2
 176 44 196 19 226 19 c 0
 255 19 282 44 299 109 c 1
 326 104 l 1
 309 19 260 -11 211 -11 c 0
 153 -11 96 16 96 118 c 2
 96 399 l 1
 25 399 l 1
 25 425 l 1
 96 425 l 1
 96 520 l 1
 176 541 l 1
 176 425 l 1
 326 425 l 1
 326 399 l 1
183 -36 m 0xf0
 223 -36 244 -67 244 -109 c 0
 244 -154 220 -210 175 -256 c 1
 151 -240 l 1
 178 -212 200 -179 200 -160 c 0
 200 -150 190 -145 175 -142 c 0
 152 -137 130 -120 130 -91 c 0
 130 -60 154 -36 183 -36 c 0xf0
EndSplineSet
EndChar

StartChar: uogonek
Encoding: 473 371 217
Width: 567
GlyphClass: 2
Flags: MW
HStem: -191 29<475.5 481.5> -10 43<244.5 269> 0 26<465 501> 399 26<20 97 20 177 308 385>
VStem: 97 80<162 399 399 399> 370 76<-128.5 -95> 385 80<184 399 399 399>
LayerCount: 2
Back
Fore
SplineSet
543 -139 m 1xbc
 555 -154 l 1
 530 -180 497 -191 466 -191 c 0
 406 -191 370 -157 370 -116 c 0xbc
 370 -74 408 -26 501 0 c 1
 394 0 l 1xba
 387 102 l 1
 358 25 298 -10 240 -10 c 0
 167 -10 97 22 97 162 c 2
 97 399 l 1
 20 399 l 1
 20 425 l 1
 177 425 l 1
 177 147 l 2
 177 64 220 33 269 33 c 0xda
 323 33 382 84 385 184 c 2
 385 399 l 1
 308 399 l 1
 308 425 l 1
 465 425 l 1
 465 26 l 1
 518 26 l 2xba
 537 26 542 23 542 0 c 1
 475 -26 446 -75 446 -112 c 0
 446 -145 463 -162 488 -162 c 0
 504 -162 524 -155 543 -139 c 1xbc
EndSplineSet
EndChar

StartChar: uring
Encoding: 474 367 218
Width: 567
GlyphClass: 2
Flags: MW
HStem: -10 43<244.5 269> 0 26<465 518 518 527.5 465 542> 399 26<20 97 20 177 308 385> 482 23<266 303 266 316.5> 642 23<267 304>
VStem: 97 80<162 399 399 399> 181 54<557 590 557 601> 336 54<558 591> 385 80<184 399 399 399>
LayerCount: 2
Back
Fore
SplineSet
283 482 m 0x7b
 219 482 181 522 181 575 c 0
 181 627 221 665 288 665 c 0
 353 665 390 626 390 576 c 0
 390 523 350 482 283 482 c 0x7b
285 642 m 0
 249 642 235 607 235 573 c 0
 235 541 247 505 285 505 c 0
 321 505 336 541 336 575 c 0
 336 607 323 642 285 642 c 0
542 0 m 1x7c80
 394 0 l 1x7c80
 387 102 l 1
 358 25 298 -10 240 -10 c 0
 167 -10 97 22 97 162 c 2
 97 399 l 1
 20 399 l 1
 20 425 l 1
 177 425 l 1
 177 147 l 2
 177 64 220 33 269 33 c 0xbc80
 323 33 382 84 385 184 c 2
 385 399 l 1
 308 399 l 1
 308 425 l 1
 465 425 l 1
 465 26 l 1
 518 26 l 2
 537 26 542 23 542 0 c 1x7c80
EndSplineSet
EndChar

StartChar: v
Encoding: 475 118 219
Width: 465
GlyphClass: 2
Flags: MW
HStem: 399 26<3 49 3 197 133 133 133 197 310 383 425.5 446>
VStem: 3 194<399 425 399 425> 310 152<412.5 425 412.5 425 412.5 425>
LayerCount: 2
Back
Fore
SplineSet
310 425 m 1
 462 425 l 1
 462 400 455 399 437 399 c 0
 414 399 410 393 399 365 c 2
 258 -5 l 1
 245 -5 l 2
 208 -5 193 5 171 65 c 2
 49 399 l 1
 3 399 l 1
 3 425 l 1
 197 425 l 1
 197 399 l 1
 133 399 l 1
 258 64 l 1
 383 399 l 1
 310 399 l 1
 310 425 l 1
EndSplineSet
EndChar

StartChar: w
Encoding: 476 119 220
Width: 684
GlyphClass: 2
Flags: MW
HStem: 399 26<5 51 5 203 134 134 134 203 382 382 382 433 539 606 649 666>
VStem: 5 198<399 425 399 425> 539 145<413 425 413 425 413 425>
LayerCount: 2
Back
Fore
SplineSet
539 425 m 1
 684 425 l 1
 684 401 674 399 658 399 c 0
 640 399 632 393 623 364 c 2
 502 -5 l 1
 486 -5 l 2
 452 -5 441 4 420 65 c 2
 353 257 l 1
 266 -5 l 1
 246 -5 l 2
 212 -5 199 4 176 65 c 2
 51 399 l 1
 5 399 l 1
 5 425 l 1
 203 425 l 1
 203 399 l 1
 134 399 l 1
 259 58 l 1
 339 298 l 1
 294 425 l 1
 433 425 l 1
 433 399 l 1
 382 399 l 1
 497 62 l 1
 606 399 l 1
 539 399 l 1
 539 425 l 1
EndSplineSet
EndChar

StartChar: x
Encoding: 477 120 221
Width: 434
GlyphClass: 2
Flags: MW
HStem: 0 26<15 31 81 160 1 31 248 309 392 410 410 419.5> 399 26<0 46 0 197 133 133 133 197 268 345 395.5 415>
VStem: 0 197<399 425 399 425> 0 434<0 425 0 425> 1 159<0 10> 268 157<417.5 425 417.5 425 417.5 425>
LayerCount: 2
Back
Fore
SplineSet
410 26 m 2xd0
 429 26 434 24 434 0 c 1
 248 0 l 1
 248 26 l 1
 309 26 l 1
 199 181 l 1
 81 26 l 1
 160 26 l 1
 160 0 l 1
 1 0 l 1
 1 20 9 26 21 26 c 0
 41 26 53 35 69 55 c 2xc8
 183 204 l 1
 46 399 l 1
 0 399 l 1
 0 425 l 1
 197 425 l 1
 197 399 l 1
 133 399 l 1
 237 249 l 1
 345 399 l 1
 268 399 l 1
 268 425 l 1
 425 425 l 1
 425 410 422 399 408 399 c 0
 383 399 369 389 355 370 c 2xe4
 252 227 l 1
 392 26 l 1
 410 26 l 2xd0
EndSplineSet
EndChar

StartChar: y
Encoding: 478 121 222
Width: 484
GlyphClass: 2
Flags: MW
HStem: -190 31<85.5 116> 399 26<7 53 7 202 138 138 138 202 327 400 442.5 463>
VStem: 7 195<399 425 399 425> 327 152<412.5 425 412.5 425 412.5 425>
LayerCount: 2
Back
Fore
SplineSet
327 425 m 1
 479 425 l 1
 479 400 472 399 454 399 c 0
 431 399 426 393 416 365 c 2
 268 0 l 2
 208 -154 147 -190 85 -190 c 0
 39 -190 -1 -164 -1 -127 c 0
 -1 -108 13 -93 39 -93 c 0
 93 -93 68 -159 103 -159 c 0
 149 -159 187 -113 236 0 c 1
 53 399 l 1
 7 399 l 1
 7 425 l 1
 202 425 l 1
 202 399 l 1
 138 399 l 1
 273 82 l 1
 400 399 l 1
 327 399 l 1
 327 425 l 1
EndSplineSet
EndChar

StartChar: yacute
Encoding: 479 253 223
Width: 484
GlyphClass: 2
Flags: MW
HStem: -190 31<85.5 116> 399 26<7 53 7 202 138 138 138 202 327 400 442.5 463>
VStem: -1 480 7 195<399 425 399 425>
LayerCount: 2
Back
Fore
SplineSet
368 583 m 0xe0
 343 558 277 529 220 483 c 1
 204 500 l 1
 253 553 282 619 306 643 c 0
 315 652 325 656 335 656 c 0
 358 656 381 634 381 611 c 0
 381 601 376 591 368 583 c 0xe0
327 425 m 1
 479 425 l 1
 479 400 472 399 454 399 c 0
 431 399 426 393 416 365 c 2
 268 0 l 2
 208 -154 147 -190 85 -190 c 0
 39 -190 -1 -164 -1 -127 c 0
 -1 -108 13 -93 39 -93 c 0
 93 -93 68 -159 103 -159 c 0
 149 -159 187 -113 236 0 c 1
 53 399 l 1
 7 399 l 1
 7 425 l 1
 202 425 l 1
 202 399 l 1
 138 399 l 1
 273 82 l 1xd0
 400 399 l 1
 327 399 l 1
 327 425 l 1
EndSplineSet
EndChar

StartChar: ydieresis
Encoding: 480 255 224
Width: 484
GlyphClass: 2
Flags: MW
HStem: -190 31<85.5 116> 399 26<7 53 7 202 138 138 138 202 327 400 442.5 463> 521 100<145.5 173.5 328 356>
VStem: 7 195<399 425 399 425> 109 100<556.5 585> 292 100<556.5 585>
LayerCount: 2
Back
Fore
SplineSet
160 521 m 0xec
 131 521 109 542 109 571 c 0
 109 599 131 621 160 621 c 0
 187 621 209 599 209 571 c 0
 209 542 187 521 160 521 c 0xec
342 521 m 0
 314 521 292 542 292 571 c 0
 292 599 314 621 342 621 c 0
 370 621 392 599 392 571 c 0
 392 542 370 521 342 521 c 0
327 425 m 1
 479 425 l 1
 479 400 472 399 454 399 c 0
 431 399 426 393 416 365 c 2
 268 0 l 2
 208 -154 147 -190 85 -190 c 0
 39 -190 -1 -164 -1 -127 c 0
 -1 -108 13 -93 39 -93 c 0
 93 -93 68 -159 103 -159 c 0
 149 -159 187 -113 236 0 c 1
 53 399 l 1
 7 399 l 1
 7 425 l 1
 202 425 l 1
 202 399 l 1
 138 399 l 1
 273 82 l 1xf4
 400 399 l 1
 327 399 l 1
 327 425 l 1
EndSplineSet
EndChar

StartChar: z
Encoding: 481 122 225
Width: 422
GlyphClass: 2
Flags: MW
HStem: 0 26<120 293 293 313 120 389> 404 26<127 142 142 298>
VStem: 375 15.5
LayerCount: 2
Back
Fore
SplineSet
375 151 m 1
 392 151 l 1
 389 0 l 1
 20 0 l 1
 20 22 l 1
 298 404 l 1
 142 404 l 2
 112 404 95 390 78 355 c 2
 52 300 l 1
 37 300 l 1
 46 430 l 1
 388 430 l 1
 388 409 l 1
 120 26 l 1
 293 26 l 2
 333 26 354 62 362 96 c 2
 375 151 l 1
EndSplineSet
EndChar

StartChar: zacute
Encoding: 482 378 226
Width: 422
GlyphClass: 2
Flags: MW
HStem: 0 26<120 293 293 313 120 389> 404 26<127 142 142 298>
VStem: 375 15.5
LayerCount: 2
Back
Fore
SplineSet
301 583 m 0
 276 558 210 529 153 483 c 1
 137 500 l 1
 186 553 215 619 239 643 c 0
 248 652 258 656 268 656 c 0
 291 656 314 634 314 611 c 0
 314 601 309 591 301 583 c 0
375 151 m 1
 392 151 l 1
 389 0 l 1
 20 0 l 1
 20 22 l 1
 298 404 l 1
 142 404 l 2
 112 404 95 390 78 355 c 2
 52 300 l 1
 37 300 l 1
 46 430 l 1
 388 430 l 1
 388 409 l 1
 120 26 l 1
 293 26 l 2
 333 26 354 62 362 96 c 2
 375 151 l 1
EndSplineSet
EndChar

StartChar: zcaron
Encoding: 483 382 227
Width: 422
GlyphClass: 2
Flags: MW
HStem: 0 26<120 293 293 313 120 389> 404 26<127 142 142 298>
VStem: 375 15.5
LayerCount: 2
Back
Fore
SplineSet
212 501 m 0
 170 501 148 548 69 635 c 1
 82 652 l 1
 121 625 177 595 211 577 c 1
 247 595 303 627 340 651 c 1
 353 636 l 1
 275 548 254 501 212 501 c 0
375 151 m 1
 392 151 l 1
 389 0 l 1
 20 0 l 1
 20 22 l 1
 298 404 l 1
 142 404 l 2
 112 404 95 390 78 355 c 2
 52 300 l 1
 37 300 l 1
 46 430 l 1
 388 430 l 1
 388 409 l 1
 120 26 l 1
 293 26 l 2
 333 26 354 62 362 96 c 2
 375 151 l 1
EndSplineSet
EndChar

StartChar: zdotaccent
Encoding: 484 380 228
Width: 422
GlyphClass: 2
Flags: MW
HStem: 0 26<120 293 293 313 120 389> 404 26<127 142 142 298> 516 110<195.5 226>
VStem: 156 109<555.5 586> 375 15.5
LayerCount: 2
Back
Fore
SplineSet
211 516 m 0
 180 516 156 540 156 571 c 0
 156 601 180 626 211 626 c 0
 241 626 265 601 265 571 c 0
 265 540 241 516 211 516 c 0
375 151 m 1
 392 151 l 1
 389 0 l 1
 20 0 l 1
 20 22 l 1
 298 404 l 1
 142 404 l 2
 112 404 95 390 78 355 c 2
 52 300 l 1
 37 300 l 1
 46 430 l 1
 388 430 l 1
 388 409 l 1
 120 26 l 1
 293 26 l 2
 333 26 354 62 362 96 c 2
 375 151 l 1
EndSplineSet
EndChar

StartChar: fi
Encoding: 485 64257 229
Width: 596
GlyphClass: 3
Flags: MW
HStem: 0 26<30 51 186 252 252 261.5 30 51 339 360 495 547 547 556.5> 399 26<35 106 35 106 186 296 339 415> 516 110<435.5 466> 625 25<236.5 284.5>
VStem: 106 80<78 399 26 399 425 431 26 441 26 519.5> 396 109<555.5 586> 415 80<78 399 399 399>
LayerCount: 2
Back
Fore
SplineSet
256 625 m 0xda
 210 625 186 586 186 431 c 2
 186 425 l 1
 296 425 l 1
 296 399 l 1
 186 399 l 1
 186 26 l 1
 252 26 l 2
 271 26 276 22 276 0 c 1
 30 0 l 1
 30 26 l 1
 72 26 106 36 106 78 c 2
 106 399 l 1
 35 399 l 1
 35 425 l 1
 106 425 l 1
 106 441 l 2
 106 598 196 650 277 650 c 0
 345 650 394 618 394 581 c 0
 394 561 379 544 352 544 c 0
 305 544 313 625 256 625 c 0xda
451 516 m 0xec
 420 516 396 540 396 571 c 0
 396 601 420 626 451 626 c 0
 481 626 505 601 505 571 c 0
 505 540 481 516 451 516 c 0xec
547 26 m 2xda
 566 26 571 22 571 0 c 1
 339 0 l 1
 339 26 l 1
 381 26 415 36 415 78 c 2
 415 399 l 1
 339 399 l 1
 339 425 l 1
 495 425 l 1
 495 26 l 1
 547 26 l 2xda
EndSplineSet
EndChar

StartChar: fl
Encoding: 486 64258 230
Width: 596
GlyphClass: 3
Flags: MW
HStem: 0 26<30 51 186 252 252 261.5 30 51 339 360 495 547 547 556.5> 399 26<35 106 35 106 186 296> 624 26<369 415 369 369>
VStem: 106 80<78 399 26 399 425 431 26 441 26 519.5> 415 80<78 624 624 624>
LayerCount: 2
Back
Fore
SplineSet
339 26 m 1
 381 26 415 36 415 78 c 2
 415 624 l 1
 369 624 l 1
 385 612 394 597 394 581 c 0
 394 561 379 544 352 544 c 0
 305 544 313 625 256 625 c 0
 210 625 186 586 186 431 c 2
 186 425 l 1
 296 425 l 1
 296 399 l 1
 186 399 l 1
 186 26 l 1
 252 26 l 2
 271 26 276 22 276 0 c 1
 30 0 l 1
 30 26 l 1
 72 26 106 36 106 78 c 2
 106 399 l 1
 35 399 l 1
 35 425 l 1
 106 425 l 1
 106 441 l 2
 106 598 196 650 277 650 c 0
 300 650 321 646 339 640 c 1
 339 650 l 1
 495 650 l 1
 495 26 l 1
 547 26 l 2
 566 26 571 22 571 0 c 1
 339 0 l 1
 339 26 l 1
EndSplineSet
EndChar

StartChar: ordfeminine
Encoding: 487 170 231
Width: 482
GlyphClass: 2
Flags: MW
HStem: -10 31<403.5 420> -10 40<172 188> 217 27<305 305> 410 25<168.5 243.5>
VStem: 35 84<90.5 153> 305 80<137 217 217 217 244 284> 451 26<94 95>
LayerCount: 2
Back
Fore
SplineSet
451 95 m 1xbe
 477 94 l 1
 474 26 449 -10 391 -10 c 0xbe
 345 -10 314 17 306 83 c 1
 281 21 217 -10 159 -10 c 0x7e
 94 -10 35 28 35 105 c 0
 35 201 113 240 305 244 c 1
 305 307 l 2
 305 377 274 410 213 410 c 0
 121 410 163 312 101 312 c 0
 74 312 59 330 59 349 c 0
 59 390 113 435 224 435 c 0
 333 435 385 386 385 284 c 2
 385 73 l 2
 385 40 395 21 412 21 c 0
 433 21 447 45 451 95 c 1xbe
192 30 m 0x7e
 235 30 290 68 305 137 c 1
 305 217 l 1
 180 215 119 200 119 122 c 0
 119 59 152 30 192 30 c 0x7e
EndSplineSet
EndChar

StartChar: ordmasculine
Encoding: 488 186 232
Width: 513
GlyphClass: 2
Flags: MW
HStem: -10 25<211 305.5 211 310> 410 25<209.5 304>
VStem: 40 95<155 271.5 155 288> 378 95<158 273.5>
LayerCount: 2
Back
Fore
SplineSet
473 213 m 0
 473 69 364 -10 256 -10 c 0
 148 -10 40 68 40 217 c 0
 40 359 151 435 259 435 c 0
 366 435 473 361 473 213 c 0
259 15 m 0
 352 15 378 99 378 217 c 0
 378 330 352 410 256 410 c 0
 163 410 135 330 135 213 c 0
 135 97 163 15 259 15 c 0
EndSplineSet
EndChar

StartChar: uni00B9
Encoding: 493 185 237
Width: 458
Flags: MW
HStem: 0 30.5
VStem: 212 88<35 538 538 538>
LayerCount: 2
Back
Fore
SplineSet
300 600 m 1
 300 35 l 1
 403 26 l 2
 423 24 434 19 434 0 c 1
 55 0 l 1
 55 26 l 1
 212 35 l 1
 212 538 l 1
 38 436 l 1
 20 465 l 1
 239 600 l 1
 300 600 l 1
EndSplineSet
EndChar

StartChar: uni00B2
Encoding: 494 178 238
Width: 510
Flags: MW
HStem: 0 76<82 336 336 356.5 82 453 30 336> 583 27<191 272.5>
VStem: 30 52<76 123.5> 38 109.14 346 102<386.5 501.5> 432 22
LayerCount: 2
Back
Fore
SplineSet
432 174 m 1xe4
 455 174 l 1
 453 0 l 1xe4
 30 0 l 1
 30 20 l 2xe8
 30 227 346 305 346 468 c 0
 346 535 312 583 233 583 c 0
 94 583 192 428 91 428 c 0
 56 428 38 451 38 481 c 0xd8
 38 565 140 610 242 610 c 0
 344 610 448 565 448 467 c 0xe8
 448 283 82 208 82 76 c 1
 336 76 l 2
 377 76 401 77 414 118 c 2
 432 174 l 1xe4
EndSplineSet
EndChar

StartChar: uni00B3
Encoding: 495 179 239
Width: 508
Flags: MW
HStem: -10 26<174.5 263 148 279> 313 30<266 283> 524 76<149.5 170 170 345 388 388>
VStem: 35 106.2 52 22 366 90<134.5 217>
LayerCount: 2
Back
Fore
SplineSet
276 343 m 0xec
 381 343 456 288 456 177 c 0
 456 48 335 -10 223 -10 c 0
 126 -10 35 33 35 111 c 0
 35 139 53 160 87 160 c 0xf4
 193 160 87 16 209 16 c 0
 317 16 366 96 366 173 c 0
 366 261 321 313 245 313 c 0
 224 313 202 308 178 298 c 1
 156 316 l 1
 343 523 l 1
 345 524 l 1
 170 524 l 2
 129 524 105 523 92 482 c 2
 74 426 l 1
 51 426 l 1
 53 600 l 1
 440 600 l 1
 440 580 l 1
 388 524 l 1
 213 335 l 1
 234 340 256 343 276 343 c 0xec
EndSplineSet
EndChar

StartChar: backslash
Encoding: 496 92 240
Width: 406
Flags: MW
HStem: -155 865<-10 391 -10 331>
VStem: -10 401
LayerCount: 2
Back
Fore
SplineSet
391 -155 m 1
 331 -155 l 1
 -10 710 l 1
 50 710 l 1
 391 -155 l 1
EndSplineSet
EndChar

StartChar: periodcentered
Encoding: 497 183 241
Width: 308
Flags: MW
HStem: 178 108<139 169>
VStem: 100 108<217 247>
LayerCount: 2
Back
Fore
SplineSet
154 178 m 0
 124 178 100 202 100 232 c 0
 100 262 124 286 154 286 c 0
 184 286 208 262 208 232 c 0
 208 202 184 178 154 178 c 0
EndSplineSet
EndChar

StartChar: bullet
Encoding: 498 8226 242
Width: 368
Flags: MW
HStem: 145 169<161 207>
VStem: 100 168<205.5 253>
LayerCount: 2
Back
Fore
SplineSet
184 145 m 0
 138 145 100 182 100 229 c 0
 100 277 138 314 184 314 c 0
 230 314 268 277 268 229 c 0
 268 182 230 145 184 145 c 0
EndSplineSet
EndChar

StartChar: ellipsis
Encoding: 499 8230 243
Width: 596
Flags: MW
HStem: -5 103<87 115 284 312 481 509>
VStem: 50 102<32 60.5> 247 102<32 60.5> 444 102<32 60.5>
LayerCount: 2
Back
Fore
SplineSet
101 -5 m 0
 73 -5 50 18 50 46 c 0
 50 75 73 98 101 98 c 0
 129 98 152 75 152 46 c 0
 152 18 129 -5 101 -5 c 0
298 -5 m 0
 270 -5 247 18 247 46 c 0
 247 75 270 98 298 98 c 0
 326 98 349 75 349 46 c 0
 349 18 326 -5 298 -5 c 0
495 -5 m 0
 467 -5 444 18 444 46 c 0
 444 75 467 98 495 98 c 0
 523 98 546 75 546 46 c 0
 546 18 523 -5 495 -5 c 0
EndSplineSet
EndChar

StartChar: exclam
Encoding: 500 33 244
Width: 279
Flags: MW
HStem: -5 103<124 152>
VStem: 87 102<32 60.5> 124 30<167 272 167 274.5>
LayerCount: 2
Back
Fore
SplineSet
194 546 m 0xa0
 194 463 154 377 154 167 c 1
 124 167 l 1
 124 382 85 461 85 544 c 0
 85 583 97 610 140 610 c 0
 185 610 194 582 194 546 c 0xa0
138 -5 m 0xc0
 110 -5 87 18 87 46 c 0
 87 75 110 98 138 98 c 0
 166 98 189 75 189 46 c 0
 189 18 166 -5 138 -5 c 0xc0
EndSplineSet
EndChar

StartChar: exclamdown
Encoding: 501 161 245
Width: 254
Flags: MW
HStem: 332 103<92 120>
VStem: 55 102<369.5 398> 90 30<158 263>
LayerCount: 2
Back
Fore
SplineSet
106 435 m 0xc0
 134 435 157 412 157 384 c 0
 157 355 134 332 106 332 c 0
 78 332 55 355 55 384 c 0
 55 412 78 435 106 435 c 0xc0
50 -116 m 0xa0
 50 -33 90 53 90 263 c 1
 120 263 l 1
 120 48 159 -31 159 -114 c 0
 159 -153 147 -180 104 -180 c 0
 59 -180 50 -152 50 -116 c 0xa0
EndSplineSet
EndChar

StartChar: numbersign
Encoding: 502 35 246
Width: 579
Flags: MW
HStem: 195 45<60 175 60 181 211 349 60 205 385 506> 370 45<73 198 73 204 73 228 234 372 408 519>
VStem: 60 459<195 370 240 370>
LayerCount: 2
Back
Fore
SplineSet
519 370 m 1
 402 370 l 1
 385 240 l 1
 506 240 l 1
 506 195 l 1
 379 195 l 1
 352 -10 l 1
 322 -10 l 1
 349 195 l 1
 205 195 l 1
 178 -10 l 1
 148 -10 l 1
 175 195 l 1
 60 195 l 1
 60 240 l 1
 181 240 l 1
 198 370 l 1
 73 370 l 1
 73 415 l 1
 204 415 l 1
 228 600 l 1
 258 600 l 1
 234 415 l 1
 378 415 l 1
 402 600 l 1
 432 600 l 1
 408 415 l 1
 519 415 l 1
 519 370 l 1
355 240 m 1
 372 370 l 1
 228 370 l 1
 211 240 l 1
 355 240 l 1
EndSplineSet
EndChar

StartChar: period
Encoding: 503 46 247
Width: 202
Flags: MW
HStem: -5 103<87 115>
VStem: 50 102<32 60.5>
LayerCount: 2
Back
Fore
SplineSet
101 -5 m 0
 73 -5 50 18 50 46 c 0
 50 75 73 98 101 98 c 0
 129 98 152 75 152 46 c 0
 152 18 129 -5 101 -5 c 0
EndSplineSet
EndChar

StartChar: questiondown
Encoding: 504 191 248
Width: 485
Flags: MW
HStem: -180 26<190.5 261> 332 103<226 254>
VStem: 40 102<-94 -3.5 -94 12.5> 189 102<369.5 398> 225 30<177.5 263 177.5 263> 289.56 100.44
LayerCount: 2
Back
Fore
SplineSet
240 435 m 0xf0
 268 435 291 412 291 384 c 0
 291 355 268 332 240 332 c 0
 212 332 189 355 189 384 c 0
 189 412 212 435 240 435 c 0xf0
255 263 m 1xac
 255 92 142 63 142 -70 c 0
 142 -118 156 -154 225 -154 c 0
 334 -154 248 -23 339 -23 c 0
 374 -23 390 -46 390 -76 c 0
 390 -140 306 -180 216 -180 c 0
 124 -180 40 -143 40 -50 c 0
 40 75 225 91 225 263 c 1
 255 263 l 1xac
EndSplineSet
EndChar

StartChar: quotedbl
Encoding: 505 34 249
Width: 306
Flags: MW
HStem: 450 205<79.5 105 79.5 105 78 105 79.5 201 201.5 228 79.5 228>
VStem: 50 83<597.5 625.5 597.5 625.5> 173 83<597.5 625.5 597.5 625.5>
LayerCount: 2
Back
Fore
SplineSet
133 614 m 0
 133 581 109 519 105 450 c 1
 78 450 l 1
 74 522 50 580 50 613 c 0
 50 638 67 655 92 655 c 0
 118 655 133 637 133 614 c 0
256 614 m 0
 256 581 232 519 228 450 c 1
 201 450 l 1
 197 522 173 580 173 613 c 0
 173 638 188 655 215 655 c 0
 241 655 256 637 256 614 c 0
EndSplineSet
EndChar

StartChar: underscore
Encoding: 506 95 250
Width: 480
Flags: MW
HStem: -65 40<10 470 10 470>
VStem: 10 460<-65 -25 -65 -25>
LayerCount: 2
Back
Fore
SplineSet
10 -25 m 1
 470 -25 l 1
 470 -65 l 1
 10 -65 l 1
 10 -25 l 1
EndSplineSet
EndChar

StartChar: bracketleft
Encoding: 507 91 251
Width: 350
Flags: MW
HStem: -136 781<90 330 90 330>
VStem: 90 240<-136 -108 617 645 -136 -108>
LayerCount: 2
Back
Fore
SplineSet
330 -108 m 1
 175 -106 l 1
 175 617 l 1
 330 617 l 1
 330 645 l 1
 90 645 l 1
 90 -136 l 1
 330 -136 l 1
 330 -108 l 1
EndSplineSet
EndChar

StartChar: bracketright
Encoding: 508 93 252
Width: 363
Flags: MW
HStem: -136 781<33 273 33 273>
VStem: 33 240<-136 -108 -136 645 617 617 617 645>
LayerCount: 2
Back
Fore
SplineSet
33 -108 m 1
 33 -136 l 1
 273 -136 l 1
 273 645 l 1
 33 645 l 1
 33 617 l 1
 188 617 l 1
 188 -106 l 1
 33 -108 l 1
EndSplineSet
EndChar

StartChar: emdash
Encoding: 509 8212 253
Width: 880
Flags: MW
HStem: 200 40<100 780 100 780>
VStem: 100 680<200 240 200 240>
LayerCount: 2
Back
Fore
SplineSet
100 240 m 1
 780 240 l 1
 780 200 l 1
 100 200 l 1
 100 240 l 1
EndSplineSet
EndChar

StartChar: endash
Encoding: 510 8211 254
Width: 680
Flags: MW
HStem: 200 40<100 580 100 580>
VStem: 100 480<200 240 200 240>
LayerCount: 2
Back
Fore
SplineSet
100 240 m 1
 580 240 l 1
 580 200 l 1
 100 200 l 1
 100 240 l 1
EndSplineSet
EndChar

StartChar: hyphen
Encoding: 511 45 255
Width: 380
Flags: MW
HStem: 200 40<50 330 50 330>
VStem: 50 280<200 240 200 240>
LayerCount: 2
Back
Fore
SplineSet
50 240 m 1
 330 240 l 1
 330 200 l 1
 50 200 l 1
 50 240 l 1
EndSplineSet
EndChar

StartChar: uni00AD
Encoding: 512 173 256
Width: 380
Flags: MW
HStem: 200 40<50 330 50 330>
VStem: 50 280<200 240 200 240>
LayerCount: 2
Back
Fore
SplineSet
50 240 m 1
 330 240 l 1
 330 200 l 1
 50 200 l 1
 50 240 l 1
EndSplineSet
EndChar

StartChar: guillemotleft
Encoding: 513 171 257
Width: 414
Flags: MW
HStem: 16 379<201 201 201 371>
VStem: 25 364<32 210.5>
LayerCount: 2
Back
Fore
SplineSet
108 205 m 1
 138 160 183 80 219 32 c 1
 201 16 l 1
 146 72 61 146 38 173 c 0
 29 183 25 194 25 205 c 0
 25 216 30 226 38 235 c 0
 65 264 150 340 201 395 c 1
 219 378 l 1
 182 328 137 250 108 205 c 1
278 205 m 1
 308 160 353 80 389 32 c 1
 371 16 l 1
 316 72 231 146 208 173 c 0
 199 183 195 194 195 205 c 0
 195 216 200 226 208 235 c 0
 235 264 320 340 371 395 c 1
 389 378 l 1
 352 328 307 250 278 205 c 1
EndSplineSet
EndChar

StartChar: guillemotright
Encoding: 514 187 258
Width: 414
Flags: MW
HStem: 16 379<43 43 43 213>
VStem: 25 364<32 210.5 199.5 378>
LayerCount: 2
Back
Fore
SplineSet
136 205 m 1
 107 250 62 328 25 378 c 1
 43 395 l 1
 94 340 179 264 206 235 c 0
 214 226 219 216 219 205 c 0
 219 194 215 183 206 173 c 0
 183 146 98 72 43 16 c 1
 25 32 l 1
 61 80 106 160 136 205 c 1
306 205 m 1
 277 250 232 328 195 378 c 1
 213 395 l 1
 264 340 349 264 376 235 c 0
 384 226 389 216 389 205 c 0
 389 194 385 183 376 173 c 0
 353 146 268 72 213 16 c 1
 195 32 l 1
 231 80 276 160 306 205 c 1
EndSplineSet
EndChar

StartChar: guilsinglleft
Encoding: 515 8249 259
Width: 262
Flags: MW
HStem: 16 379<214 219>
VStem: 25 212<32 210.5>
LayerCount: 2
Back
Fore
SplineSet
108 205 m 1
 143 160 201 80 237 32 c 1
 219 16 l 1
 166 72 61 146 38 173 c 0
 29 183 25 194 25 205 c 0
 25 216 30 226 38 235 c 0
 65 264 165 340 214 395 c 1
 234 378 l 1
 197 328 142 250 108 205 c 1
EndSplineSet
EndChar

StartChar: guilsinglright
Encoding: 516 8250 260
Width: 262
Flags: MW
HStem: 16 379<43 48>
VStem: 25 212<32 210.5>
LayerCount: 2
Back
Fore
SplineSet
154 205 m 1
 120 250 65 328 28 378 c 1
 48 395 l 1
 97 340 197 264 224 235 c 0
 232 226 237 216 237 205 c 0
 237 194 233 183 224 173 c 0
 201 146 96 72 43 16 c 1
 25 32 l 1
 61 80 119 160 154 205 c 1
EndSplineSet
EndChar

StartChar: quotedblbase
Encoding: 517 8222 261
Width: 302
Flags: MW
HStem: -97 200<75 75 204 204>
VStem: 98 40<-18.5 56> 227 40<-18.5 56>
LayerCount: 2
Back
Fore
SplineSet
75 -97 m 1
 54 -82 l 1
 78 -57 98 -27 98 -10 c 0
 98 -1 89 4 75 7 c 0
 55 11 35 27 35 53 c 0
 35 81 56 103 83 103 c 0
 119 103 138 75 138 37 c 0
 138 -4 116 -55 75 -97 c 1
204 -97 m 1
 183 -82 l 1
 207 -57 227 -27 227 -10 c 0
 227 -1 218 4 204 7 c 0
 184 11 164 27 164 53 c 0
 164 81 185 103 212 103 c 0
 248 103 267 75 267 37 c 0
 267 -4 245 -55 204 -97 c 1
EndSplineSet
EndChar

StartChar: quotedblleft
Encoding: 518 8220 262
Width: 297
Flags: MW
HStem: 455 200<98 98 98 103.5 98 227 98 232.5>
VStem: 35 40<502 576.5> 164 40<502 576.5>
LayerCount: 2
Back
Fore
SplineSet
98 655 m 1
 119 640 l 1
 95 615 75 585 75 568 c 0
 75 559 84 554 98 551 c 0
 118 547 138 531 138 505 c 0
 138 477 117 455 90 455 c 0
 54 455 35 483 35 521 c 0
 35 562 57 613 98 655 c 1
227 655 m 1
 248 640 l 1
 224 615 204 585 204 568 c 0
 204 559 213 554 227 551 c 0
 247 547 267 531 267 505 c 0
 267 477 246 455 219 455 c 0
 183 455 164 483 164 521 c 0
 164 562 186 613 227 655 c 1
EndSplineSet
EndChar

StartChar: quotedblright
Encoding: 519 8221 263
Width: 305
Flags: MW
HStem: 415 200<75 75 204 204>
VStem: 98 40<493.5 568> 227 40<493.5 568>
LayerCount: 2
Back
Fore
SplineSet
75 415 m 1
 54 430 l 1
 78 455 98 485 98 502 c 0
 98 511 89 516 75 519 c 0
 55 523 35 539 35 565 c 0
 35 593 56 615 83 615 c 0
 119 615 138 587 138 549 c 0
 138 508 116 457 75 415 c 1
204 415 m 1
 183 430 l 1
 207 455 227 485 227 502 c 0
 227 511 218 516 204 519 c 0
 184 523 164 539 164 565 c 0
 164 593 185 615 212 615 c 0
 248 615 267 587 267 549 c 0
 267 508 245 457 204 415 c 1
EndSplineSet
EndChar

StartChar: quotesinglbase
Encoding: 520 8218 264
Width: 164
Flags: MW
HStem: -81 183<84 84>
VStem: 95 39<-14 57.5>
LayerCount: 2
Back
Fore
SplineSet
84 -81 m 1
 63 -67 l 1
 81 -46 95 -21 95 -7 c 0
 95 2 84 7 73 10 c 0
 53 15 33 30 33 55 c 0
 33 81 53 102 80 102 c 0
 115 102 134 76 134 39 c 0
 134 3 117 -43 84 -81 c 1
EndSplineSet
EndChar

StartChar: uni0326
Encoding: 522 806 266
Width: 0
GlyphClass: 4
Flags: MW
HStem: -256 220<-262 -262>
VStem: -237 44<-169.5 -88>
AnchorPoint: "Anchor-0" -250 0 mark 0
LayerCount: 2
Back
Fore
SplineSet
-262 -256 m 1
 -286 -240 l 1
 -259 -212 -237 -179 -237 -160 c 0
 -237 -150 -247 -145 -262 -142 c 0
 -285 -137 -307 -120 -307 -91 c 0
 -307 -60 -283 -36 -254 -36 c 0
 -214 -36 -193 -67 -193 -109 c 0
 -193 -154 -217 -210 -262 -256 c 1
EndSplineSet
EndChar

StartChar: uni02C9
Encoding: 523 713 267
Width: 500
Flags: MW
HStem: 540 50<100 400 100 400>
VStem: 100 300<540 590 540 590>
LayerCount: 2
Back
Fore
SplineSet
100 590 m 1
 400 590 l 1
 400 540 l 1
 100 540 l 1
 100 590 l 1
EndSplineSet
EndChar

StartChar: acute
Encoding: 524 180 268
Width: 500
Flags: MW
HStem: 483 173<220 346.5>
VStem: 204 177<500 622.5>
LayerCount: 2
Back
Fore
SplineSet
220 483 m 1
 204 500 l 1
 253 553 282 619 306 643 c 0
 315 652 325 656 335 656 c 0
 358 656 381 634 381 611 c 0
 381 601 376 591 368 583 c 0
 343 558 277 529 220 483 c 1
EndSplineSet
EndChar

StartChar: breve
Encoding: 525 728 269
Width: 500
Flags: MW
HStem: 510 129<128 295.5>
VStem: 128 245<606 639>
LayerCount: 2
Back
Fore
SplineSet
148 639 m 1
 128 639 l 1
 128 573 163 510 251 510 c 0
 340 510 373 573 373 639 c 1
 352 639 l 1
 341 583 297 574 254 574 c 0
 205 574 159 586 148 639 c 1
EndSplineSet
EndChar

StartChar: caron
Encoding: 526 711 270
Width: 500
Flags: MW
HStem: 501 151<121 272>
VStem: 108 284<635 636>
LayerCount: 2
Back
Fore
SplineSet
379 651 m 1
 392 636 l 1
 314 548 293 501 251 501 c 0
 209 501 187 548 108 635 c 1
 121 652 l 1
 160 625 216 595 250 577 c 1
 286 595 342 627 379 651 c 1
EndSplineSet
EndChar

StartChar: cedilla
Encoding: 527 184 271
Width: 500
Flags: MW
HStem: -227 25<224 242 214.5 273.5> -77 25<221.5 283>
VStem: 285 75<-156 -114>
LayerCount: 2
Back
Fore
SplineSet
209 3 m 1
 234 3 l 1
 205 -62 l 1
 221 -55 239 -52 257 -52 c 0
 309 -52 360 -81 360 -136 c 0
 360 -193 303 -227 244 -227 c 0
 204 -227 163 -211 140 -174 c 1
 156 -162 l 1
 176 -189 203 -202 226 -202 c 0
 258 -202 285 -178 285 -134 c 0
 285 -94 260 -77 230 -77 c 0
 213 -77 194 -83 179 -94 c 1
 165 -85 l 1
 209 3 l 1
EndSplineSet
EndChar

StartChar: circumflex
Encoding: 528 710 272
Width: 500
Flags: MW
HStem: 499 144<229 371>
VStem: 117 266<514 515>
LayerCount: 2
Back
Fore
SplineSet
383 515 m 1
 371 499 l 1
 335 524 283 553 251 570 c 1
 219 554 170 527 129 500 c 1
 117 514 l 1
 191 598 209 643 249 643 c 0
 289 643 308 598 383 515 c 1
EndSplineSet
EndChar

StartChar: dieresis
Encoding: 529 168 273
Width: 500
Flags: MW
HStem: 521 100<145.5 173.5 328 356>
VStem: 109 100<556.5 585> 292 100<556.5 585>
LayerCount: 2
Back
Fore
SplineSet
160 521 m 0
 131 521 109 542 109 571 c 0
 109 599 131 621 160 621 c 0
 187 621 209 599 209 571 c 0
 209 542 187 521 160 521 c 0
342 521 m 0
 314 521 292 542 292 571 c 0
 292 599 314 621 342 621 c 0
 370 621 392 599 392 571 c 0
 392 542 370 521 342 521 c 0
EndSplineSet
EndChar

StartChar: dotaccent
Encoding: 530 729 274
Width: 287
Flags: MW
HStem: 516 110<126.5 157>
VStem: 87 109<555.5 586>
LayerCount: 2
Back
Fore
SplineSet
142 516 m 0
 111 516 87 540 87 571 c 0
 87 601 111 626 142 626 c 0
 172 626 196 601 196 571 c 0
 196 540 172 516 142 516 c 0
EndSplineSet
EndChar

StartChar: grave
Encoding: 531 96 275
Width: 500
Flags: MW
HStem: 483 173<195.5 322>
VStem: 161 177<500 622.5>
LayerCount: 2
Back
Fore
SplineSet
322 483 m 1
 265 529 199 558 174 583 c 0
 166 591 161 601 161 611 c 0
 161 634 184 656 207 656 c 0
 217 656 227 652 236 643 c 0
 260 619 289 553 338 500 c 1
 322 483 l 1
EndSplineSet
EndChar

StartChar: hungarumlaut
Encoding: 532 733 276
Width: 600
Flags: MW
HStem: 500 167<202 325 309 345>
VStem: 187 336.87
LayerCount: 2
Back
Fore
SplineSet
202 500 m 1
 187 516 l 1
 234 567 262 632 286 655 c 0
 294 664 304 667 314 667 c 0
 336 667 358 646 358 624 c 0
 358 614 354 604 346 597 c 0
 322 572 257 544 202 500 c 1
345 500 m 1
 334 519 l 1
 390 559 431 617 459 634 c 0
 469 642 479 642 489 640 c 0
 511 636 528 611 523 589 c 0
 521 579 515 570 506 565 c 0
 477 546 408 532 345 500 c 1
EndSplineSet
EndChar

StartChar: macron
Encoding: 533 175 277
Width: 500
Flags: MW
HStem: 540 50<100 400 100 400>
VStem: 100 300<540 590 540 590>
LayerCount: 2
Back
Fore
SplineSet
100 590 m 1
 400 590 l 1
 400 540 l 1
 100 540 l 1
 100 590 l 1
EndSplineSet
EndChar

StartChar: ogonek
Encoding: 534 731 278
Width: 500
Flags: MW
HStem: -191 29<246.5 252.5>
VStem: 141 76<-128.5 -93.5 -128.5 -92.5>
LayerCount: 2
Back
Fore
SplineSet
314 -139 m 1
 326 -154 l 1
 301 -180 268 -191 237 -191 c 0
 177 -191 141 -157 141 -116 c 0
 141 -69 190 -13 312 9 c 1
 313 0 l 1
 246 -26 217 -75 217 -112 c 0
 217 -145 234 -162 259 -162 c 0
 275 -162 295 -155 314 -139 c 1
EndSplineSet
EndChar

StartChar: ring
Encoding: 535 730 279
Width: 500
Flags: MW
HStem: 482 23<229 266 229 279.5> 642 23<230 267>
VStem: 144 54<557 590 557 601> 299 54<558 591>
LayerCount: 2
Back
Fore
SplineSet
353 576 m 0
 353 523 313 482 246 482 c 0
 182 482 144 522 144 575 c 0
 144 627 184 665 251 665 c 0
 316 665 353 626 353 576 c 0
248 505 m 0
 284 505 299 541 299 575 c 0
 299 607 286 642 248 642 c 0
 212 642 198 607 198 573 c 0
 198 541 210 505 248 505 c 0
EndSplineSet
EndChar

StartChar: tilde
Encoding: 536 732 280
Width: 500
Flags: MW
HStem: 519 114<181 331>
VStem: 112 289<526 626>
LayerCount: 2
Back
Fore
SplineSet
112 526 m 1
 132 521 l 1
 143 561 161 578 188 578 c 0
 228 578 254 519 311 519 c 0
 351 519 385 547 401 626 c 1
 380 631 l 1
 369 591 350 574 323 574 c 0
 283 574 258 633 201 633 c 0
 161 633 128 605 112 526 c 1
EndSplineSet
EndChar

StartChar: vertical_stem_upper
Encoding: 537 -1 281
Width: 170
Flags: MW
HStem: 0 600<40 130 40 130>
VStem: 40 90<0 600 0 600>
LayerCount: 2
Back
Fore
SplineSet
40 0 m 1
 40 600 l 1
 130 600 l 1
 130 0 l 1
 40 0 l 1
EndSplineSet
EndChar

StartChar: czechcaron
Encoding: 538 -1 282
Width: 500
Flags: MW
HStem: 442 220<238 238>
VStem: 263 44<528.5 610>
LayerCount: 2
Back
Fore
SplineSet
238 442 m 1
 214 458 l 1
 241 486 263 519 263 538 c 0
 263 548 253 553 238 556 c 0
 215 561 193 578 193 607 c 0
 193 638 217 662 246 662 c 0
 286 662 307 631 307 589 c 0
 307 544 283 488 238 442 c 1
EndSplineSet
EndChar

StartChar: uni0D82
Encoding: 264 3458 283
Width: 364
VWidth: 1024
Flags: MW
HStem: 25 49<143.5 202.5 143.5 212.5> 278 27<143.5 202.5>
VStem: 30 37<148 203.5> 279 37<148 203.5 126.5 204>
LayerCount: 2
Back
Fore
SplineSet
67 176 m 0
 67 120 114 74 173 74 c 0
 232 74 279 120 279 176 c 0
 279 232 232 278 173 278 c 0
 114 278 67 232 67 176 c 0
30 165 m 0
 30 242 94 305 173 305 c 0
 252 305 316 242 316 165 c 0
 316 88 252 25 173 25 c 0
 94 25 30 88 30 165 c 0
EndSplineSet
EndChar

StartChar: uni0D83
Encoding: 265 3459 284
Width: 248
VWidth: 1024
Flags: MW
HStem: 26 30<100 130 100 138> 166 28<100 130> 228 30<100 130 100 138> 368 28<100 130>
VStem: 31 29<96 126 96 133 298 328> 170 29<96 126 298 328>
LayerCount: 2
Back
Fore
SplineSet
60 111 m 0
 60 81 85 56 115 56 c 0
 145 56 170 81 170 111 c 0
 170 141 145 166 115 166 c 0
 85 166 60 141 60 111 c 0
31 110 m 0
 31 156 69 194 115 194 c 0
 161 194 199 156 199 110 c 0
 199 64 161 26 115 26 c 0
 69 26 31 64 31 110 c 0
60 313 m 0
 60 283 85 258 115 258 c 0
 145 258 170 283 170 313 c 0
 170 343 145 368 115 368 c 0
 85 368 60 343 60 313 c 0
31 312 m 0
 31 358 69 396 115 396 c 0
 161 396 199 358 199 312 c 0
 199 266 161 228 115 228 c 0
 69 228 31 266 31 312 c 0
EndSplineSet
EndChar

StartChar: uni0D85
Encoding: 266 3461 285
Width: 573
VWidth: 1024
Flags: HMW
HStem: -4 27<229 334> 200 29<421.5 425.5 407.5 453.5> 287 22<252 316> 393 40<223 253 182.5 264>
VStem: 33 80<126 182 126 204> 316 31<309 309> 359 29<-215 313 -215 315> 384 4<207 235 207 207> 421 24<386 399> 464 62<268 299>
LayerCount: 2
Back
SplineSet
430 198 m 2
 481 198 529 225 529 281 c 0
 529 359 445 369 445 403 c 0
 445 414 451 418 457 421 c 2
 438 418 l 1
 420 403 l 2
 419.6796875 400.9296875 419.44921875 394.93359375 419.44921875 393 c 0
 419.44921875 376 423.99609375 362 434.99609375 346 c 0
 446.78515625 328.8515625 451.99609375 314 451.99609375 291 c 0
 451.99609375 256 433.99609375 231 406.99609375 231 c 0
 395.99609375 231 390.99609375 232 383.99609375 235 c 1
 383.99609375 203 l 1
 396.99609375 200 410.99609375 198 429.99609375 198 c 2
 430 198 l 2
464 424 m 1
 439 435 l 1
 419 429.66796875 398.125 417.515625 383 400 c 0
 364 378 356 350 356 313 c 2
 356 -215 l 1
 388 -215 l 1
 388 311 l 2
 388 350 393 394 464 424 c 1
523 51 m 1
 523 85 l 1
 480 52 418 35 335 35 c 0
 242 35 187 88 187 164 c 0
 187 200 201 285 309 285 c 2
 344 285 l 2
 344.015625 286.00390625 344.0234375 289.00390625 344.0234375 290 c 0
 344.0234375 382 295 433 211 433 c 0
 154 433 106 410 106 369 c 0
 106 344.66015625 126 328 148 328 c 0
 176 328 190.1875 344.375 197 358 c 0
 203 370 211 387 244 387 c 0
 284 387 310 348 311 309 c 1
 202 309 l 2
 94 309 33 248 33 160 c 0
 33 62 118 -4 282 -4 c 0
 386 -4 472 17 523 51 c 1
EndSplineSet
Fore
SplineSet
428 200 m 0xfdc0
 479 200 526 229 526 281 c 0
 526 354 445 369 445 403 c 0
 445 414 450 418 457 422 c 2
 438 418 l 1
 422 404 l 2
 422 402 421 400 421 398 c 0
 421 371 437 362 448 345 c 0
 460 326 464 311 464 287 c 0
 464 249 440 229 411 229 c 0
 404 229 393 230 384 235 c 1
 384 207 l 1
 400 202 415 200 428 200 c 0xfdc0
462 424 m 1
 439 435 l 1
 419 430 401 418 386 401 c 0
 368 380 359 350 359 313 c 2
 359 -215 l 1xfec0
 388 -215 l 1xfdc0
 388 315 l 2xfec0
 388 352 392 393 462 424 c 1
523 51 m 1
 523 83 l 1
 480 50 410 23 297 23 c 0
 161 23 113 88 113 164 c 0
 113 200 130 287 252 287 c 2
 347 287 l 2
 347 288 347 289 347 290 c 0
 347 382 295 433 211 433 c 0
 154 433 106 410 106 369 c 0
 106 345 125 331 147 331 c 0
 172 331 183 347 188 358 c 0
 196 376 205 393 241 393 c 0
 287 393 315 353 316 309 c 1
 202 309 l 2
 94 309 33 248 33 160 c 0
 33 62 118 -4 282 -4 c 0
 386 -4 472 17 523 51 c 1
EndSplineSet
EndChar

StartChar: uni0D86
Encoding: 267 3462 286
Width: 850
VWidth: 1024
Flags: MW
HStem: -4 27<229 334> -1 37<634.5 682.5 632.5 713.5> 200 29<421.5 425.5 407.5 453.5> 287 22<252 316> 366 37<634.5 682.5> 393 40<223 253 182.5 264>
VStem: 33 80<126 182 126 204> 316 31<309 309> 359 29<-215 313 -215 315> 384 4<207 235 207 207> 421 24<386 399> 464 62<268 299> 557 27<93 114 288 309> 739 66<146 256>
LayerCount: 2
Back
Fore
SplineSet
739 201 m 0x7b3c
 739 91 712 36 653 36 c 0
 612 36 584 69 584 117 c 0
 584 123 584 128 585 132 c 1
 558 132 l 1
 557 125 557 118 557 110 c 0
 557 41 601 -1 668 -1 c 0
 759 -1 805 73 805 201 c 0
 805 329 759 403 668 403 c 0
 601 403 557 361 557 292 c 0
 557 284 557 277 558 270 c 1
 585 270 l 1
 584 274 584 279 584 285 c 0
 584 333 612 366 653 366 c 0
 712 366 739 311 739 201 c 0x7b3c
428 200 m 0
 479 200 526 229 526 281 c 0
 526 354 445 369 445 403 c 0
 445 414 450 418 457 422 c 2
 438 418 l 1
 422 404 l 2
 422 402 421 400 421 398 c 0
 421 371 437 362 448 345 c 0
 460 326 464 311 464 287 c 0
 464 249 440 229 411 229 c 0
 404 229 393 230 384 235 c 1
 384 207 l 1x3b7c
 400 202 415 200 428 200 c 0
462 424 m 1
 439 435 l 1
 419 430 401 418 386 401 c 0
 368 380 359 350 359 313 c 2
 359 -215 l 1x33bc
 388 -215 l 1x337c
 388 315 l 2x33bc
 388 352 392 393 462 424 c 1
523 51 m 1
 523 83 l 1
 480 50 410 23 297 23 c 0
 161 23 113 88 113 164 c 0
 113 200 130 287 252 287 c 2
 347 287 l 2
 347 288 347 289 347 290 c 0
 347 382 295 433 211 433 c 0
 154 433 106 410 106 369 c 0
 106 345 125 331 147 331 c 0
 172 331 183 347 188 358 c 0
 196 376 205 393 241 393 c 0
 287 393 315 353 316 309 c 1
 202 309 l 2
 94 309 33 248 33 160 c 0
 33 62 118 -4 282 -4 c 0xb73c
 386 -4 472 17 523 51 c 1
EndSplineSet
EndChar

StartChar: uni0D87
Encoding: 268 3463 287
Width: 878
VWidth: 1024
Flags: MW
HStem: -147 54<708.5 814.5> -4 27<229 334> 200 29<421.5 425.5 407.5 453.5> 287 22<252 316> 313 26<547 755 547 793> 393 40<223 253 182.5 264>
VStem: 33 80<126 182 126 204> 316 31<309 309> 359 29<-215 313 -215 315> 384 4<207 235 207 207> 421 24<386 399> 464 62<268 299> 628 69<-2 73.5>
LayerCount: 2
Back
Fore
SplineSet
547 339 m 1xff38
 793 339 l 2
 792 337 791 332 790 323 c 1
 722 223 697 129 697 50 c 0
 697 -54 750 -93 808 -93 c 0
 821 -93 833 -91 846 -88 c 1
 850 -106 l 1
 823 -137 792 -147 751 -147 c 0
 666 -147 628 -73 628 14 c 0
 628 133 702 254 755 313 c 1
 547 313 l 1
 547 339 l 1xff38
428 200 m 0
 479 200 526 229 526 281 c 0
 526 354 445 369 445 403 c 0
 445 414 450 418 457 422 c 2
 438 418 l 1
 422 404 l 2
 422 402 421 400 421 398 c 0
 421 371 437 362 448 345 c 0
 460 326 464 311 464 287 c 0
 464 249 440 229 411 229 c 0
 404 229 393 230 384 235 c 1
 384 207 l 1xff78
 400 202 415 200 428 200 c 0
462 424 m 1
 439 435 l 1
 419 430 401 418 386 401 c 0
 368 380 359 350 359 313 c 2
 359 -215 l 1xffb8
 388 -215 l 1xff78
 388 315 l 2xffb8
 388 352 392 393 462 424 c 1
523 51 m 1
 523 83 l 1
 480 50 410 23 297 23 c 0
 161 23 113 88 113 164 c 0
 113 200 130 287 252 287 c 2
 347 287 l 2
 347 288 347 289 347 290 c 0
 347 382 295 433 211 433 c 0
 154 433 106 410 106 369 c 0
 106 345 125 331 147 331 c 0
 172 331 183 347 188 358 c 0
 196 376 205 393 241 393 c 0
 287 393 315 353 316 309 c 1
 202 309 l 2
 94 309 33 248 33 160 c 0
 33 62 118 -4 282 -4 c 0
 386 -4 472 17 523 51 c 1
EndSplineSet
EndChar

StartChar: uni0D88
Encoding: 269 3464 288
Width: 878
VWidth: 1024
Flags: MW
HStem: -148 42<724.5 847> -4 27<229 334> 200 29<421.5 425.5 407.5 453.5> 287 22<252 316> 315 24<545 746 545 790> 393 40<223 253 182.5 264>
VStem: 33 80<126 182 126 204> 316 31<309 309> 359 29<-215 313 -215 315> 384 4<207 235 207 207> 421 24<386 399> 464 62<268 299> 631 69<-30.5 33>
LayerCount: 2
Back
Fore
SplineSet
545 339 m 1xff38
 790 339 l 1
 790 317 l 1
 663 223 l 1
 813 223 l 1
 813 201 l 1
 767 168 700 96 700 13 c 0
 700 -74 758 -106 847 -106 c 1
 847 -131 l 1
 822 -142 795 -148 770 -148 c 0
 679 -148 631 -91 631 -12 c 0
 631 78 711 155 776 199 c 1
 613 199 l 1
 613 218 l 1
 746 315 l 1
 545 315 l 1
 545 339 l 1xff38
428 200 m 0
 479 200 526 229 526 281 c 0
 526 354 445 369 445 403 c 0
 445 414 450 418 457 422 c 2
 438 418 l 1
 422 404 l 2
 422 402 421 400 421 398 c 0
 421 371 437 362 448 345 c 0
 460 326 464 311 464 287 c 0
 464 249 440 229 411 229 c 0
 404 229 393 230 384 235 c 1
 384 207 l 1xff78
 400 202 415 200 428 200 c 0
462 424 m 1
 439 435 l 1
 419 430 401 418 386 401 c 0
 368 380 359 350 359 313 c 2
 359 -215 l 1xffb8
 388 -215 l 1xff78
 388 315 l 2xffb8
 388 352 392 393 462 424 c 1
523 51 m 1
 523 83 l 1
 480 50 410 23 297 23 c 0
 161 23 113 88 113 164 c 0
 113 200 130 287 252 287 c 2
 347 287 l 2
 347 288 347 289 347 290 c 0
 347 382 295 433 211 433 c 0
 154 433 106 410 106 369 c 0
 106 345 125 331 147 331 c 0
 172 331 183 347 188 358 c 0
 196 376 205 393 241 393 c 0
 287 393 315 353 316 309 c 1
 202 309 l 2
 94 309 33 248 33 160 c 0
 33 62 118 -4 282 -4 c 0
 386 -4 472 17 523 51 c 1
EndSplineSet
EndChar

StartChar: uni0D89
Encoding: 270 3465 289
Width: 593
VWidth: 1024
Flags: MW
HStem: -160 23<271 319.5 271 331> -15 28<267.5 281.5 267.5 300.5> 54 27<179.5 249.5 179.5 265> 105 27<274.5 292> 232 28<274 301.5> 357 75<230 345>
VStem: 33 41 173 62<-68 -63> 208 29<168 195.5 168 202> 339 37<168.5 196> 375 64<-102 -62> 506 38<145 235.5>
LayerCount: 2
Back
SplineSet
273.109375 15.42578125 m 1
 289.8828125 15.42578125 304.8828125 13.30859375 322.41015625 13.30859375 c 0
 418.00390625 13.30859375 475.00390625 72 475.00390625 151 c 0
 475.00390625 231 412.00390625 314 285.00390625 314 c 0
 178.00390625 314 106.00390625 266 106.00390625 184 c 0
 106.00390625 122 163.00390625 81.98046875 231.578125 81.98046875 c 0
 280.00390625 81.98046875 310.00390625 92 326.00390625 111 c 1
 315.00390625 102 299.45703125 97.9765625 285.06640625 97.9765625 c 0
 241.00390625 97.9765625 206.00390625 132.5703125 206.00390625 173 c 0
 206.00390625 219.265625 240.00390625 254.6875 286.359375 254.6875 c 0
 343.7890625 254.6875 378.00390625 218.00390625 378.00390625 164.00390625 c 0
 378.00390625 84.00390625 310.00390625 54.00390625 220.00390625 54.00390625 c 0
 113.00390625 54.00390625 32.7734375 116.84765625 32.7734375 220.984375 c 0
 32.7734375 356.90625 140.75 432.234375 284.19140625 432.234375 c 0
 443.7421875 432.234375 544.078125 353.234375 544.078125 198.29296875 c 0
 544.078125 92.40234375 472.80859375 9.91015625 384.00390625 -5.99609375 c 1
 417.36328125 -12.0625 439.0234375 -35.5625 439.0234375 -74.61328125 c 0
 439.0234375 -134.43359375 364.21875 -160.265625 298.3671875 -160.265625 c 0
 236.046875 -160.265625 172.57421875 -139.046875 172.57421875 -75.65234375 c 0
 172.57421875 -50.18359375 191.40234375 -38.44921875 208.00390625 -38.44921875 c 0
 223.00390625 -38.44921875 239.00390625 -47.765625 239.00390625 -64.9921875 c 0
 239.00390625 -70.5390625 235.3359375 -81.890625 235.3359375 -93.9921875 c 0
 235.3359375 -113.9921875 247.00390625 -135.3984375 300.4921875 -135.3984375 c 0
 339.38671875 -135.3984375 362.05859375 -115.9921875 362.05859375 -83.37109375 c 0
 362.05859375 -43.9921875 334.41015625 -14.640625 267.47265625 -14.640625 c 0
 258.71875 -14.640625 258.546875 -15.0859375 249.00390625 -15.99609375 c 1
 249.00390625 14.00390625 l 1
 260.68359375 14.9765625 262.41015625 15.4296875 273.11328125 15.4296875 c 1
 273.109375 15.42578125 l 1
288 225 m 0
 260.41015625 225 238 202.65625 238 176 c 0
 238 148.34375 261.33203125 127 288 127 c 0
 315.58984375 127 338 149.34375 338 176 c 0
 338 203.65625 314.66796875 225 288 225 c 0
EndSplineSet
Fore
SplineSet
273 13 m 0xff30
 290 13 307 11 324 11 c 0
 423 11 506 72 506 179 c 0
 506 292 405 357 285 357 c 0
 175 357 73 309 73 204 c 0
 73 134 136 81 223 81 c 0
 276 81 317 96 333 120 c 1
 318 108 299 105 285 105 c 0
 244 105 208 139 208 179 c 0
 208 225 242 260 286 260 c 0
 344 260 376 222 376 170 c 0xfed0
 376 90 310 54 220 54 c 0
 113 54 33 117 33 221 c 0
 33 357 141 432 284 432 c 0
 444 432 544 353 544 198 c 0
 544 92 473 10 384 -6 c 1
 417 -12 439 -36 439 -75 c 0
 439 -134 364 -160 298 -160 c 0
 236 -160 173 -139 173 -76 c 0
 173 -50 190 -38 207 -38 c 0
 222 -38 235 -48 235 -65 c 0
 235 -71 231 -82 231 -94 c 0
 231 -114 242 -137 300 -137 c 0
 339 -137 375 -121 375 -83 c 0
 375 -41 334 -15 267 -15 c 0
 259 -15 259 -15 249 -16 c 1
 249 12 l 1
 261 13 262 13 273 13 c 0xff30
288 232 m 0
 260 232 237 209 237 182 c 0
 237 154 261 132 288 132 c 0
 316 132 339 155 339 182 c 0
 339 210 315 232 288 232 c 0
EndSplineSet
EndChar

